<ttFont>
          <CharString index="0">
            hstemhm
            142 81 hintmask 10110110
            213 105 rmoveto
            33 1 50 3 108 vhcurveto
            3 17 30 4 30 hhcurveto
            54 86 -3 0 hvcurveto
            14 59 -4 -18 callgsubr
            -86 -11 -36 vhcurveto
            -30 -51 1 -22 hhcurveto
            8 194 rlineto
            37 1 4 2 65 hhcurveto
            141 12 -6 -65 -14 -2 -29 0 hvcurveto
            48 4 rlineto
            6 92 17 74 -15 callsubr
            6 rlineto
            -9 -66 -75 -3 -159 hhcurveto
            -60 -79 3 0 -27 callgsubr
            hintmask 01101110
            -82 callsubr
            -57 -18 -19 -60 -8 vhcurveto
            -6 -46 rlineto
            hintmask 10110110
            0 63 10 76 95 208 -7 0 vhcurveto
            5 6 rlineto
            9 85 18 83 -15 callsubr
            5 -44 -5 rlineto
            -110 -16 -19 -12 -158 hhcurveto
            -72 -7 6 54 hvcurveto
            return
          </CharString>
          <CharString index="1">
            rmoveto
            29 21 23 27 22 -14 21 -27 -29 -21 -23 -27 -21 14 -22 27 hvcurveto
            -166 hmoveto
            29 21 23 27 22 -14 21 -27 -29 -21 -23 -27 -21 14 -22 27 hvcurveto
            endchar
          </CharString>
          <CharString index="2">
            115 295 rmoveto
            73 12 49 45 62 hhcurveto
            53 30 -29 -53 -20 -5 -5 -20 -2 hvcurveto
            91 -46 rmoveto
            29 callgsubr
            6 24 25 vvcurveto
            95 -51 50 -98 -119 -102 -118 -137 -132 84 -89 126 60 93 68 0 vhcurveto
            -11 29 -5 callgsubr
            -61 -31 -62 -89 -59 74 112 vhcurveto
            16 vlineto
            return
          </CharString>
          <CharString index="3">
            hstemhm
            hintmask 11010000
            650 5 rmoveto
            210 540 14 39 11 7 39 2 rlinecurve
            7 47 rlineto
            0 -60 -3 -46 -64 -75 7 0 vhcurveto
            -7 -43 rlineto
            hintmask 10110000
            -57 callsubr
            50 hlineto
            48 20 -10 -25 -30 -112 -300 -50 -135 hvcurveto
            -6 hlineto
            0 -124 430 33 vvcurveto
            29 18 8 69 -13 callsubr
            hintmask 11010000
            0 -85 -11 -60 -33 -80 -45 callgsubr
            hintmask 10110000
            -7 -43 rlineto
            hintmask 11010000
            2 -4 49 -2 28 -15 13 -40 rlinecurve
            18 -55 -141 -384 rlineto
            -6 hlineto
            0 -123 425 39 vvcurveto
            28 18 8 68 -13 callsubr
            0 -74 -11 -71 -33 -80 -45 callgsubr
            hintmask 10110000
            -6 -43 rlineto
            hintmask 11010000
            -1 1 -2 -1 vvcurveto
            50 -1 28 -18 12 -38 rrcurveto
            84 -260 83 -293 0 vvcurveto
            64 22 142 402 rlineto
            6 hlineto
            68 -219 57 -205 0 vvcurveto
            return
          </CharString>
          <CharString index="4">
            551 145 rmoveto
            0 -170 238 -166 258 vhcurveto
            0 -34 -4 -33 -28 -58 5 0 vhcurveto
            -8 -37 3 -5 rlineto
            67 -7 20 -14 -41 vvcurveto
            -13 -437 -1 -41 -20 -17 -41 -5 rlinecurve
            -5 -46 rlineto
            0 53 8 40 43 63 -4 0 vhcurveto
            9 45 -2 4 rlineto
            0 -41 -1 -10 -23 -8 10 30 vhcurveto
            5 427 rlineto
            5 hlineto
            0 177 -247 195 -304 vhcurveto
            29 14 14 562 1 39 21 18 46 6 rlinecurve
            return
          </CharString>
          <CharString index="5">
            0 61 12 42 37 52 -56 callgsubr
            8 -59 callsubr
            -23 -2 -12 -25 -10 return
          </CharString>
          <CharString index="6">
            -71 37 -65 37 60 vvcurveto
            55 53 41 73 90 29 -23 -70 -31 -3 -21 0 vhcurveto
            6 -5 39 4 rlineto
            6 92 16 77 -15 callsubr
            -38 callsubr
            -64 25 -89 -130 -100 -81 -105 -87 83 -46 80 -42 vhcurveto
            77 -40 75 -36 -65 vvcurveto
            -68 -56 -42 -83 -108 -22 30 144 vhcurveto
            -45 -5 rlineto
            -97 -12 -77 0 vhcurveto
            5 -10 rlineto
            0 63 -34 94 vhcurveto
            return
          </CharString>
          <CharString index="7">
            -102 callsubr
            17 39 return
          </CharString>
          <CharString index="8">
            171 -12 rmoveto
            98 85 67 77 50 -32 32 -108 57 hvcurveto
            -62 32 -25 26 32 vvcurveto
            30 36 25 45 57 25 -21 -48 -9 -2 -20 0 vhcurveto
            37 3 rlineto
            5 66 14 56 0 vvcurveto
            -2 -18 callgsubr
            -46 16 -54 -105 -79 -61 -82 -48 33 -37 76 -39 vhcurveto
            92 -49 24 -21 -33 vvcurveto
            -33 -40 -26 -50 -71 -26 32 88 vhcurveto
            -35 -5 -1 -33 -7 -80 -4 -21 rlinecurve
            3 -7 rlineto
            0 46 -21 73 vhcurveto
            return
          </CharString>
          <CharString index="9">
            -26 -34 11 -38 hhcurveto
            -99 -87 -83 -95 -59 27 -49 47 -25 hvcurveto
            -4 vlineto
            0 -53 -32 -31 -32 vhcurveto
            -48 47 -42 62 -8 vhcurveto
            -6 vlineto
            0 -66 -46 -33 -44 vhcurveto
            -84 56 -49 95 127 121 88 92 70 -58 29 -155 8 vhcurveto
            -82 3 -38 15 31 vvcurveto
            13 15 16 27 15 vhcurveto
            -5 21 18 -3 19 hhcurveto
            24 44 rmoveto
            -69 -46 52 77 67 38 43 61 68 47 -53 -77 -68 -38 -41 -61 hvcurveto
            -2 -367 rmoveto
            -69 -41 31 51 45 62 46 0 hvcurveto
            160 -21 35 -14 -39 vvcurveto
            -52 -69 -47 -78 vhcurveto
            return
          </CharString>
          <CharString index="10">
            227 544 rmoveto
            2 38 14 12 56 7 4 45 rcurveline
            0 -69 -9 -46 -41 -78 -76 callsubr
            27 2 15 30 7 -12 -42 -58 callgsubr
            -56 -17 -18 -63 -12 vhcurveto
            -6 -46 rlineto
            return
          </CharString>
          <CharString index="11">
            0 72 10 77 34 72 -56 callgsubr
            7 41 -2 4 -58 5 -22 16 -16 50 rlinecurve
            -216 427 rmoveto
            7 hlineto
            79 -262 rlineto
            -2 -23 -43 -3 -27 hhcurveto
            -88 hlineto
            return
          </CharString>
          <CharString index="12">
            -73 callsubr
            -244 vlineto
            -37 -15 -16 -38 -6 vhcurveto
            -5 -41 rlineto
            -83 callgsubr
            39 6 138 3 69 vhcurveto
            return
          </CharString>
          <CharString index="13">
            0 -61 -7 -59 -23 -60 1 -49 callgsubr
            33 -1 19 -14 16 -33 rlinecurve
            38 -95 62 -176 31 -98 rrcurveto
            -110 -45 -73 -66 -77 hhcurveto
            -5 -7 rlineto
            -13 34 -44 10 vhcurveto
            88 -2 34 62 103 236 129 304 rcurveline
            14 39 12 13 30 5 7 37 rcurveline
            0 -50 -1 -35 -49 -52 4 0 vhcurveto
            return
          </CharString>
          <CharString index="14">
            rmoveto
            -42 -37 22 44 -17 hvcurveto
            -8 hlineto
            -16 -10 rlineto
            -57 14 37 -57 69 hhcurveto
            69 37 57 57 14 hvcurveto
            -16 10 rlineto
            -8 hlineto
            -44 -17 -37 -22 -42 hhcurveto
            endchar
          </CharString>
          <CharString index="15">
            rmoveto
            154 -3 rlineto
            -47 -4 -58 0 vhcurveto
            5 -6 61 7 4 -38 callsubr
            -3 49 -1 48 vhcurveto
            54 -2 6 44 -5 7 rlineto
            -55 219 hlineto
            -39 6 -3 -1 -172 -235 rlineto
            146 136 rmoveto
            6 -125 -96 hlineto
            endchar
          </CharString>
          <CharString index="16">
            rmoveto
            9 -1 48 28 46 24 28 13 rlinecurve
            27 -13 48 -25 47 -27 9 1 rcurveline
            14 22 rlineto
            -65 49 -73 62 0 vvcurveto
            -14 hlineto
            0 -73 -62 -65 -49 vhcurveto
            endchar
          </CharString>
          <CharString index="17">
            3 0 vhcurveto
            -7 -44 2 -4 rlineto
            -81 callsubr
            return
          </CharString>
          <CharString index="18">
            rmoveto
            3 27 6 11 15 13 -5 15 rcurveline
            -1 -14 -3 -9 -63 hvcurveto
            -31 -5 -35 -4 -8 -1 -3 -32 rcurveline
            3 -3 rlineto
            0 20 3 13 22 11 -4 -31 vhcurveto
            -209 vlineto
            -37 -18 -11 -39 -3 vhcurveto
            -4 -35 rlineto
            return
          </CharString>
          <CharString index="19">
            rmoveto
            62 -47 32 -107 11 vhcurveto
            5 77 rlineto
            72 64 -5 0 hvcurveto
            6 6 16 85 -29 -3 -7 -19 -9 -5 -24 -1 rlinecurve
            -125 -4 -5 -5 rlineto
            0 -4 -87 -7 -81 vhcurveto
            hintmask 11010000
            6 -7 rlineto
            88 -4 39 -21 -42 vvcurveto
            -40 -39 -29 -57 -18 -18 3 5 -18 vhcurveto
            -6 -7 rlineto
            -41 3 12 -16 32 hhcurveto
            86 91 71 65 hvcurveto
            endchar
          </CharString>
          <CharString index="20">
            rmoveto
            11 -28 5 -3 rlineto
            0 218 60 190 vvcurveto
            78 -47 56 -73 -81 -53 -54 -71 -53 38 -52 71 vhcurveto
            18 1 28 16 16 10 3 -3 rcurveline
            -36 -107 -118 -40 0 vvcurveto
            109 171 rmoveto
            -40 -26 32 41 43 22 24 37 41 25 -36 -57 -10 -1 -9 -1 -9 hvcurveto
            -6 -9 -23 -13 -25 hhcurveto
            endchar
          </CharString>
          <CharString index="21">
            rmoveto
            69 -71 76 -89 0 vvcurveto
            14 hlineto
            0 76 89 69 71 vhcurveto
            -16 23 -8 1 -50 -43 -50 -37 -28 -21 rlinecurve
            -29 21 -48 36 -51 44 -8 -1 rcurveline
            endchar
          </CharString>
          <CharString index="22">
            0 -79 -6 -50 -59 -95 -5 callsubr
            -10 -45 -12 callsubr
            0 85 1 59 vhcurveto
            142 1 7 47 rlineto
            endchar
          </CharString>
          <CharString index="23">
            -100 callsubr
            vhcurveto
            58 14 144 35 vvcurveto
            79 -53 50 -84 -32 -91 -60 -16 -24 vhcurveto
            -2 3 rlineto
            2 34 9 32 0 vvcurveto
            return
          </CharString>
          <CharString index="24">
            rmoveto
            34 25 27 32 26 -17 25 -32 -34 -25 -27 -32 -25 16 -26 33 hvcurveto
            endchar
          </CharString>
          <CharString index="25">
            -81 callsubr
            -1 -420 rlineto
            return
          </CharString>
          <CharString index="26">
            0 22 2 12 -53 callgsubr
            return
          </CharString>
          <CharString index="27">
            rmoveto
            0 84 -63 84 -76 vhcurveto
            9 2 20 19 rlineto
            -72 78 -78 94 0 vvcurveto
            -10 -2 -38 -41 rlineto
            endchar
          </CharString>
          <CharString index="28">
            hstemhm
            hintmask 10110000
            46 -2 rmoveto
            52 5 rlineto
            hintmask 01110000
            281 -9 16 16 rlineto
            72 17 89 0 vhcurveto
            -40 -5 -14 -83 -27 -35 -53 -4 rlinecurve
            -148 -9 29 43 115 167 142 183 rlinecurve
            -8 21 -210 5 -128 8 -6 -5 rlineto
            -1 -64 -10 -81 0 vvcurveto
            39 6 7 67 19 19 65 4 rlinecurve
            125 6 -272 -391 rlineto
            return
          </CharString>
          <CharString index="29">
            -56 callgsubr
            9 46 -2 4 rlineto
            0 return
          </CharString>
          <CharString index="30">
            95 174 -9 27 callsubr
            11 99 18 91 -15 callsubr
            5 -44 -5 rlineto
            -123 -22 -21 -19 -116 hhcurveto
            -75 -10 9 68 return
          </CharString>
          <CharString index="31">
            -65 callsubr
            -57 callsubr
            0 return
          </CharString>
          <CharString index="32">
            rmoveto
            -48 -54 30 76 51 33 36 54 66 38 -47 -59 -72 -53 -15 -36 hvcurveto
            -14 -64 rmoveto
            96 54 83 91 73 -41 76 -93 -89 -62 -72 -95 -90 50 -66 85 hvcurveto
            return
          </CharString>
          <CharString index="33">
            -20 hstemhm
            365 81 hintmask 10111000
            29 -2 rmoveto
            0 57 2 -87 callgsubr
            82 1 84 2 77 vhcurveto
            12 15 59 43 53 hhcurveto
            53 30 -38 -66 hvcurveto
            -6 -198 rlineto
            -35 -16 -19 -40 -11 vhcurveto
            hintmask 01111000
            -51 callgsubr
            17 39 vhcurveto
            58 16 144 35 vvcurveto
            82 -50 47 -87 -38 -93 -65 -13 -19 vhcurveto
            5 184 9 144 10 15 0 callsubr
            -4 -32 4 -3 rlineto
            21 hlineto
            26 11 -16 -36 hvcurveto
            -532 vlineto
            -37 -14 -14 -38 -4 vhcurveto
            return
          </CharString>
          <CharString index="34">
            -6 8 rlineto
            0 -71 -18 -69 -11 vhcurveto
            -3 -33 3 45 callgsubr
            36 13 -16 -45 hvcurveto
            return
          </CharString>
          <CharString index="35">
            40 -23 45 -28 -24 vvcurveto
            -23 -22 -15 -26 -32 -22 20 37 -1 vhcurveto
            -9 hlineto
            -10 -16 -15 -27 -13 vvcurveto
            return
          </CharString>
          <CharString index="36">
            -20 -20 callsubr
            107 -82 rmoveto
            2 -10 27 -6 60 112 rlineto
            -16 36 40 -10 45 hhcurveto
            189 146 154 199 124 -54 98 -87 50 hvcurveto
            41 76 -3 12 -29 7 -42 -80 rlineto
            14 -33 -37 7 -39 hhcurveto
            -185 -144 -154 -198 -119 47 -95 79 -52 hvcurveto
            182 8 rmoveto
            -45 -40 14 25 -34 hvcurveto
            242 460 rlineto
            57 -51 35 -84 -104 vvcurveto
            -154 -88 -106 -127 vhcurveto
            -222 290 rmoveto
            154 85 106 124 39 37 -11 -19 31 vhcurveto
            -239 -457 rlineto
            -49 51 -28 80 96 vvcurveto
            return
          </CharString>
          <CharString index="37">
            -113 346 54 -36 -21 252 52 hstemhm
            hintmask 10100000
            188 514 rmoveto
            -122 -30 rlineto
            -22 -6 -14 -21 -25 vvcurveto
            -49 37 -37 48 15 28 21 27 28 vhcurveto
            4 -1 rlineto
            hintmask 01100000
            -33 3 21 -17 37 hhcurveto
            31 10 28 48 0 vvcurveto
            -9 12 rlineto
            hintmask 10100000
            0 -17 -13 -18 -15 -9 10 17 vhcurveto
            32 12 82 22 vvcurveto
            49 -32 35 -67 -29 -82 -47 0 vhcurveto
            9 -33 5 -2 rlineto
            0 36 30 40 35 20 -23 -38 vhcurveto
            -4 -112 rmoveto
            -13 -16 -21 -10 -14 hhcurveto
            -23 -17 17 23 12 6 8 11 3 hvcurveto
            76 22 rlineto
            endchar
          </CharString>
          <CharString index="38">
            51 -12 43 521 46 hstemhm
            56 73 -55 70 191 75 hintmask 11101000
            56 124 rmoveto
            -88 81 -48 90 116 88 80 98 77 -57 42 -63 34 vhcurveto
            41 22 58 46 77 vvcurveto
            90 -79 44 -77 vhcurveto
            hintmask 11011000
            -106 -74 -79 -84 -74 52 -40 59 -32 hvcurveto
            hintmask 11101000
            -45 -21 -84 -50 -94 vvcurveto
            195 -93 rmoveto
            -71 -51 56 61 75 58 34 33 14 hvcurveto
            71 -35 71 -31 -68 vvcurveto
            -61 -52 -45 -59 vhcurveto
            hintmask 11011000
            -107 434 rmoveto
            45 36 42 57 55 43 -38 -71 -59 -33 -31 -27 -16 vhcurveto
            -67 35 -64 31 62 vvcurveto
            endchar
          </CharString>
          <CharString index="39">
            -20 -36 callgsubr
            65 -82 rmoveto
            2 -10 27 -6 55 103 rlineto
            -10 24 27 -7 30 hhcurveto
            131 101 111 143 85 -34 68 -55 38 hvcurveto
            47 87 -3 12 -29 7 -47 -89 rlineto
            9 -22 -25 5 -26 hhcurveto
            -131 -101 -111 -143 -83 31 -67 52 -38 hvcurveto
            139 15 rmoveto
            -30 -26 10 18 -22 hvcurveto
            155 295 rlineto
            28 -36 17 -54 -64 vvcurveto
            -104 -47 -65 -75 vhcurveto
            -142 202 rmoveto
            105 47 66 75 26 24 -9 -15 20 vhcurveto
            -152 -294 rlineto
            -26 36 -14 50 61 vvcurveto
            return
          </CharString>
          <CharString index="40">
            rmoveto
            7 -3 rlineto
            hintmask 01101100
            -47 7 29 -24 53 hhcurveto
            47 14 40 66 0 vvcurveto
            -14 16 rlineto
            hintmask 10011100
            0 -28 -25 -32 -26 -15 17 29 293 14 308 14 23 vhcurveto
            -6 13 rlineto
            -47 callsubr
            -4 -37 rlineto
            0 14 4 11 25 12 -17 -37 vhcurveto
            -166 vlineto
            3 -28 -23 1 -18 hhcurveto
            -137 -112 -118 -144 -126 78 -85 115 14 42 24 47 69 hvcurveto
            47 vmoveto
            0 -61 -53 -48 -74 -58 79 101 vhcurveto
            hintmask 10101100
            -13 callgsubr
          </CharString>
          <CharString index="41">
            0 54 7 37 32 56 -2 0 vhcurveto
            7 36 -2 -27 callsubr
            -17 -2 -15 -23 -7 11 32 52 3 125 3 56 vhcurveto
            return
          </CharString>
          <CharString index="42">
            -53 callsubr
            -44 return
          </CharString>
          <CharString index="43">
            -11 -43 -58 callgsubr
            return
          </CharString>
          <CharString index="44">
            10 callsubr
            -89 16 callgsubr
          </CharString>
          <CharString index="45">
            602 392 rmoveto
            -24 -45 -103 -72 -184 vhcurveto
            -4 hlineto
            0 -82 287 29 vvcurveto
            17 11 5 46 2 vhcurveto
            return
          </CharString>
          <CharString index="46">
            15 20 54 37 49 hhcurveto
            53 30 -38 -66 hvcurveto
            -4 -198 rlineto
            -35 -16 -19 -40 -11 vhcurveto
            return
          </CharString>
          <CharString index="47">
            -7 -38 callsubr
            -74 -19 -61 -11 vhcurveto
            -3 -31 5 -7 rlineto
            0 10 3 11 27 11 -17 -44 vhcurveto
            -220 vlineto
            -63 -10 -16 -40 -4 vhcurveto
            return
          </CharString>
          <CharString index="48">
            40 callgsubr
            0 return
          </CharString>
          <CharString index="49">
            0 71 10 77 vhcurveto
            34 hlineto
            101 168 -8 1 hvcurveto
            5 6 rlineto
            9 85 18 83 -15 callsubr
            5 -44 -5 rlineto
            -110 -15 -18 -12 -145 hhcurveto
            -54 -22 17 51 -8 hvcurveto
            -28 169 109 9 86 3 13 53 -4 5 -92 -13 -118 -11 -31 228 rlineto
            28 1 7 3 62 hhcurveto
            143 14 -6 -65 -14 -2 -29 0 hvcurveto
            48 4 rlineto
            6 92 17 74 0 vvcurveto
            return
          </CharString>
          <CharString index="50">
            2 -4 rlineto
            return
          </CharString>
          <CharString index="51">
            vhcurveto
            -4 -37 rlineto
            0 return
          </CharString>
          <CharString index="52">
            622 85 rmoveto
            -5 callgsubr
            -63 -35 -60 -82 -60 70 103 -7 vhcurveto
            270 64 9 14 rlineto
            0 2 10 9 vvcurveto
            89 -52 53 -85 -57 -56 -29 -51 -39 vhcurveto
            53 -17 -42 27 -65 hhcurveto
            -42 -121 -70 0 hvcurveto
            12 -43 5 -3 rlineto
            0 58 53 65 56 30 -37 -67 vhcurveto
            -1 -50 -191 -52 rlineto
            -32 -9 -21 -31 -39 vvcurveto
            return
          </CharString>
          <CharString index="53">
            -23 38 -13 30 55 65 42 52 37 -52 29 -33 23 vhcurveto
            return
          </CharString>
          <CharString index="54">
            -45 callgsubr
            -7 return
          </CharString>
          <CharString index="55">
            rmoveto
            -42 -37 17 33 -17 hvcurveto
            -8 hlineto
            -16 -10 rlineto
            -49 14 37 -49 69 hhcurveto
            69 37 49 49 14 hvcurveto
            -16 10 rlineto
            -8 hlineto
            -33 -17 -37 -17 -42 hhcurveto
            endchar
          </CharString>
          <CharString index="56">
            62 59 rmoveto
            17 -16 15 -26 -28 vvcurveto
            -43 -34 -47 -45 -31 vhcurveto
            -10 vlineto
            18 -15 rlineto
            60 35 80 66 77 vvcurveto
            51 -23 27 -28 -22 -23 -16 -10 -13 vhcurveto
            return
          </CharString>
          <CharString index="57">
            83 7 204 7 145 vhcurveto
            return
          </CharString>
          <CharString index="58">
            -68 32 67 -39 84 hhcurveto
            61 92 68 0 hvcurveto
            -360 154 rmoveto
            -32 4 -28 8 -25 vhcurveto
            -44 -47 -40 -24 -28 hhcurveto
            -36 -31 33 37 19 10 17 22 6 hvcurveto
            208 100 rmoveto
            83 49 56 73 42 31 -34 -44 -9 -7 -5 -13 -4 vhcurveto
            -175 -50 rlineto
            return
          </CharString>
          <CharString index="59">
            -96 343 41 217 46 hstem
            28 70 141 71 vstem
            159 343 rmoveto
            88 63 68 93 87 -51 56 -79 -88 -64 -68 -93 -85 52 -58 79 hvcurveto
            15 41 rmoveto
            -47 -29 45 78 60 24 34 41 47 29 -45 -78 -60 -24 -34 -41 hvcurveto
            endchar
          </CharString>
          <CharString index="60">
            0 -79 -20 -69 -9 vhcurveto
            return
          </CharString>
          <CharString index="61">
            32 -8 67 -50 -21 410 66 return
          </CharString>
          <CharString index="62">
            rmoveto
            -76 -82 -96 -91 0 vvcurveto
            -15 vlineto
            0 96 -88 76 -78 vhcurveto
            22 15 1 10 -107 155 107 149 -1 10 rlineto
            return
          </CharString>
          <CharString index="63">
            -12 rmoveto
            -90 callgsubr
            return
          </CharString>
          <CharString index="64">
            142 120 rmoveto
            -57 -13 -13 -62 -6 vhcurveto
            -10 -45 rlineto
            0 65 1 50 17 callgsubr
            -11 14 54 2 vhcurveto
            12 429 1 38 15 14 50 8 rlinecurve
            -14 callgsubr
            return
          </CharString>
          <CharString index="65">
            -73 -35 callgsubr
            606 43 return
          </CharString>
          <CharString index="66">
            0 42 -33 -21 return
          </CharString>
          <CharString index="67">
            -83 11 -9 -8 rlineto
            -3 -85 -12 -88 0 vvcurveto
            47 4 return
          </CharString>
          <CharString index="68">
            rmoveto
            78 92 -2 -2 77 -46 callgsubr
            54 -2 37 11 callgsubr
            -93 352 hlineto
            -32 10 rlineto
            return
          </CharString>
          <CharString index="69">
            6 rlineto
            0 return
          </CharString>
          <CharString index="70">
            vhcurveto
            51 17 49 46 0 vvcurveto
            return
          </CharString>
          <CharString index="71">
            258 -12 51 550 60 return
          </CharString>
          <CharString index="72">
            0 vvcurveto
            endchar
          </CharString>
          <CharString index="73">
            12 rlineto
            0 return
          </CharString>
          <CharString index="74">
            40 256 2 160 hhcurveto
            8 51 rlineto
            endchar
          </CharString>
          <CharString index="75">
            56 136 182 -56 56 30 -20 hstemhm
            hintmask 10110000
            248 return
          </CharString>
          <CharString index="76">
            -159 rmoveto
            0 -38 -23 -39 -35 -23 23 31 return
          </CharString>
          <CharString index="77">
            39 callgsubr
            85 return
          </CharString>
          <CharString index="78">
            5 67 -6 17 67 9 4 45 rcurveline
            return
          </CharString>
          <CharString index="79">
            -41 callsubr
            408 68 return
          </CharString>
          <CharString index="80">
            3 rlineto
            0 return
          </CharString>
          <CharString index="81">
            -20 hstemhm
            hintmask 01100000
            return
          </CharString>
          <CharString index="82">
            -90 callgsubr
            endchar
          </CharString>
          <CharString index="83">
            2 rlineto
            0 return
          </CharString>
          <CharString index="84">
            64 -12 49 373 54 return
          </CharString>
          <CharString index="85">
            11 14 vhcurveto
            -5 10 rlineto
            0 -62 -12 -53 -7 vhcurveto
            -2 -22 rlineto
            -9 vlineto
            3 11 2 -1 7 hvcurveto
            14 -1 6 -11 -22 vvcurveto
            -299 vlineto
            return
          </CharString>
          <CharString index="86">
            46 2 vhcurveto
            23 callgsubr
            return
          </CharString>
          <CharString index="87">
            hstem
            -7 callsubr
            vstem
            return
          </CharString>
          <CharString index="88">
            0 -99 43 -82 36 vhcurveto
            -168 70 rlineto
            6 vlineto
            154 60 rlineto
            82 34 112 39 0 vvcurveto
            -7 50 -9 -18 callgsubr
            -110 return
          </CharString>
          <CharString index="89">
            498 4 -21 610 44 -40 -20 return
          </CharString>
          <CharString index="90">
            rlineto
            116 103 -8 0 hvcurveto
            6 6 24 118 -33 -4 -11 -30 -13 -7 -39 -2 rlinecurve
            -189 -8 -8 -8 rlineto
            0 -7 return
          </CharString>
          <CharString index="91">
            -272 -21 226 return
          </CharString>
          <CharString index="92">
            0 vvcurveto
            -3 return
          </CharString>
          <CharString index="93">
            224 rmoveto
            -14 43 -8 -38 callsubr
            -95 -54 -85 -44 vhcurveto
            6 -22 7 -4 rlineto
            95 36 90 30 -35 callsubr
          </CharString>
          <CharString index="94">
            5 vhcurveto
            4 39 -3 7 rlineto
            return
          </CharString>
          <CharString index="95">
            6 -9 rlineto
            return
          </CharString>
          <CharString index="96">
            43 140 48 154 -20 hstem
            264 return
          </CharString>
          <CharString index="97">
            0 56 4 56 39 85 -2 0 vhcurveto
            7 return
          </CharString>
          <CharString index="98">
            233 -12 50 214 50 288 59 return
          </CharString>
          <CharString index="99">
            17 117 3 2 157 7 return
          </CharString>
          <CharString index="100">
            40 -6 callsubr
            return
          </CharString>
          <CharString index="101">
            86 437 89 return
          </CharString>
          <CharString index="102">
            1 0 vhcurveto
            return
          </CharString>
          <CharString index="103">
            177 -1 43 -37 -21 610 -20 24 43 -4 -20 return
          </CharString>
          <CharString index="104">
            0 75 12 51 49 84 -78 callsubr
            -29 -3 -24 -39 -10 15 53 51 return
          </CharString>
          <CharString index="105">
            44 549 44 8 -20 hstemhm
            hintmask 11100000
            return
          </CharString>
          <CharString index="106">
            1 0 hvcurveto
            33 callgsubr
            return
          </CharString>
          <CharString index="107">
            -6 13 rcurveline
            -47 callsubr
            return
          </CharString>
          <CharString index="108">
            -3 0 hvcurveto
            10 53 -3 -27 callsubr
            return
          </CharString>
          <CharString index="109">
            23 callsubr
            42 -2 4 rlineto
            0 -24 -1 -38 return
          </CharString>
          <CharString index="110">
            -20 -30 callsubr
            return
          </CharString>
          <CharString index="111">
            91 3 170 9 125 return
          </CharString>
          <CharString index="112">
            366 -21 246 56 -50 -19 callgsubr
            211 345 rmoveto
            0 43 6 26 25 return
          </CharString>
          <CharString index="113">
            rmoveto
            -88 33 -33 91 24 77 60 0 vhcurveto
            -30 callgsubr
            return
          </CharString>
          <CharString index="114">
            43 callsubr
            -14 -1 -7 -15 -6 9 23 vhcurveto
            33 return
          </CharString>
          <CharString index="115">
            -12 rmoveto
            hintmask 10110000
            54 12 rlineto
            86 235 -7 0 hvcurveto
            12 7 rlineto
            8 73 return
          </CharString>
          <CharString index="116">
            rmoveto
            -39 -24 -28 -34 -31 20 -26 37 38 24 28 34 29 -18 28 -38 hvcurveto
            return
          </CharString>
          <CharString index="117">
            -28 -85 33 -33 hhcurveto
            -16 -4 -76 return
          </CharString>
          <CharString index="118">
            28 85 -33 33 hhcurveto
            16 4 76 return
          </CharString>
          <CharString index="119">
            -21 254 59 249 48 hstem
            return
          </CharString>
          <CharString index="120">
            4 callsubr
            vhcurveto
            -29 callsubr
            return
          </CharString>
          <CharString index="121">
            10 -21 194 54 224 -20 157 -20 21 -20 hstemhm
            hintmask 11101000
            return
          </CharString>
          <CharString index="122">
            11 3 rlineto
            15 37 16 28 35 callsubr
            -46 19 -68 return
          </CharString>
          <CharString index="123">
            -54 callsubr
            13 return
          </CharString>
          <CharString index="124">
            285 -19 -21 40 44 549 44 return
          </CharString>
          <CharString index="125">
            40 11 -20 hstemhm
            233 70 return
          </CharString>
          <CharString index="126">
            12 -241 64 629 -20 return
          </CharString>
          <CharString index="127">
            56 124 205 -52 52 return
          </CharString>
          <CharString index="128">
            -10 -12 67 355 54 return
          </CharString>
          <CharString index="129">
            -85 -11 rlineto
            -310 hlineto
            return
          </CharString>
          <CharString index="130">
            vhcurveto
            -5 -39 rlineto
            -10 callsubr
            return
          </CharString>
          <CharString index="131">
            -43 callgsubr
            endchar
          </CharString>
          <CharString index="132">
            -84 -21 194 54 361 -20 21 -20 hstemhm
            hintmask 11010000
            return
          </CharString>
          <CharString index="133">
            0 -134 -6 -80 38 callsubr
            vhcurveto
            -11 -49 return
          </CharString>
          <CharString index="134">
            0 hvcurveto
            5 6 rlineto
            return
          </CharString>
          <CharString index="135">
            0 59 10 75 vhcurveto
            return
          </CharString>
          <CharString index="136">
            0 139 1 90 vhcurveto
            227 1 8 51 rlineto
            return
          </CharString>
          <CharString index="137">
            63 60 29 36 48 32 21 -12 0 vhcurveto
            endchar
          </CharString>
          <CharString index="138">
            43 9 -20 hstemhm
            142 return
          </CharString>
          <CharString index="139">
            4 37 -13 13 rlineto
            0 return
          </CharString>
          <CharString index="140">
            -16 5 -35 5 -5 rlineto
            return
          </CharString>
          <CharString index="141">
            64 -31 64 22 -20 hstemhm
            return
          </CharString>
          <CharString index="142">
            28 callgsubr
            0 return
          </CharString>
          <CharString index="143">
            96 -12 49 558 54 return
          </CharString>
          <CharString index="144">
            -12 70 249 59 149 69 47 -20 hstem
            return
          </CharString>
          <CharString index="145">
            -89 -150 1 0 return
          </CharString>
          <CharString index="146">
            -21 226 -20 hstem
            return
          </CharString>
          <CharString index="147">
            -6 vhcurveto
            -7 -46 rlineto
            hintmask 01100000
            0 82 12 return
          </CharString>
          <CharString index="148">
            -1 -27 callsubr
            -13 -1 -7 -15 -6 9 return
          </CharString>
          <CharString index="149">
            rlineto
            -56 -16 -18 -62 -12 vhcurveto
            -6 -46 rlineto
            return
          </CharString>
          <CharString index="150">
            39 -28 callgsubr
            return
          </CharString>
          <CharString index="151">
            hstemhm
            285 77 return
          </CharString>
        <CharString name=".notdef">
          -232 endchar
        </CharString>
        <CharString name="A">
          -59 callgsubr
          hstemhm
          hintmask 01110000
          493 113 rmoveto
          -75 225 -84 311 0 vvcurveto
          -8 hlineto
          -63 -17 -195 -511 -22 -56 -19 -17 -37 -4 rlinecurve
          -8 -47 rlineto
          0 62 3 48 66 73 -7 0 vhcurveto
          6 40 callgsubr
          -57 hlineto
          -42 -18 12 29 9 3 12 6 18 hvcurveto
          37 104 rlineto
          3 23 47 5 39 hhcurveto
          28 52 0 -1 24 hvcurveto
          33 -109 rlineto
          6 -19 3 -16 -13 vvcurveto
          -24 -20 -9 -69 -5 vhcurveto
          -4 -39 rlineto
          hintmask 10110000
          3 -7 rlineto
          hintmask 01110000
          -96 callsubr
          endchar
        </CharString>
        <CharString name="AE">
          376 0 45 -34 -21 597 50 -43 -20 75 -26 callsubr
          301 36 rmoveto
          -2 -39 2 -7 rlineto
          hintmask 10100000
          -58 callsubr
          hintmask 10011000
          -3 6 rlineto
          hintmask 10100000
          -9 -60 -80 -3 -158 hhcurveto
          -95 -64 4 -1 -27 callgsubr
          hintmask 10011000
          0 22 2 12 14 8 -4 -12 3 vhcurveto
          -247 -457 rlineto
          -30 -55 -33 -35 0 vvcurveto
          7 -35 rlineto
          0 46 4 22 64 74 -7 0 vhcurveto
          5 47 rlineto
          -57 hlineto
          -38 -17 11 23 11 4 12 12 23 hvcurveto
          71 138 91 10 99 8 18 -123 rlineto
          3 -22 4 -22 -22 vvcurveto
          -36 -18 -9 -79 -6 vhcurveto
          -91 274 rmoveto
          118 229 rlineto
          9 hlineto
          30 -218 -73 -6 rlineto
          endchar
        </CharString>
        <CharString name="AEacute">
          376 0 45 -34 -21 597 50 -43 -20 316 -20 hstemhm
          hintmask 01101000
          301 36 rmoveto
          -2 -39 2 -7 rlineto
          hintmask 10101000
          -58 callsubr
          -3 6 rlineto
          -9 -60 -80 -3 -158 hhcurveto
          -95 -64 4 -1 -27 callgsubr
          hintmask 10011000
          0 22 2 12 14 8 -4 -12 3 vhcurveto
          -247 -457 rlineto
          -30 -55 -33 -35 0 vvcurveto
          7 -35 rlineto
          0 46 4 22 64 74 -7 0 vhcurveto
          5 47 rlineto
          -57 hlineto
          -38 -17 11 23 11 4 12 12 23 hvcurveto
          71 138 91 10 99 8 18 -123 rlineto
          3 -22 4 -22 -22 vvcurveto
          -36 -18 -9 -79 -6 vhcurveto
          -91 274 rmoveto
          118 229 rlineto
          9 hlineto
          30 -218 -73 -6 rlineto
          336 532 -98 callgsubr
        </CharString>
        <CharString name="Aacute">
          -59 callgsubr
          212 -20 -105 callgsubr
          273 514 -95 callgsubr
        </CharString>
        <CharString name="Abreve">
          -59 callgsubr
          81 58 50 -20 hstemhm
          hintmask 01111100
          493 113 rmoveto
          -75 225 -84 311 0 vvcurveto
          -8 hlineto
          -63 -17 -195 -511 -22 -56 -19 -17 -37 -4 rlinecurve
          -8 -47 rlineto
          0 62 3 48 66 73 -7 0 vhcurveto
          6 40 callgsubr
          -57 hlineto
          -42 -18 12 29 9 3 12 6 18 hvcurveto
          37 104 rlineto
          3 23 47 5 39 hhcurveto
          28 52 0 -1 24 hvcurveto
          33 -109 rlineto
          6 -19 3 -16 -13 vvcurveto
          -24 -20 -9 -69 -5 vhcurveto
          -4 -39 rlineto
          hintmask 10111100
          3 -7 rlineto
          hintmask 01111100
          -96 callsubr
          112 495 -52 callsubr
        </CharString>
        <CharString name="Acircumflex">
          -59 callgsubr
          217 -20 -105 callgsubr
          -18 440 -91 callsubr
        </CharString>
        <CharString name="Adieresis">
          -59 callgsubr
          96 93 -105 callgsubr
          191 452 -106 callsubr
        </CharString>
        <CharString name="Agrave">
          -59 callgsubr
          212 -20 -105 callgsubr
          -36 504 -79 callgsubr
        </CharString>
        <CharString name="Amacron">
          -59 callgsubr
          91 52 6 -20 -100 callgsubr
          hintmask 01110100
          -96 callsubr
          256 505 rmoveto
          hintmask 01111000
          -85 callsubr
        </CharString>
        <CharString name="Aogonek">
          144 -241 59 203 -21 232 41 376 -20 hstem
          578 -31 callsubr
          40 22 32 53 56 vhcurveto
          32 -1 34 -2 0 vvcurveto
          7 41 -2 4 -58 5 -22 16 -16 50 rlinecurve
          -75 225 -84 311 0 vvcurveto
          -8 hlineto
          -63 -17 -195 -511 -22 -56 -19 -17 -37 -4 rlinecurve
          -8 -47 rlineto
          0 62 3 48 66 73 -7 0 vhcurveto
          6 40 callgsubr
          -57 hlineto
          -42 -18 12 29 9 3 12 6 18 hvcurveto
          37 104 rlineto
          3 23 47 5 39 hhcurveto
          28 52 0 -1 24 hvcurveto
          33 -109 rlineto
          6 -19 3 -16 -13 vvcurveto
          -24 -20 -9 -69 -5 vhcurveto
          -4 -39 3 -7 rlineto
          0 70 10 75 vhcurveto
          -53 -53 -41 -47 -47 -43 callgsubr
          -314 718 rmoveto
          7 hlineto
          79 -262 rlineto
          -2 -23 -43 -3 -27 hhcurveto
          -88 hlineto
          endchar
        </CharString>
        <CharString name="Aring">
          -59 callgsubr
          45 164 -105 callgsubr
          115 439 -67 callgsubr
        </CharString>
        <CharString name="Aringacute">
          -59 callgsubr
          40 148 125 -20 hstemhm
          hintmask 01111100
          493 113 rmoveto
          -75 225 -84 311 0 vvcurveto
          -8 hlineto
          -63 -17 -195 -511 -22 -56 -19 -17 -37 -4 rlinecurve
          -8 -47 rlineto
          0 62 3 48 66 73 -7 0 vhcurveto
          6 40 callgsubr
          -57 hlineto
          -42 -18 12 29 9 3 12 6 18 hvcurveto
          37 104 rlineto
          3 23 47 5 39 hhcurveto
          28 52 0 -1 24 hvcurveto
          33 -109 rlineto
          6 -19 3 -16 -13 vvcurveto
          -24 -20 -9 -69 -5 vhcurveto
          -4 -39 rlineto
          hintmask 10111100
          3 -7 rlineto
          hintmask 01111100
          -96 callsubr
          131 431 9 callgsubr
          7 callgsubr
          116 -14 callsubr
        </CharString>
        <CharString name="Atilde">
          -59 callgsubr
          82 64 -31 64 12 -20 hstemhm
          hintmask 01111010
          493 113 rmoveto
          -75 225 -84 311 0 vvcurveto
          -8 hlineto
          -63 -17 -195 -511 -22 -56 -19 -17 -37 -4 rlinecurve
          -8 -47 rlineto
          0 62 3 48 66 73 -7 0 vhcurveto
          6 40 callgsubr
          -57 hlineto
          -42 -18 12 29 9 3 12 6 18 hvcurveto
          37 104 rlineto
          3 23 47 5 39 hhcurveto
          28 52 0 -1 24 hvcurveto
          33 -109 rlineto
          6 -19 3 -16 -13 vvcurveto
          -24 -20 -9 -69 -5 vhcurveto
          -4 -39 rlineto
          hintmask 10111010
          3 -7 rlineto
          hintmask 01110100
          -96 callsubr
          -22 426 35 callgsubr
          hintmask 01111010
          -50 callgsubr
          hintmask 01110100
          -39 callgsubr
        </CharString>
        <CharString name="B">
          163 -10 51 -32 -21 33 -21 594 -20 24 43 -4 -20 hstemhm
          142 73 207 81 -47 86 hintmask 0011101100000000
          172 hmoveto
          hintmask 1001101010000000
          51 40 -10 44 hhcurveto
          126 109 89 104 74 -58 57 -97 21 hvcurveto
          hintmask 1001101100000000
          74 32 42 56 66 vvcurveto
          98 -70 54 -127 vhcurveto
          hintmask 0101011100000000
          0 -81 -4 -37 -38 -73 -90 callsubr
          -1 -420 42 callsubr
          hintmask 0011101010000000
          0 64 12 50 vhcurveto
          149 300 rmoveto
          89 -16 46 -47 -72 vvcurveto
          hintmask 1001101100000000
          -76 -49 -48 -80 -83 -31 19 51 vhcurveto
          4 187 rlineto
          2 53 rmoveto
          2 83 3 76 4 65 rrcurveto
          18 1 3 5 14 hhcurveto
          120 56 -40 -86 -107 -94 -22 0 -15 -94 8 0 hvcurveto
          endchar
        </CharString>
        <CharString name="C">
          4 callgsubr
          -97 callgsubr
          endchar
        </CharString>
        <CharString name="Cacute">
          4 callgsubr
          192 -20 -97 callgsubr
          180 799 -95 callgsubr
        </CharString>
        <CharString name="Ccaron">
          4 callgsubr
          189 -20 -97 callgsubr
          151 849 -93 callgsubr
        </CharString>
        <CharString name="Ccedilla">
          195 -20 callgsubr
          150 49 552 59 hstemhm
          40 90 hintmask 01111100
          298 -85 rmoveto
          -72 callsubr
          hintmask 10111100
          16 callsubr
          39 rlineto
          106 4 76 35 0 vvcurveto
          6 9 rlineto
          7 72 20 91 0 vvcurveto
          -48 -4 rlineto
          -108 -25 -54 -50 -91 hhcurveto
          -138 -91 116 176 159 86 101 134 98 49 -31 -62 -22 -3 -27 0 hvcurveto
          48 4 rlineto
          6 92 19 75 0 vvcurveto
          -4 -38 callsubr
          -91 24 -83 -202 -147 -149 -203 -183 109 -117 171 -8 vhcurveto
          endchar
        </CharString>
        <CharString name="Ccircumflex">
          4 callgsubr
          228 -20 -97 callgsubr
          -129 714 rmoveto
          -106 callgsubr
          endchar
        </CharString>
        <CharString name="Cdotaccent">
          4 callgsubr
          70 110 -97 callgsubr
          15 731 -83 callsubr
        </CharString>
        <CharString name="D">
          269 8 callgsubr
          hstemhm
          142 72 -72 87 hintmask 10100100
          317 -10 callgsubr
          178 -134 121 -195 hvcurveto
          hintmask 10011100
          0 -106 -4 -46 -38 -67 -65 callsubr
          rlineto
          hintmask 10100100
          -57 callsubr
          hintmask 10011100
          -82 callsubr
          -56 -16 -18 -62 -12 vhcurveto
          -6 -46 rlineto
          hintmask 01100100
          0 65 12 50 vhcurveto
          hintmask 10100100
          51 93 -12 0 hvcurveto
          -52 604 rmoveto
          -24 callgsubr
          -101 -25 19 73 hvcurveto
          hintmask 10100010
          24 callgsubr
          endchar
        </CharString>
        <CharString name="Dcaron">
          269 8 callgsubr
          221 -6 callgsubr
          -72 87 hintmask 10100110
          317 -10 callgsubr
          178 -134 121 -195 hvcurveto
          hintmask 10011110
          0 -106 -4 -46 -38 -67 -65 callsubr
          rlineto
          hintmask 10100110
          -57 callsubr
          hintmask 10011110
          -82 callsubr
          -56 -16 -18 -62 -12 vhcurveto
          -6 -46 rlineto
          hintmask 01100110
          0 65 12 50 vhcurveto
          hintmask 10100110
          51 93 -12 0 hvcurveto
          -52 604 rmoveto
          -24 callgsubr
          -101 -25 19 73 hvcurveto
          hintmask 10100101
          24 callgsubr
          197 245 -93 callgsubr
        </CharString>
        <CharString name="Dcroat">
          -77 callgsubr
        </CharString>
        <CharString name="Delta">
          104 0 57 592 -20 hstem
          17 hmoveto
          482 hlineto
          7 7 rlineto
          -75 225 -115 417 0 vvcurveto
          -8 hlineto
          -63 -17 -237 -619 rlineto
          258 527 rmoveto
          144 -483 rlineto
          -327 hlineto
          176 483 rlineto
          endchar
        </CharString>
        <CharString name="E">
          -61 callgsubr
          75 -20 hstemhm
          142 81 hintmask 10110010
          213 105 rmoveto
          33 1 50 3 108 vhcurveto
          3 17 30 4 30 hhcurveto
          54 86 -3 0 hvcurveto
          14 59 -4 -18 callgsubr
          -86 -11 -36 vhcurveto
          -30 -51 1 -22 hhcurveto
          8 194 rlineto
          37 1 4 2 65 hhcurveto
          141 12 -6 -65 -14 -2 -29 0 hvcurveto
          48 4 rlineto
          6 92 17 74 0 vvcurveto
          hintmask 10101110
          -3 6 rlineto
          hintmask 10110010
          -9 -66 -75 -3 -159 hhcurveto
          -60 -79 3 0 -27 callgsubr
          hintmask 01101110
          -82 callsubr
          -57 -18 -19 -60 -8 vhcurveto
          -6 -46 rlineto
          hintmask 10110010
          0 63 10 76 95 208 -7 0 vhcurveto
          5 6 rlineto
          9 85 18 83 -15 callsubr
          5 -44 -5 rlineto
          -110 -16 -19 -12 -158 hhcurveto
          -72 -7 6 54 hvcurveto
          endchar
        </CharString>
        <CharString name="Eacute">
          -61 callgsubr
          267 -20 -107 callsubr
          257 682 -95 callgsubr
        </CharString>
        <CharString name="Ebreve">
          -61 callgsubr
          159 58 66 -20 hstemhm
          142 81 hintmask 10110111
          213 105 rmoveto
          33 1 50 3 108 vhcurveto
          3 17 30 4 30 hhcurveto
          54 86 -3 0 hvcurveto
          14 59 -4 -18 callgsubr
          -86 -11 -36 vhcurveto
          -30 -51 1 -22 hhcurveto
          8 194 rlineto
          37 1 4 2 65 hhcurveto
          141 12 -6 -65 -14 -2 -29 0 hvcurveto
          48 4 rlineto
          6 92 17 74 -15 callsubr
          6 rlineto
          -9 -66 -75 -3 -159 hhcurveto
          -60 -79 3 0 -27 callgsubr
          hintmask 01101111
          -82 callsubr
          -57 -18 -19 -60 -8 vhcurveto
          -6 -46 rlineto
          hintmask 10110111
          0 63 10 76 95 208 -7 0 vhcurveto
          5 6 rlineto
          9 85 18 83 -15 callsubr
          5 -44 -5 rlineto
          -110 -16 -19 -12 -158 hhcurveto
          -72 -7 6 54 hvcurveto
          114 686 -93 callsubr
        </CharString>
        <CharString name="Ecaron">
          -61 callgsubr
          264 -20 -107 callsubr
          228 732 -93 callgsubr
        </CharString>
        <CharString name="Ecircumflex">
          -61 callgsubr
          272 -20 -107 callsubr
          -34 608 -91 callsubr
        </CharString>
        <CharString name="Edieresis">
          -61 callgsubr
          151 93 -107 callsubr
          175 620 -106 callsubr
        </CharString>
        <CharString name="Edotaccent">
          -61 callgsubr
          145 110 -107 callsubr
          92 614 -83 callsubr
        </CharString>
        <CharString name="Egrave">
          -61 callgsubr
          267 -20 -107 callsubr
          -52 672 -79 callgsubr
        </CharString>
        <CharString name="Emacron">
          -61 callgsubr
          146 52 6 -20 hstemhm
          142 81 hintmask 10110101
          213 105 rmoveto
          33 1 50 3 108 vhcurveto
          3 17 30 4 30 hhcurveto
          54 86 -3 0 hvcurveto
          14 59 -4 -18 callgsubr
          -86 -11 -36 vhcurveto
          -30 -51 1 -22 hhcurveto
          8 194 rlineto
          37 1 4 2 65 hhcurveto
          141 12 -6 -65 -14 -2 -29 0 hvcurveto
          48 4 rlineto
          6 92 17 74 -15 callsubr
          6 rlineto
          -9 -66 -75 -3 -159 hhcurveto
          -60 -79 3 0 -27 callgsubr
          hintmask 01101101
          -82 callsubr
          -57 -18 -19 -60 -8 vhcurveto
          -6 -46 rlineto
          hintmask 10110011
          0 63 10 76 95 208 -7 0 vhcurveto
          5 6 rlineto
          9 85 18 83 -15 callsubr
          5 -44 -5 rlineto
          -110 -16 -19 -12 -158 hhcurveto
          -72 -7 6 54 hvcurveto
          240 673 rmoveto
          hintmask 10110101
          -85 callsubr
        </CharString>
        <CharString name="Eng">
          285 -133 -21 154 -2 callsubr
          143 637 rmoveto
          -21 -60 5 0 hvcurveto
          -8 -37 3 -5 rlineto
          70 -10 17 -13 -39 vvcurveto
          -12 -414 -3 -64 -14 -18 -46 -4 rlinecurve
          -5 -46 rlineto
          0 47 8 40 47 65 -4 0 vhcurveto
          22 callgsubr
          -40 -2 -10 -23 -8 10 30 vhcurveto
          5 427 rlineto
          5 hlineto
          0 158 -222 183 -281 vhcurveto
          -14 -55 -33 -37 -65 -29 -3 -8 rcurveline
          17 -33 113 42 46 69 4 129 rlinecurve
          9 450 1 39 19 18 48 6 rlinecurve
          hintmask 11010000
          5 46 rlineto
          hintmask 11100000
          0 -57 -8 -42 -33 -62 4 0 vhcurveto
          -9 -45 -57 callsubr
          0 20 1 18 22 11 -14 -29 vhcurveto
          -405 -5 vlineto
          0 -195 274 -141 222 vhcurveto
          0 -58 -4 -14 vhcurveto
          endchar
        </CharString>
        <CharString name="Eogonek">
          157 -241 59 182 45 258 50 234 50 -43 -20 75 -20 hstemhm
          142 75 hintmask 11110010
          515 -31 callsubr
          39 21 31 49 53 vhcurveto
          30 -1 20 -1 0 vvcurveto
          5 6 rlineto
          9 85 18 83 -15 callsubr
          5 -44 -5 rlineto
          -110 -16 -19 -12 -158 hhcurveto
          -72 -7 6 54 33 1 50 3 108 hvcurveto
          3 17 30 4 30 hhcurveto
          54 86 -3 0 hvcurveto
          14 59 -4 -18 callgsubr
          -86 -11 -36 vhcurveto
          -30 -51 1 -22 hhcurveto
          8 194 rlineto
          37 1 4 2 65 hhcurveto
          141 12 -6 -65 -14 -2 -29 0 hvcurveto
          48 4 rlineto
          6 92 17 74 0 vvcurveto
          hintmask 11101110
          -3 6 rlineto
          hintmask 11110010
          -9 -66 -75 -3 -159 hhcurveto
          -60 -79 3 0 -27 callgsubr
          hintmask 11101110
          -82 callsubr
          -57 -18 -19 -60 -8 vhcurveto
          -6 -46 rlineto
          0 63 10 76 53 89 -2 -2 68 vhcurveto
          -51 -52 -39 -46 -45 24 callsubr
        </CharString>
        <CharString name="Eth">
          -77 callgsubr
        </CharString>
        <CharString name="Euro">
          154 -9 50 129 153 -38 222 -55 55 hstemhm
          hintmask 10100000
          370 210 rmoveto
          -183 -4 rlineto
          -4 hlineto
          -3 16 -1 18 19 vvcurveto
          9 0 9 1 8 vhcurveto
          193 1 3 30 -6 9 -183 -4 rlineto
          -2 hlineto
          hintmask 11010000
          83 19 58 48 85 hhcurveto
          75 37 -23 -47 -19 -2 -20 0 hvcurveto
          50 3 rlineto
          5 76 16 60 0 vvcurveto
          -4 -38 callsubr
          -78 19 -68 -136 -103 -74 -112 -35 vhcurveto
          -87 hlineto
          -5 -29 rlineto
          hintmask 10100000
          5 -7 rlineto
          78 hlineto
          -3 -17 -1 -17 -18 vvcurveto
          -9 0 -9 1 -9 vhcurveto
          -75 hlineto
          -5 -29 rlineto
          hintmask 11010000
          5 -7 rlineto
          80 hlineto
          -112 24 87 -67 128 hhcurveto
          99 72 31 0 hvcurveto
          6 8 rlineto
          5 59 16 74 0 vvcurveto
          -50 -4 rlineto
          -82 -19 -41 -36 -70 hhcurveto
          -81 -58 48 81 -24 hvcurveto
          182 1 3 30 rlineto
          endchar
        </CharString>
        <CharString name="F">
          78 -35 callgsubr
          297 51 251 50 -43 -20 75 -20 hstemhm
          142 81 hintmask 10110010
          213 112 rmoveto
          4 166 rlineto
          3 17 30 4 30 hhcurveto
          47 76 -3 0 hvcurveto
          14 60 -4 -18 callgsubr
          -74 -11 -31 vhcurveto
          -103 1 8 211 rlineto
          37 1 4 2 65 hhcurveto
          122 12 -6 -65 -14 -2 -32 0 hvcurveto
          48 4 rlineto
          6 92 17 77 0 vvcurveto
          hintmask 10101110
          -3 6 rlineto
          hintmask 10110010
          -9 -63 -81 -3 -137 hhcurveto
          -60 -79 3 0 -27 callgsubr
          hintmask 01101110
          -82 callsubr
          -56 -16 -18 -62 -12 vhcurveto
          -6 -46 rlineto
          hintmask 10110010
          0 64 12 50 54 95 -4 0 vhcurveto
          9 47 -2 4 rlineto
          0 -51 -3 -20 -35 -9 14 54 vhcurveto
          endchar
        </CharString>
        <CharString name="G">
          -9 callsubr
          -96 callgsubr
          endchar
        </CharString>
        <CharString name="Gbreve">
          -9 callsubr
          61 58 50 -20 -96 callgsubr
          -227 483 -52 callsubr
        </CharString>
        <CharString name="Gcircumflex">
          -9 callsubr
          228 -20 -96 callgsubr
          -375 417 rmoveto
          -106 callgsubr
          endchar
        </CharString>
        <CharString name="Gcommaaccent">
          233 -16 callsubr
          55 0 50 0 214 0 50 288 59 hstemhm
          40 87 hintmask 11001110
          588 307 rmoveto
          0 -43 -5 -43 -59 -68 4 0 vhcurveto
          -9 -50 -57 callsubr
          69 hlineto
          45 10 -9 -45 hvcurveto
          -122 vlineto
          hintmask 10101110
          0 -57 -38 -80 -138 -90 115 176 166 89 95 152 106 45 -26 -62 -27 -3 -27 0 vhcurveto
          47 4 rlineto
          6 92 20 75 0 vvcurveto
          -4 -38 callsubr
          -111 24 -83 -209 -142 -143 -209 -189 114 -120 178 127 103 46 0 vhcurveto
          6 9 rlineto
          -4 17 -3 36 35 vvcurveto
          99 7 35 24 20 vhcurveto
          -306 -392 rmoveto
          22 -13 18 -22 -27 vvcurveto
          -34 -32 -40 -40 -25 vhcurveto
          -10 vlineto
          18 -15 rlineto
          55 29 73 54 72 vvcurveto
          hintmask 11010110
          -32 callgsubr
        </CharString>
        <CharString name="Gdotaccent">
          -9 callsubr
          70 110 -96 callgsubr
          -231 434 -83 callsubr
        </CharString>
        <CharString name="H">
          320 -35 callgsubr
          314 46 246 31 callsubr
          80 313 71 -71 85 hintmask 10101101
          620 3 callgsubr
          hintmask 10110110
          0 -72 -9 -48 -32 -66 2 1 vhcurveto
          -7 -44 -57 callsubr
          -81 callsubr
          -1 -182 rlineto
          -7 -59 -39 -3 -50 hhcurveto
          -168 1 6 162 3 70 5 11 58 9 rlinecurve
          hintmask 10101110
          -14 callgsubr
          hintmask 01110110
          0 -64 -15 callgsubr
          -73 -90 callsubr
          -1 -420 42 callsubr
          hintmask 10110110
          -75 callgsubr
          hintmask 10110101
          83 7 203 7 146 vhcurveto
          endchar
        </CharString>
        <CharString name="Hbar">
          316 -35 callgsubr
          314 46 100 47 99 43 9 -20 hstemhm
          140 73 320 71 -71 81 hintmask 1011011100000000
          618 3 callgsubr
          hintmask 1011101100000000
          0 -72 -9 -48 -32 -66 2 1 vhcurveto
          -7 -44 -57 callsubr
          -81 callsubr
          -44 vlineto
          -1 -47 -49 0 -42 hhcurveto
          -174 hlineto
          1 16 3 70 5 11 58 9 rlinecurve
          hintmask 1011011100000000
          -14 callgsubr
          hintmask 0111101100000000
          0 -64 -15 callgsubr
          -73 -90 callsubr
          -45 vlineto
          -52 -40 10 callgsubr
          90 hlineto
          -1 -328 42 callsubr
          hintmask 1011101100000000
          -75 callgsubr
          hintmask 1011101010000000
          66 4 142 6 129 vhcurveto
          89 1 32 callsubr
          -32 -1 -46 -1 vhcurveto
          16 1 15 1 15 vhcurveto
          -244 -95 rmoveto
          159 -91 hlineto
          -7 -59 -39 -3 -50 hhcurveto
          -168 1 3 100 rlineto
          endchar
        </CharString>
        <CharString name="Hcircumflex">
          320 -35 callgsubr
          314 46 246 43 266 -20 hstemhm
          142 80 313 71 -71 85 hintmask 01111101
          620 3 callgsubr
          0 -72 -9 -48 -32 -66 2 1 vhcurveto
          -7 -44 -57 callsubr
          -81 callsubr
          -1 -182 rlineto
          -7 -59 -39 -3 -50 hhcurveto
          -168 1 6 162 3 70 5 11 58 9 rlinecurve
          -14 callgsubr
          0 -64 -15 callgsubr
          -73 -90 callsubr
          -1 -420 42 callsubr
          hintmask 10111110
          -75 callgsubr
          hintmask 10111101
          83 7 203 7 146 vhcurveto
          -374 184 rmoveto
          -106 callgsubr
          endchar
        </CharString>
        <CharString name="I">
          -42 callsubr
          9 3 callsubr
          hintmask 10010100
          227 544 rmoveto
          2 38 14 12 56 7 4 45 rcurveline
          hintmask 01101000
          0 -69 -9 -46 -41 -78 -76 callsubr
          27 2 15 30 7 -12 -42 -58 callgsubr
          -56 -17 -18 -63 -12 vhcurveto
          -6 -46 rlineto
          hintmask 10101000
          -86 callgsubr
          hintmask 10100100
          -50 callsubr
          endchar
        </CharString>
        <CharString name="IJ">
          254 -123 -21 144 44 549 -20 21 43 9 3 callsubr
          265 72 hintmask 11101011
          227 544 rmoveto
          2 38 14 12 56 7 4 45 rcurveline
          hintmask 11110101
          0 -69 -9 -46 -41 -78 -76 callsubr
          27 2 15 30 7 -12 -42 -58 callgsubr
          -56 -17 -18 -63 -12 vhcurveto
          -6 -46 rlineto
          -86 callgsubr
          hintmask 11101011
          -50 callsubr
          265 -429 -52 callgsubr
          hintmask 11110101
          0 -73 -9 -43 vhcurveto
          -108 hlineto
          -7 -44 -57 callsubr
          0 35 4 12 30 7 -10 -43 vhcurveto
          endchar
        </CharString>
        <CharString name="Iacute">
          -42 callsubr
          204 -20 -99 callgsubr
          117 243 -95 callgsubr
        </CharString>
        <CharString name="Ibreve">
          -42 callsubr
          96 58 66 3 callsubr
          hintmask 01111100
          -97 callsubr
          hintmask 10111100
          -86 callgsubr
          hintmask 10111010
          -50 callsubr
          -39 247 -93 callsubr
        </CharString>
        <CharString name="Icircumflex">
          -42 callsubr
          209 -20 -99 callgsubr
          -174 169 -91 callsubr
        </CharString>
        <CharString name="Idieresis">
          -42 callsubr
          88 93 -99 callgsubr
          35 181 -106 callsubr
        </CharString>
        <CharString name="Idotaccent">
          -42 callsubr
          82 110 -99 callgsubr
          -48 175 -83 callsubr
        </CharString>
        <CharString name="Igrave">
          -42 callsubr
          204 -20 -99 callgsubr
          -192 233 -79 callgsubr
        </CharString>
        <CharString name="Imacron">
          -42 callsubr
          83 52 6 3 callsubr
          hintmask 01110100
          -97 callsubr
          hintmask 10110100
          -86 callgsubr
          hintmask 10101010
          -50 callsubr
          100 234 rmoveto
          hintmask 10110100
          -85 callsubr
        </CharString>
        <CharString name="Iogonek">
          -73 -241 59 182 44 550 43 9 3 callsubr
          hintmask 11101000
          316 -31 callsubr
          40 22 32 52 55 vhcurveto
          26 -1 22 -1 0 vvcurveto
          9 46 -2 4 rlineto
          0 -29 -3 -24 -35 -9 14 54 vhcurveto
          hintmask 11010100
          -50 callsubr
          2 38 14 12 56 7 4 45 rcurveline
          hintmask 11100100
          0 -69 -9 -46 -41 -78 -76 callsubr
          27 2 15 30 7 -12 -42 -58 callgsubr
          -56 -17 -18 -63 -12 vhcurveto
          -6 -46 rlineto
          0 65 12 51 vhcurveto
          40 hlineto
          -53 -53 -41 -47 -47 24 callsubr
        </CharString>
        <CharString name="Itilde">
          -42 callsubr
          111 64 -31 64 22 3 callsubr
          hintmask 01110110
          -97 callsubr
          hintmask 10110110
          -86 callgsubr
          hintmask 10101101
          -50 callsubr
          -177 182 -22 callgsubr
          hintmask 10110110
          28 85 -33 33 -74 callgsubr
          hintmask 10101110
          -63 callsubr
        </CharString>
        <CharString name="J">
          -107 -123 -21 737 44 9 -20 hstemhm
          131 72 hintmask 10110000
          131 115 -52 callgsubr
          hintmask 11010000
          0 -73 -9 -43 vhcurveto
          -108 hlineto
          -7 -44 -57 callsubr
          0 35 4 12 30 7 -10 -43 vhcurveto
          endchar
        </CharString>
        <CharString name="Jcircumflex">
          -107 -123 -21 737 44 240 -20 hstem
          131 72 vstem
          131 115 -52 callgsubr
          0 -73 -9 -43 vhcurveto
          -108 hlineto
          -7 -44 -57 callsubr
          0 35 4 12 30 7 -10 -43 vhcurveto
          -89 162 rmoveto
          -106 callgsubr
          endchar
        </CharString>
        <CharString name="K">
          194 0 44 -37 -21 608 31 callsubr
          77 hintmask 10011000
          -43 callsubr
          hintmask 01101000
          0 -64 -15 callgsubr
          -73 -90 callsubr
          99 -225 rmoveto
          175 -243 rlineto
          -54 39 40 -32 33 hhcurveto
          11 72 12 0 hvcurveto
          6 34 -4 4 rlineto
          -47 -33 23 62 -48 hvcurveto
          -168 219 161 169 60 62 20 15 35 7 rlinecurve
          7 41 -4 -12 callgsubr
          -53 -4 -39 -37 -73 7 0 vhcurveto
          -7 -43 -57 callsubr
          43 -3 20 -10 -17 vvcurveto
          -14 -10 -17 -21 -21 vhcurveto
          -179 -186 rlineto
          endchar
        </CharString>
        <CharString name="Kcommaaccent">
          194 -272 -21 293 44 550 31 callsubr
          77 hintmask 11011000
          -43 callsubr
          hintmask 11101000
          0 -64 -15 callgsubr
          -73 -90 callsubr
          99 -225 rmoveto
          175 -243 rlineto
          -54 39 40 -32 33 hhcurveto
          11 72 12 0 hvcurveto
          6 34 -4 4 rlineto
          -47 -33 23 62 -48 hvcurveto
          -168 219 161 169 60 62 20 15 35 7 rlinecurve
          7 41 -4 -12 callgsubr
          -53 -4 -39 -37 -73 7 0 vhcurveto
          -7 -43 -57 callsubr
          43 -3 20 -10 -17 vvcurveto
          -14 -10 -17 -21 -21 vhcurveto
          -179 -186 rlineto
          32 -436 -102 callgsubr
          endchar
        </CharString>
        <CharString name="L">
          73 -4 callgsubr
          -72 84 hintmask 10101000
          -26 callgsubr
          hintmask 10010100
          13 callsubr
          hintmask 01101000
          0 -64 -15 callgsubr
          -74 -90 callsubr
          -1 -420 rlineto
          -57 -16 -19 -52 -8 vhcurveto
          -6 -46 rlineto
          hintmask 10101000
          28 callsubr
          endchar
        </CharString>
        <CharString name="Lacute">
          73 0 45 -34 -21 604 43 204 -6 callgsubr
          -72 84 hintmask 10111000
          -26 callgsubr
          hintmask 01110100
          13 callsubr
          0 -64 -15 callgsubr
          -74 -90 callsubr
          -1 -420 rlineto
          -57 -16 -19 -52 -8 vhcurveto
          -6 -46 rlineto
          hintmask 10111000
          28 callsubr
          148 787 -95 callgsubr
        </CharString>
        <CharString name="Lcaron">
          73 -4 callgsubr
          -72 84 hintmask 10101000
          480 633 -78 callgsubr
          -285 -625 rmoveto
          -77 callsubr
          hvcurveto
          hintmask 10010100
          13 callsubr
          hintmask 01101000
          0 -64 -15 callgsubr
          -74 -90 callsubr
          -1 -420 rlineto
          -57 -16 -19 -52 -8 vhcurveto
          -6 -46 rlineto
          hintmask 10101000
          28 callsubr
          endchar
        </CharString>
        <CharString name="Lcommaaccent">
          73 -16 callsubr
          67 0 45 549 31 callsubr
          72 hintmask 10101100
          -63 callgsubr
          4 callsubr
          hvcurveto
          -29 callsubr
          hintmask 10110100
          0 -64 -15 callgsubr
          -74 -90 callsubr
          -1 -420 rlineto
          -57 -16 -19 -52 -8 vhcurveto
          -6 -46 rlineto
          28 callsubr
          43 -107 rmoveto
          22 -13 18 -22 -27 vvcurveto
          -34 -32 -40 -40 -25 vhcurveto
          -10 vlineto
          18 -15 rlineto
          55 29 73 54 72 vvcurveto
          hintmask 11010100
          -32 callgsubr
        </CharString>
        <CharString name="Ldot">
          99 0 45 -34 -21 393 119 92 31 callsubr
          72 -72 84 hintmask 10110100
          -26 callgsubr
          hintmask 10101010
          13 callsubr
          hintmask 01110100
          0 -64 -15 callgsubr
          -74 -90 callsubr
          -1 -420 rlineto
          -57 -16 -19 -52 -8 vhcurveto
          -6 -46 rlineto
          hintmask 10110100
          28 callsubr
          234 383 rmoveto
          -25 callsubr
        </CharString>
        <CharString name="Lslash">
          117 -4 callgsubr
          hintmask 10011000
          -63 callgsubr
          50 0 73 3 77 hvcurveto
          194 96 -5 31 -8 5 -180 -89 2 49 3 50 3 44 rlinecurve
          -29 callsubr
          hintmask 01101000
          0 -64 -15 callgsubr
          -74 -90 callsubr
          -1 -207 -81 -40 5 -32 9 -3 67 33 rlineto
          -171 vlineto
          -57 -16 -19 -52 -8 vhcurveto
          -6 -46 rlineto
          hintmask 10101000
          28 callsubr
          endchar
        </CharString>
        <CharString name="M">
          413 0 44 -42 -21 656 -20 26 -20 hstemhm
          hintmask 10010000
          421 -12 rmoveto
          193 532 rlineto
          5 hlineto
          0 34 -398 -34 vvcurveto
          -30 -18 -15 -41 -5 vhcurveto
          -4 -46 rlineto
          0 61 8 43 36 59 -56 callgsubr
          9 45 -2 4 rlineto
          0 -16 -2 -12 -32 -8 17 78 -9 vhcurveto
          -11 140 -15 239 29 vvcurveto
          33 21 15 58 7 vhcurveto
          5 37 -2 4 rlineto
          hintmask 10100000
          0 -78 -6 -30 -20 -46 3 -1 vhcurveto
          -95 -287 -78 -207 0 vvcurveto
          -5 hlineto
          0 -79 205 -90 291 vhcurveto
          0 -39 -4 -29 -32 -77 5 0 vhcurveto
          -8 -35 3 -5 rlineto
          61 -4 26 -16 -35 vvcurveto
          -30 -36 -329 -8 -73 vhcurveto
          -6 -54 -16 -18 -42 -5 -5 -46 rcurveline
          0 46 8 40 33 64 -4 0 vhcurveto
          9 45 -2 4 rlineto
          0 -31 -1 -10 -21 -10 10 21 26 34 419 0 vhcurveto
          5 hlineto
          hintmask 01010000
          194 -539 rlineto
          endchar
        </CharString>
        <CharString name="N">
          285 -19 -21 40 -2 callsubr
          -103 callsubr
          hintmask 11010000
          5 46 rlineto
          hintmask 11100000
          -69 callgsubr
          endchar
        </CharString>
        <CharString name="N.sc">
          285 -19 -21 40 -2 callsubr
          -103 callsubr
          hintmask 11010000
          5 46 rlineto
          hintmask 11100000
          -69 callgsubr
          endchar
        </CharString>
        <CharString name="Nacute">
          17 callsubr
          204 -20 hstem
          -103 callsubr
          5 46 rlineto
          -69 callgsubr
          -25 642 -95 callgsubr
        </CharString>
        <CharString name="Ncaron">
          17 callsubr
          201 -20 hstem
          -103 callsubr
          5 46 rlineto
          -69 callgsubr
          -54 692 -93 callgsubr
        </CharString>
        <CharString name="Ncommaaccent">
          285 -272 -21 293 -2 callsubr
          -103 callsubr
          hintmask 11010000
          5 46 rlineto
          hintmask 11100000
          -69 callgsubr
          -245 -252 -102 callgsubr
          endchar
        </CharString>
        <CharString name="Ntilde">
          17 callsubr
          74 64 -31 64 12 -20 hstemhm
          hintmask 11101000
          -103 callsubr
          5 46 rlineto
          -69 callgsubr
          -320 554 35 callgsubr
          hintmask 11110100
          -50 callgsubr
          hintmask 11101000
          -39 callgsubr
        </CharString>
        <CharString name="O">
          -36 callsubr
          -20 callsubr
          -103 callgsubr
          endchar
        </CharString>
        <CharString name="OE">
          529 -12 57 -44 44 258 50 234 48 -48 62 -58 -20 hstemhm
          41 86 393 72 hintmask 10101011
          583 105 rmoveto
          3 191 78 7 rlineto
          54 86 -3 0 hvcurveto
          14 59 -4 -18 callgsubr
          -86 -11 -36 vhcurveto
          -104 1 8 194 rlineto
          37 2 3 2 65 hhcurveto
          141 13 -6 -65 -14 -2 -29 0 hvcurveto
          48 4 rlineto
          6 92 17 74 -15 callsubr
          6 rlineto
          hintmask 10110011
          -10 -72 -90 -4 -142 hhcurveto
          hintmask 10101011
          -82 -69 14 -68 hhcurveto
          -181 -141 -154 -198 -182 111 -127 159 hvcurveto
          hintmask 01100111
          71 80 13 103 hhcurveto
          95 210 -8 27 callsubr
          9 85 18 83 -15 callsubr
          5 -44 -5 rlineto
          -110 -16 -19 -12 -158 hhcurveto
          -72 -7 6 54 hvcurveto
          -241 -65 rmoveto
          -128 -87 118 172 154 87 107 125 144 38 -25 -99 hvcurveto
          -1 -259 rlineto
          -123 -2 -47 -45 -129 hhcurveto
          endchar
        </CharString>
        <CharString name="Oacute">
          -36 callsubr
          192 -20 -20 callsubr
          -103 callgsubr
          185 799 -95 callgsubr
        </CharString>
        <CharString name="Obreve">
          -36 callsubr
          84 58 66 -20 -20 callsubr
          -103 callgsubr
          8 803 -93 callsubr
        </CharString>
        <CharString name="Ocircumflex">
          -36 callsubr
          197 -20 -20 callsubr
          -103 callgsubr
          -106 725 -91 callsubr
        </CharString>
        <CharString name="Odieresis">
          -36 callsubr
          76 93 -20 callsubr
          -103 callgsubr
          103 737 -106 callsubr
        </CharString>
        <CharString name="Ograve">
          -36 callsubr
          192 -20 -20 callsubr
          -103 callgsubr
          -124 789 -79 callgsubr
        </CharString>
        <CharString name="Ohungarumlaut">
          -36 callsubr
          188 -20 -20 callsubr
          -103 callgsubr
          113 802 rmoveto
          -22 43 -9 4 rlineto
          0 -81 -64 -72 -53 vhcurveto
          9 -21 8 -5 38 callgsubr
          143 hmoveto
          -22 42 -9 -18 callgsubr
          -81 -64 -72 -54 vhcurveto
          10 -21 7 -4 38 callgsubr
          endchar
        </CharString>
        <CharString name="Omacron">
          -36 callsubr
          71 52 6 -20 hstemhm
          -7 callsubr
          hintmask 11011100
          -103 callgsubr
          168 790 rmoveto
          hintmask 11101100
          -85 callsubr
        </CharString>
        <CharString name="Omega">
          415 1 55 -41 -21 595 60 hstemhm
          114 -6 callsubr
          hintmask 10111000
          783 10 rmoveto
          1 72 20 92 0 vvcurveto
          -40 -5 rlineto
          -88 -15 -23 -25 -64 hhcurveto
          -107 hlineto
          105 72 66 119 122 vvcurveto
          165 -120 115 -172 -178 -142 -131 -165 -109 61 -110 99 -78 vhcurveto
          -92 hlineto
          -65 -23 27 91 -14 hvcurveto
          -38 -5 rlineto
          0 17 -87 2 -72 vhcurveto
          hintmask 01111000
          16 -16 244 14 rlineto
          hintmask 10111000
          41 -7 7 23 rlineto
          -105 81 -64 128 127 vvcurveto
          137 90 92 132 128 87 -101 -147 -121 -49 -91 -123 -106 vhcurveto
          7 -21 41 6 rlineto
          hintmask 01111000
          254 -14 rlineto
          endchar
        </CharString>
        <CharString name="Oslash">
          258 -77 -21 86 51 550 60 59 -71 callsubr
          endchar
        </CharString>
        <CharString name="Oslashacute">
          258 -77 -21 86 51 550 60 192 -71 callsubr
          353 458 -95 callgsubr
        </CharString>
        <CharString name="Otilde">
          -36 callsubr
          62 64 -31 64 12 -20 hstemhm
          -7 callsubr
          hintmask 11010110
          -103 callgsubr
          -110 711 35 callgsubr
          hintmask 11101110
          -50 callgsubr
          hintmask 11010110
          -39 callgsubr
        </CharString>
        <CharString name="P">
          117 0 44 -31 -21 600 49 -47 -20 63 -20 hstemhm
          142 71 231 84 hintmask 10100110
          70 596 rmoveto
          -57 callsubr
          hintmask 01011110
          0 22 2 12 29 8 -64 callsubr
          -57 -14 -15 -58 -10 vhcurveto
          -7 -46 rlineto
          hintmask 10100110
          3 2 93 5 54 hhcurveto
          34 58 -2 -1 hvcurveto
          9 46 -2 4 rlineto
          0 -34 -3 -20 -39 -5 11 91 vhcurveto
          2 98 rlineto
          84 hlineto
          119 110 105 114 115 -76 63 -138 hvcurveto
          hintmask 10011110
          0 -99 -4 -27 -38 -73 -45 callgsubr
          140 -337 rmoveto
          2 86 4 100 6 89 rrcurveto
          hintmask 10100110
          14 1 2 0 24 hhcurveto
          130 58 -46 -102 -90 -41 -53 -80 -13 hvcurveto
          endchar
        </CharString>
        <CharString name="Q">
          263 -216 79 125 51 550 60 -20 callsubr
          317 -12 rmoveto
          -173 237 60 -31 95 hhcurveto
          20 75 68 0 hvcurveto
          -6 18 -4 -27 callsubr
          -33 -10 -47 -80 -85 36 96 -142 vhcurveto
          5 vlineto
          143 40 102 135 166 vvcurveto
          182 -116 126 -167 -185 -144 -154 -198 -183 113 -126 164 vhcurveto
          31 51 rmoveto
          -131 -91 119 171 154 85 106 124 135 93 -119 -171 -154 -88 -106 -127 hvcurveto
          endchar
        </CharString>
        <CharString name="R">
          -4 callsubr
          hstemhm
          142 72 215 83 hintmask 01110110
          -71 callgsubr
          hintmask 10101110
          -82 callgsubr
          3 149 rlineto
          2 56 rmoveto
          1 70 3 70 6 106 rrcurveto
          hintmask 10110110
          -42 callgsubr
          endchar
        </CharString>
        <CharString name="Racute">
          -4 callsubr
          224 -76 callgsubr
          144 468 -95 callgsubr
        </CharString>
        <CharString name="Rcaron">
          -4 callsubr
          221 -76 callgsubr
          115 518 -93 callgsubr
        </CharString>
        <CharString name="Rcommaaccent">
          177 -272 -21 292 43 0 231 321 -20 24 43 -4 -6 callgsubr
          215 83 hintmask 10111011
          -71 callgsubr
          hintmask 11010111
          -82 callgsubr
          hintmask 10111011
          3 149 rlineto
          2 56 rmoveto
          1 70 3 70 6 106 rrcurveto
          -42 callgsubr
          -56 -426 -102 callgsubr
          endchar
        </CharString>
        <CharString name="S">
          36 callsubr
          hstem
          68 77 245 76 vstem
          219 -12 rmoveto
          145 102 81 114 91 -98 46 -87 45 hvcurveto
          -101 callsubr
          endchar
        </CharString>
        <CharString name="Sacute">
          36 callsubr
          192 -20 hstem
          68 77 245 76 vstem
          219 -12 rmoveto
          145 102 81 114 91 -98 46 -87 45 hvcurveto
          -101 callsubr
          203 799 -95 callgsubr
        </CharString>
        <CharString name="Scaron">
          36 callsubr
          189 -20 hstem
          68 77 245 76 vstem
          219 -12 rmoveto
          145 102 81 114 91 -98 46 -87 45 hvcurveto
          -101 callsubr
          174 849 -93 callgsubr
        </CharString>
        <CharString name="Scedilla">
          96 -20 callgsubr
          149 49 558 54 hstemhm
          68 77 245 76 hintmask 01111110
          219 -12 rmoveto
          8 hlineto
          -22 -73 rlineto
          -72 callsubr
          hintmask 10111110
          -54 callsubr
          14 42 rlineto
          117 16 79 75 100 vvcurveto
          91 -98 46 -87 45 vhcurveto
          -101 callsubr
          endchar
        </CharString>
        <CharString name="Scircumflex">
          36 callsubr
          228 -20 hstem
          68 77 245 76 vstem
          162 702 rmoveto
          -106 callgsubr
          71 -736 rmoveto
          145 102 81 114 91 -98 46 -87 45 hvcurveto
          -101 callsubr
          endchar
        </CharString>
        <CharString name="Scommaaccent">
          96 -16 callsubr
          55 0 49 558 54 hstemhm
          68 77 245 76 hintmask 10111100
          219 -12 rmoveto
          145 102 81 114 91 -98 46 -87 45 hvcurveto
          -101 callsubr
          -21 -95 rmoveto
          22 -13 18 -22 -27 vvcurveto
          -34 -32 -40 -40 -25 vhcurveto
          -10 vlineto
          18 -15 rlineto
          55 29 73 54 72 vvcurveto
          hintmask 11011100
          -32 callgsubr
        </CharString>
        <CharString name="T">
          112 0 44 -27 -21 602 18 callsubr
          hintmask 01101000
          -31 callgsubr
          hintmask 10101000
          0 88 4 49 47 100 -56 callgsubr
          -66 callgsubr
          hintmask 10011000
          -9 8 rlineto
          hintmask 10101000
          22 callsubr
          hintmask 10011000
          -40 callsubr
          rlineto
          hintmask 10101000
          -8 callsubr
          rrcurveto
          endchar
        </CharString>
        <CharString name="Tbar">
          112 0 44 -27 -21 303 46 253 18 callsubr
          hintmask 01110100
          -31 callgsubr
          hintmask 10110100
          0 88 4 49 47 100 -56 callgsubr
          22 callgsubr
          -20 -3 -35 -41 -16 19 49 56 1 66 1 65 vhcurveto
          87 1 32 callsubr
          -39 -3 -38 -2 vhcurveto
          3 107 5 100 5 46 145 -7 4 -3 20 -120 47 4 rcurveline
          0 -12 84 -3 85 vhcurveto
          hintmask 10101100
          -9 8 rlineto
          hintmask 10110100
          22 callsubr
          hintmask 10101100
          -40 callsubr
          rlineto
          hintmask 10110100
          -8 callsubr
          rrcurveto
          -253 vlineto
          -47 -48 10 callgsubr
          0 47 1 46 vhcurveto
          endchar
        </CharString>
        <CharString name="Tcaron">
          112 0 44 -27 -21 602 40 200 -20 hstemhm
          233 70 hintmask 01111000
          -31 callgsubr
          hintmask 10111000
          0 88 4 49 47 100 -56 callgsubr
          -66 callgsubr
          -9 8 22 callsubr
          -40 callsubr
          -8 callsubr
          rlinecurve
          174 239 -93 callgsubr
        </CharString>
        <CharString name="Tcedilla">
          112 -20 callgsubr
          161 44 554 18 callsubr
          hintmask 01111010
          227 -85 rmoveto
          -72 callsubr
          hintmask 10111010
          -54 callsubr
          17 50 rlineto
          49 -1 65 -2 0 vvcurveto
          -66 callgsubr
          hintmask 01110110
          -9 8 rlineto
          hintmask 01111010
          22 callsubr
          hintmask 01110110
          -40 callsubr
          rlineto
          hintmask 01111010
          -8 callsubr
          rrcurveto
          -436 vlineto
          -106 -7 -9 -93 -8 vhcurveto
          -8 -43 rlineto
          0 78 4 50 vhcurveto
          endchar
        </CharString>
        <CharString name="Thorn">
          109 -35 callgsubr
          466 49 91 31 callsubr
          71 -71 80 215 84 hintmask 10101101
          227 544 rmoveto
          2 38 14 12 56 7 4 45 rcurveline
          hintmask 01110101
          0 -69 -9 -46 -41 -78 -76 callsubr
          27 2 15 30 7 -12 -42 -58 callgsubr
          -56 -17 -18 -63 -12 vhcurveto
          -6 -46 rlineto
          hintmask 10110101
          -86 callgsubr
          36 71 vlineto
          126 111 89 103 105 -76 58 -138 hvcurveto
          -82 hlineto
          -1 10 2 10 1 21 rrcurveto
          hintmask 10110011
          -5 -98 rmoveto
          7 2 2 1 23 hhcurveto
          130 58 -41 -92 -75 -41 -44 -80 -10 hvcurveto
          -29 1 -49 8 -24 8 1 51 2 71 5 115 rrcurveto
          endchar
        </CharString>
        <CharString name="U">
          -40 callgsubr
          9 -20 hstemhm
          108 80 hintmask 10110000
          184 250 rmoveto
          8 294 2 38 12 12 50 7 rlinecurve
          -14 callgsubr
          hintmask 11010000
          0 -62 -15 callgsubr
          -75 -90 callsubr
          -331 vlineto
          -141 79 -80 140 157 91 80 140 vhcurveto
          336 vlineto
          41 11 8 58 8 vhcurveto
          hintmask 10110000
          -14 callgsubr
          hintmask 11010000
          0 -54 -15 callgsubr
          -75 -76 callsubr
          31 2 12 29 5 -8 -46 3 vhcurveto
          0 6 -256 -70 vvcurveto
          -110 -59 -59 -109 -108 -59 73 132 vhcurveto
          endchar
        </CharString>
        <CharString name="Uacute">
          -40 callgsubr
          204 -20 hstem
          108 80 vstem
          -107 callgsubr
          323 537 -95 callgsubr
        </CharString>
        <CharString name="Ubreve">
          -40 callgsubr
          96 58 66 -20 hstem
          108 80 vstem
          -107 callgsubr
          149 541 -93 callsubr
        </CharString>
        <CharString name="Ucircumflex">
          -40 callgsubr
          209 -20 hstem
          108 80 vstem
          -107 callgsubr
          32 463 -91 callsubr
        </CharString>
        <CharString name="Udieresis">
          -40 callgsubr
          88 93 hstem
          108 80 vstem
          -107 callgsubr
          241 475 -106 callsubr
        </CharString>
        <CharString name="Ugrave">
          -40 callgsubr
          204 -20 hstem
          108 80 vstem
          -107 callgsubr
          14 527 -79 callgsubr
        </CharString>
        <CharString name="Uhungarumlaut">
          -40 callgsubr
          200 -20 hstem
          108 80 vstem
          -107 callgsubr
          251 540 rmoveto
          -22 43 -9 4 rlineto
          0 -81 -64 -72 -53 vhcurveto
          9 -21 8 -5 38 callgsubr
          143 hmoveto
          -22 42 -9 -18 callgsubr
          -81 -64 -72 -54 vhcurveto
          10 -21 7 -4 38 callgsubr
          endchar
        </CharString>
        <CharString name="Umacron">
          -40 callgsubr
          83 52 6 -20 hstemhm
          108 80 hintmask 11011000
          -107 callgsubr
          306 528 rmoveto
          hintmask 11101000
          -85 callsubr
        </CharString>
        <CharString name="Uogonek">
          247 -241 59 170 57 549 43 9 -20 hstemhm
          108 76 hintmask 11011000
          525 -159 rmoveto
          0 -38 -23 -39 -34 -24 22 32 43 22 32 97 95 vhcurveto
          44 44 22 55 67 vvcurveto
          336 vlineto
          40 10 8 59 9 vhcurveto
          -14 callgsubr
          hintmask 11101000
          0 -54 -15 callgsubr
          -75 -76 callsubr
          31 2 12 29 5 -7 -47 3 vhcurveto
          0 6 -256 -70 vvcurveto
          -110 -59 -59 -109 -108 -59 73 132 vhcurveto
          8 294 2 38 12 12 50 7 rlinecurve
          hintmask 11011000
          -14 callgsubr
          hintmask 11101000
          0 -62 -15 callgsubr
          -75 -90 callsubr
          -331 vlineto
          -141 79 -80 140 34 32 4 8 28 vhcurveto
          -69 -70 -25 -40 -37 vvcurveto
          -58 43 -36 68 -37 callsubr
          endchar
        </CharString>
        <CharString name="Uring">
          -40 callgsubr
          37 164 hstem
          108 80 vstem
          -107 callgsubr
          165 462 -67 callgsubr
        </CharString>
        <CharString name="Utilde">
          -40 callgsubr
          111 34 callsubr
          108 80 hintmask 11011100
          -107 callgsubr
          11 476 -22 callgsubr
          hintmask 11101100
          28 85 -33 33 -74 callgsubr
          hintmask 11011100
          -63 callsubr
        </CharString>
        <CharString name="V">
          176 4 -21 610 44 -40 -20 71 -19 callgsubr
          85 536 rmoveto
          84 -261 89 -292 0 vvcurveto
          64 22 215 540 14 38 11 8 41 2 rlinecurve
          8 47 rlineto
          0 -62 -3 -48 -66 -77 7 0 vhcurveto
          -6 -43 rlineto
          hintmask 10110000
          -57 callsubr
          52 hlineto
          49 20 -12 -28 -30 -114 -296 -52 -134 hvcurveto
          -9 hlineto
          0 -126 431 32 vvcurveto
          29 18 8 71 -13 callsubr
          hintmask 11000000
          0 -97 -11 -53 -34 -82 -45 callgsubr
          hintmask 10110000
          -7 -43 rlineto
          hintmask 11000000
          2 -4 52 -1 28 -18 12 -38 rlinecurve
          endchar
        </CharString>
        <CharString name="W">
          -18 callsubr
          71 -19 callgsubr
          650 5 rmoveto
          210 540 14 39 11 7 39 2 rlinecurve
          7 47 rlineto
          0 -60 -3 -46 -64 -75 7 0 vhcurveto
          -7 -43 rlineto
          hintmask 10110000
          -57 callsubr
          50 hlineto
          48 20 -10 -25 -30 -112 -300 -50 -135 hvcurveto
          -6 hlineto
          0 -124 430 33 vvcurveto
          29 18 8 69 -13 callsubr
          hintmask 11000000
          0 -85 -11 -60 -33 -80 -45 callgsubr
          hintmask 10110000
          -7 -43 rlineto
          hintmask 11000000
          2 -4 49 -2 28 -15 13 -40 rlinecurve
          18 -55 -141 -384 rlineto
          -6 hlineto
          0 -123 425 39 vvcurveto
          28 18 8 68 5 vhcurveto
          4 39 rlineto
          hintmask 10110000
          -3 7 rlineto
          hintmask 11000000
          0 -74 -11 -71 -33 -80 -45 callgsubr
          hintmask 10110000
          -6 -43 rlineto
          hintmask 11000000
          -1 1 -2 -1 vvcurveto
          50 -1 28 -18 12 -38 rrcurveto
          84 -260 83 -293 0 vvcurveto
          64 22 142 402 rlineto
          6 hlineto
          68 -219 57 -205 -35 callsubr
        </CharString>
        <CharString name="Wacute">
          -18 callsubr
          264 -20 -104 callsubr
          38 804 -95 callgsubr
        </CharString>
        <CharString name="Wcircumflex">
          -18 callsubr
          269 -20 -104 callsubr
          -253 730 -91 callsubr
        </CharString>
        <CharString name="Wdieresis">
          -18 callsubr
          148 93 -104 callsubr
          -44 742 -106 callsubr
        </CharString>
        <CharString name="Wgrave">
          -18 callsubr
          264 -20 -104 callsubr
          -271 794 -79 callgsubr
        </CharString>
        <CharString name="X">
          222 13 -21 29 -21 637 -20 28 -26 callsubr
          181 182 rmoveto
          -60 -74 -43 -47 -59 -17 -7 -41 rcurveline
          4 -7 rlineto
          0 60 4 39 37 73 -7 0 vhcurveto
          7 40 callgsubr
          -40 3 -18 9 18 vvcurveto
          19 12 18 39 52 vhcurveto
          92 122 109 -164 rlineto
          13 -19 7 -13 -12 vvcurveto
          -23 -25 -9 -53 -3 vhcurveto
          -4 -39 rlineto
          hintmask 10100000
          3 -7 rlineto
          hintmask 01100000
          0 99 8 56 46 78 -56 callgsubr
          7 43 -2 4 -63 6 -38 25 -36 52 rlinecurve
          -146 213 121 153 55 69 21 23 60 12 rlinecurve
          6 37 -4 -12 callgsubr
          -58 -4 -39 -37 -73 7 0 vhcurveto
          -6 -39 -57 callsubr
          41 -4 17 -8 -18 vvcurveto
          -28 -86 -104 -45 -62 vhcurveto
          -67 102 -46 72 16 vvcurveto
          22 23 10 55 4 vhcurveto
          3 35 rlineto
          hintmask 01010000
          -3 7 rlineto
          hintmask 01100000
          0 -56 -8 -79 -46 -98 -45 callgsubr
          -6 -39 2 -4 61 -8 43 -26 33 -49 rlinecurve
          131 -196 rlineto
          endchar
        </CharString>
        <CharString name="Y">
          -8 callgsubr
          28 -20 hstemhm
          hintmask 10010000
          163 567 rmoveto
          23 16 8 60 5 vhcurveto
          3 35 -3 7 rlineto
          hintmask 01100000
          0 -86 -8 -56 -46 -64 -45 callgsubr
          -6 -39 2 -4 78 -7 8 -26 40 -82 rlinecurve
          90 -183 rlineto
          24 -48 5 -26 -39 vvcurveto
          -44 vlineto
          -74 -6 -20 -72 -14 vhcurveto
          -6 -46 rlineto
          hintmask 10100000
          0 64 12 50 44 83 -78 callsubr
          -29 -3 -20 -35 -10 17 51 1 vhcurveto
          2 109 -1 34 21 36 100 176 rcurveline
          54 95 8 22 69 13 6 37 rcurveline
          -4 -12 callgsubr
          -53 -4 -39 -37 -74 7 0 vhcurveto
          -6 -39 -57 callsubr
          43 -3 20 -10 -17 vvcurveto
          -14 -6 -18 -10 -18 vhcurveto
          -114 -212 rlineto
          -5 hlineto
          -1 -111 229 29 hvcurveto
          endchar
        </CharString>
        <CharString name="Yacute">
          -8 callgsubr
          224 44 callgsubr
          163 567 rmoveto
          23 16 8 60 5 vhcurveto
          3 35 -3 -12 callgsubr
          -86 -8 -56 -46 -64 -45 callgsubr
          -6 -39 2 -4 78 -7 8 -26 40 -82 rlinecurve
          90 -183 rlineto
          24 -48 5 -26 -39 vvcurveto
          -44 vlineto
          -74 -6 -20 -72 -14 vhcurveto
          -6 -46 rlineto
          hintmask 10110000
          0 64 12 50 44 83 -78 callsubr
          -29 -3 -20 -35 -10 17 51 1 vhcurveto
          2 109 -1 34 21 36 100 176 rcurveline
          54 95 8 22 69 13 6 37 rcurveline
          -4 -12 callgsubr
          -53 -4 -39 -37 -74 7 0 vhcurveto
          -6 -39 -57 callsubr
          43 -3 20 -10 -17 vvcurveto
          -14 -6 -18 -10 -18 vhcurveto
          -114 -212 rlineto
          -5 hlineto
          -1 -111 229 29 hvcurveto
          282 220 -95 callgsubr
        </CharString>
        <CharString name="Ycircumflex">
          -8 callgsubr
          229 44 callgsubr
          163 567 rmoveto
          23 16 8 60 5 vhcurveto
          3 35 -3 -12 callgsubr
          -86 -8 -56 -46 -64 -45 callgsubr
          -6 -39 2 -4 78 -7 8 -26 40 -82 rlinecurve
          90 -183 rlineto
          24 -48 5 -26 -39 vvcurveto
          -44 vlineto
          -74 -6 -20 -72 -14 vhcurveto
          -6 -46 rlineto
          hintmask 10110000
          0 64 12 50 44 83 -78 callsubr
          -29 -3 -20 -35 -10 17 51 1 vhcurveto
          2 109 -1 34 21 36 100 176 rcurveline
          54 95 8 22 69 13 6 37 rcurveline
          -4 -12 callgsubr
          -53 -4 -39 -37 -74 7 0 vhcurveto
          -6 -39 -57 callsubr
          43 -3 20 -10 -17 vvcurveto
          -14 -6 -18 -10 -18 vhcurveto
          -114 -212 rlineto
          -5 hlineto
          -1 -111 229 29 hvcurveto
          -9 146 -91 callsubr
        </CharString>
        <CharString name="Ydieresis">
          -8 callgsubr
          108 93 hstemhm
          hintmask 01110000
          163 567 rmoveto
          23 16 8 60 5 vhcurveto
          3 35 -3 -12 callgsubr
          -86 -8 -56 -46 -64 -45 callgsubr
          -6 -39 2 -4 78 -7 8 -26 40 -82 rlinecurve
          90 -183 rlineto
          24 -48 5 -26 -39 vvcurveto
          -44 vlineto
          -74 -6 -20 -72 -14 vhcurveto
          -6 -46 rlineto
          hintmask 10110000
          0 64 12 50 44 83 -78 callsubr
          -29 -3 -20 -35 -10 17 51 1 vhcurveto
          2 109 -1 34 21 36 100 176 rcurveline
          54 95 8 22 69 13 6 37 rcurveline
          -4 -12 callgsubr
          -53 -4 -39 -37 -74 7 0 vhcurveto
          -6 -39 -57 callsubr
          43 -3 20 -10 -17 vvcurveto
          -14 -6 -18 -10 -18 vhcurveto
          -114 -212 rlineto
          -5 hlineto
          -1 -111 229 29 hvcurveto
          200 158 -106 callsubr
        </CharString>
        <CharString name="Ygrave">
          -8 callgsubr
          224 44 callgsubr
          163 567 rmoveto
          23 16 8 60 5 vhcurveto
          3 35 -3 -12 callgsubr
          -86 -8 -56 -46 -64 -45 callgsubr
          -6 -39 2 -4 78 -7 8 -26 40 -82 rlinecurve
          90 -183 rlineto
          24 -48 5 -26 -39 vvcurveto
          -44 vlineto
          -74 -6 -20 -72 -14 vhcurveto
          -6 -46 rlineto
          hintmask 10110000
          0 64 12 50 44 83 -78 callsubr
          -29 -3 -20 -35 -10 17 51 1 vhcurveto
          2 109 -1 34 21 36 100 176 rcurveline
          54 95 8 22 69 13 6 37 rcurveline
          -4 -12 callgsubr
          -53 -4 -39 -37 -74 7 0 vhcurveto
          -6 -39 -57 callsubr
          43 -3 20 -10 -17 vvcurveto
          -14 -6 -18 -10 -18 vhcurveto
          -114 -212 rlineto
          -5 hlineto
          -1 -111 229 29 hvcurveto
          -27 210 -79 callgsubr
        </CharString>
        <CharString name="Z">
          1 callgsubr
          15 -17 callgsubr
          495 13 rmoveto
          5 96 20 109 0 vvcurveto
          -47 -5 -22 -114 -41 -51 -69 -1 rlinecurve
          -203 -7 43 68 154 243 189 251 rlinecurve
          -11 29 -258 7 rlineto
          hintmask 10010000
          -175 11 -10 -9 rlineto
          -2 -92 -16 -103 0 vvcurveto
          47 4 11 101 32 33 92 4 rlinecurve
          173 6 -373 -564 rlineto
          hintmask 01100000
          14 -32 70 6 362 -6 rlineto
          endchar
        </CharString>
        <CharString name="Zacute">
          1 callgsubr
          207 -20 -80 callgsubr
          -28 790 -95 callgsubr
        </CharString>
        <CharString name="Zcaron">
          1 callgsubr
          204 -20 -80 callgsubr
          -57 840 -93 callgsubr
        </CharString>
        <CharString name="Zdotaccent">
          1 callgsubr
          85 110 -80 callgsubr
          -193 722 -83 callsubr
        </CharString>
        <CharString name="a">
          -46 callsubr
          44 callsubr
          hintmask 10110000
          -88 callgsubr
          hintmask 01110000
          -68 callgsubr
          hintmask 10110000
          -104 callgsubr
          endchar
        </CharString>
        <CharString name="a.sups">
          -70 callsubr
        </CharString>
        <CharString name="aacute">
          -46 callsubr
          251 -20 44 callsubr
          hintmask 10111000
          -88 callgsubr
          hintmask 01111000
          -68 callgsubr
          hintmask 10111000
          -104 callgsubr
          66 462 -98 callgsubr
        </CharString>
        <CharString name="abreve">
          -46 callsubr
          94 58 66 -20 44 callsubr
          hintmask 10111100
          -88 callgsubr
          hintmask 01111100
          -68 callgsubr
          hintmask 10111100
          -104 callgsubr
          -61 406 -93 callsubr
        </CharString>
        <CharString name="acircumflex">
          -46 callsubr
          239 -20 44 callsubr
          hintmask 10111000
          -88 callgsubr
          hintmask 01111000
          -68 callgsubr
          hintmask 10111000
          -104 callgsubr
          -194 318 rmoveto
          -106 callgsubr
          endchar
        </CharString>
        <CharString name="acute">
          542 -21 194 -20 hstem
          327 672 -98 callgsubr
        </CharString>
        <CharString name="acute.cap">
          724 -21 138 -20 hstem
          349 787 -95 callgsubr
        </CharString>
        <CharString name="adieresis">
          -46 callsubr
          102 93 44 callsubr
          hintmask 10111000
          -88 callgsubr
          hintmask 01111000
          -68 callgsubr
          hintmask 10111000
          -104 callgsubr
          14 356 -106 callsubr
        </CharString>
        <CharString name="ae">
          219 -12 64 -39 -21 409 63 hstemhm
          hintmask 10100000
          -55 callsubr
          hintmask 01100000
          30 callgsubr
          hintmask 10100000
          -49 callsubr
          endchar
        </CharString>
        <CharString name="aeacute">
          219 -12 64 -39 -21 409 63 251 -20 hstemhm
          hintmask 10110000
          -55 callsubr
          hintmask 01110000
          30 callgsubr
          hintmask 10110000
          -49 callsubr
          138 410 -98 callgsubr
        </CharString>
        <CharString name="agrave">
          -46 callsubr
          250 -20 44 callsubr
          hintmask 10111000
          -88 callgsubr
          hintmask 01111000
          -68 callgsubr
          hintmask 10111000
          -104 callgsubr
          -188 450 -80 callsubr
        </CharString>
        <CharString name="amacron">
          -46 callsubr
          131 52 6 -20 44 callsubr
          hintmask 10110100
          -88 callgsubr
          hintmask 01110100
          -68 callgsubr
          hintmask 10101100
          -104 callgsubr
          80 443 rmoveto
          hintmask 10110100
          -85 callsubr
        </CharString>
        <CharString name="ampersand">
          266 -12 63 -58 -21 395 58 165 59 hstemhm
          55 75 -25 70 hintmask 10110100
          326 301 rmoveto
          -118 101 -33 46 66 vvcurveto
          46 34 30 54 38 21 -11 -43 47 vhcurveto
          10 1 48 74 -2 15 rlineto
          0 -48 23 -73 -113 -86 -68 -91 -48 26 -50 56 -59 vhcurveto
          -7 vlineto
          hintmask 10111000
          0 -132 -51 -115 vvcurveto
          -106 83 -66 131 68 75 34 56 56 vhcurveto
          hintmask 01111000
          -70 78 43 -36 6 hhcurveto
          15 47 31 0 hvcurveto
          16 vlineto
          -140 118 rlineto
          26 40 14 44 42 vvcurveto
          39 -16 36 -26 23 vhcurveto
          3 6 rlineto
          100 hlineto
          52 9 3 17 9 hvcurveto
          13 31 -10 24 -2 -4 -7 -1 -68 -6 rlinecurve
          -206 -12 rlineto
          -32 -2 -21 -16 0 vvcurveto
          14 -43 rlineto
          0 30 9 27 53 25 -38 -80 -33 -6 -29 -12 -24 vhcurveto
          -45 -61 rmoveto
          hintmask 10111000
          -33 -38 -51 -18 -55 hhcurveto
          -101 -66 51 78 51 34 48 52 24 hvcurveto
          endchar
        </CharString>
        <CharString name="aogonek">
          32 -241 59 174 67 339 66 hstem
          460 -159 rmoveto
          0 -38 -23 -39 -35 -23 22 32 39 30 43 106 111 vhcurveto
          -16 19 rlineto
          0 -28 -25 -32 -26 -15 17 29 27 -1 -16 15 168 vhcurveto
          3 31 1 10 10 vvcurveto
          69 -38 46 -66 11 vhcurveto
          2 -11 -12 1 -12 hhcurveto
          -43 -120 -70 0 hvcurveto
          12 -43 5 -3 rlineto
          0 55 50 65 56 32 -39 -67 vhcurveto
          -2 -44 -189 -52 rlineto
          -32 -9 -21 -32 -39 vvcurveto
          -72 54 -52 74 20 42 30 48 48 vhcurveto
          1 2 -1 1 hhcurveto
          3 -44 22 -28 39 -6 rrcurveto
          -62 -64 -23 -38 -36 vvcurveto
          -58 43 -36 68 -37 callsubr
          -196 286 rmoveto
          -28 -28 -38 -20 -25 hhcurveto
          -40 -29 29 38 21 10 14 19 7 hvcurveto
          135 41 rlineto
          endchar
        </CharString>
        <CharString name="approxequal">
          72 134 64 -55 -21 55 64 55 64 -21 64 12 -20 hstemhm
          hintmask 10001000
          73 284 -22 callgsubr
          hintmask 10010100
          45 138 -43 53 -74 callgsubr
          hintmask 01101000
          -45 -138 43 -53 hhcurveto
          -16 -4 -76 -89 rlineto
          -5 vlineto
          22 -21 rlineto
          6 -162 -22 callgsubr
          hintmask 10010100
          45 138 -43 53 -74 callgsubr
          hintmask 01110100
          -45 -138 43 -53 hhcurveto
          -16 -4 -76 -89 16 callgsubr
        </CharString>
        <CharString name="aring">
          -46 callsubr
          -66 184 -38 164 44 callsubr
          hintmask 10101100
          -88 callgsubr
          hintmask 01101100
          -68 callgsubr
          hintmask 10101100
          -104 callgsubr
          hintmask 10010100
          -61 372 rmoveto
          -21 -30 13 35 24 15 15 29 33 18 -20 -28 -35 -28 -4 -16 hvcurveto
          hintmask 10101100
          -7 -38 rmoveto
          54 31 42 46 38 -22 38 -55 -51 -33 -36 -48 -47 27 -33 49 hvcurveto
          endchar
        </CharString>
        <CharString name="aringacute">
          -46 callsubr
          14 148 -35 -20 180 -20 44 callsubr
          hintmask 10110110
          -88 callgsubr
          hintmask 01110110
          -68 callgsubr
          hintmask 10101110
          -104 callgsubr
          -44 303 9 callgsubr
          hintmask 10110110
          7 callgsubr
          113 -14 callsubr
        </CharString>
        <CharString name="asciicircum">
          72 78 -21 424 -20 hstem
          270 481 rmoveto
          -47 -2 -86 -203 rlineto
          -39 -91 -42 -110 0 vvcurveto
          5 -9 50 -7 rlineto
          0 39 112 34 82 vhcurveto
          60 154 rlineto
          6 hlineto
          70 -168 rlineto
          36 -82 43 -99 0 vvcurveto
          11 -1 40 30 rlineto
          0 -50 106 -35 82 vhcurveto
          -32 73 -52 125 -35 callsubr
        </CharString>
        <CharString name="asciitilde">
          72 214 64 -55 -21 55 64 12 -26 callsubr
          71 202 -22 callgsubr
          hintmask 10010000
          46 140 -43 54 hhcurveto
          16 4 76 89 rlineto
          5 vlineto
          -22 21 rlineto
          -6 hlineto
          0 -39 -55 -24 vhcurveto
          hintmask 01100000
          -46 -140 43 -54 hhcurveto
          -16 -4 -76 -89 16 callgsubr
        </CharString>
        <CharString name="asterisk">
          22 438 -21 320 -20 hstem
          86 666 rmoveto
          -9 -4 rlineto
          -9 -30 0 -38 0 vvcurveto
          0 55 -12 51 -17 vhcurveto
          6 5 6 33 rlineto
          -45 34 -55 29 0 vvcurveto
          5 -193 rmoveto
          1 -9 rlineto
          26 -18 36 -12 0 vvcurveto
          0 28 49 32 43 vhcurveto
          -3 7 -29 16 rlineto
          -47 -32 -44 -44 0 vvcurveto
          185 -55 rmoveto
          9 -1 rlineto
          25 19 22 30 0 vvcurveto
          0 -37 42 -31 44 vhcurveto
          -8 -1 -24 -23 rlineto
          16 -54 28 -56 0 vvcurveto
          109 159 rmoveto
          4 9 rlineto
          -10 29 -22 31 0 vvcurveto
          0 -51 -23 -52 -16 vhcurveto
          -1 -8 14 -29 rlineto
          56 -2 62 9 0 vvcurveto
          -117 153 rmoveto
          -7 7 rlineto
          -31 -36 -12 0 hvcurveto
          0 5 -56 -54 vvcurveto
          6 -4 34 5 rlineto
          18 53 11 61 -35 callsubr
        </CharString>
        <CharString name="at">
          398 -209 43 154 66 352 54 97 56 hstem
          33 71 107 70 vstem
          477 -12 rmoveto
          212 110 154 162 173 -138 136 -201 -261 -166 -207 -218 -208 137 -177 261 -12 hvcurveto
          26 36 rlineto
          7 vlineto
          -247 14 -106 165 193 vvcurveto
          188 128 163 203 177 118 -101 -176 -134 -71 -92 -146 vhcurveto
          -4 4 rlineto
          26 186 58 199 0 vvcurveto
          -8 12 -31 15 -5 -1 -9 -25 -100 16 rlineto
          -107 -122 -166 -170 -80 26 -56 54 hvcurveto
          61 43 60 71 66 125 6 -2 rcurveline
          0 -43 -189 -19 vvcurveto
          -19 12 -10 24 vhcurveto
          -167 81 rmoveto
          -17 -12 49 55 123 65 110 63 41 47 -25 -8 13 hvcurveto
          -178 -77 -88 -126 -35 hhcurveto
          endchar
        </CharString>
        <CharString name="atilde">
          -46 callsubr
          109 34 callsubr
          285 77 hintmask 10110110
          -88 callgsubr
          hintmask 01110110
          -68 callgsubr
          hintmask 10101110
          -104 callgsubr
          -200 341 -22 callgsubr
          hintmask 10110110
          28 85 -33 33 -74 callgsubr
          hintmask 10101110
          -63 callsubr
        </CharString>
        <CharString name="b">
          74 -12 55 353 68 278 -20 hstem
          395 77 vstem
          85 626 rmoveto
          -618 vlineto
          9 -8 rlineto
          0 62 -12 67 138 111 116 146 127 -79 87 -114 -14 -46 -26 -44 -61 vhcurveto
          5 188 9 133 9 14 0 callsubr
          -4 -33 3 -3 rlineto
          0 11 3 11 25 12 -17 -37 vhcurveto
          68 -562 rmoveto
          3 278 rlineto
          31 34 46 23 27 hhcurveto
          74 58 -81 -102 -105 -55 -65 -89 -32 -42 9 12 -24 hvcurveto
          endchar
        </CharString>
        <CharString name="b.sups">
          -89 344 45 204 53 172 -20 hstem
          57 735 rmoveto
          -376 vlineto
          6 -6 rlineto
          0 46 -9 47 92 69 70 95 83 -49 54 -74 -8 -28 -17 -25 -37 vhcurveto
          3 117 6 78 7 9 -4 10 rcurveline
          0 -63 -12 -52 -7 vhcurveto
          -3 -28 2 -3 rlineto
          1 7 2 7 hhcurveto
          18 7 -10 -25 hvcurveto
          61 -335 rmoveto
          2 167 rlineto
          15 17 23 11 16 hhcurveto
          42 31 -45 -63 -61 -29 -35 -48 -19 -23 6 5 -12 hvcurveto
          endchar
        </CharString>
        <CharString name="backslash">
          -105 -89 -21 785 -20 hstem
          37 665 rmoveto
          0 79 -288 43 -162 vhcurveto
          42 -165 42 -160 0 vvcurveto
          48 hlineto
          7 8 rlineto
          0 -53 176 -39 152 vhcurveto
          -115 449 rlineto
          -46 hlineto
          endchar
        </CharString>
        <CharString name="bar">
          -62 -248 -21 1076 -20 hstem
          214 807 rmoveto
          -60 -11 -1 -520 rlineto
          -1 -179 0 -360 0 vvcurveto
          9 -6 59 11 rlineto
          0 -1 377 172 vvcurveto
          166 6 344 0 vhcurveto
          endchar
        </CharString>
        <CharString name="braceleft">
          -125 -112 -21 782 -20 hstem
          102 71 vstem
          46 247 rmoveto
          54 -12 43 -26 -50 -41 -41 -76 -59 vvcurveto
          -62 45 -54 79 30 24 8 0 vhcurveto
          8 28 -3 -38 callsubr
          -30 -6 -20 -45 -17 32 36 vhcurveto
          46 27 84 53 vvcurveto
          61 -35 30 -38 14 vhcurveto
          6 vlineto
          34 11 39 28 61 50 -27 84 45 vvcurveto
          36 17 33 44 17 29 -5 0 vhcurveto
          8 30 -3 -18 callgsubr
          -31 6 -26 -82 -44 -54 -62 vhcurveto
          -59 41 -77 -46 vvcurveto
          -43 -45 -27 -48 -13 vhcurveto
          endchar
        </CharString>
        <CharString name="braceright">
          -125 -112 -21 782 -20 hstem
          136 71 vstem
          263 269 rmoveto
          -54 12 -43 26 50 41 41 76 59 vvcurveto
          62 -45 54 -79 -30 -24 -8 0 vhcurveto
          -8 -28 3 -6 rlineto
          0 30 6 20 45 17 -32 -36 vhcurveto
          -46 -27 -84 -53 vvcurveto
          -61 35 -30 38 -14 vhcurveto
          -6 vlineto
          -34 -11 -39 -28 -61 -50 27 -84 -45 vvcurveto
          -36 -17 -33 -44 -17 -29 5 0 vhcurveto
          -8 -30 3 -5 rlineto
          0 31 -6 26 82 44 54 62 vhcurveto
          59 -41 77 46 vvcurveto
          43 45 27 48 13 vhcurveto
          endchar
        </CharString>
        <CharString name="bracketleft">
          -125 -116 -21 777 -20 hstem
          278 -137 rmoveto
          6 30 -4 7 -116 24 rlineto
          655 vlineto
          114 24 6 31 -4 6 -184 -11 rlineto
          0 11 -279 -100 vvcurveto
          -100 -11 -276 0 vhcurveto
          endchar
        </CharString>
        <CharString name="bracketright">
          -125 -116 -21 777 -20 hstem
          31 640 rmoveto
          -6 -30 4 -7 116 -24 rlineto
          -655 vlineto
          -114 -24 -6 -31 4 -6 184 11 rlineto
          0 -11 279 100 vvcurveto
          100 11 276 0 vhcurveto
          endchar
        </CharString>
        <CharString name="breve">
          558 58 66 -20 hstem
          199 616 -93 callsubr
        </CharString>
        <CharString name="breve.cap">
          710 58 50 -20 hstem
          199 768 -52 callsubr
        </CharString>
        <CharString name="brokenbar">
          -62 -248 -21 1076 -20 hstem
          152 166 rmoveto
          -429 vlineto
          9 -6 59 11 rlineto
          0 -1 239 194 vvcurveto
          -3 3 rlineto
          3 198 rmoveto
          1 176 5 249 0 vvcurveto
          -11 6 -60 -11 rlineto
          -142 -1 -142 -142 vvcurveto
          4 -3 rlineto
          endchar
        </CharString>
        <CharString name="bullet">
          -94 117 221 hstem
          168 117 rmoveto
          67 46 50 62 58 -43 51 -67 -65 -46 -51 -62 -57 40 -51 68 hvcurveto
          endchar
        </CharString>
        <CharString name="c">
          21 callsubr
          -91 callgsubr
          endchar
        </CharString>
        <CharString name="c.sups">
          -142 343 55 204 45 hstem
          28 70 vstem
          245 417 rmoveto
          0 -34 -19 -35 -49 -29 41 70 60 24 33 45 28 18 -18 -30 vhcurveto
          -20 vlineto
          35 2 rlineto
          2 51 11 42 0 vvcurveto
          -2 -18 callgsubr
          -33 13 -45 -88 -65 -68 -93 -87 53 -56 85 36 57 45 0 vhcurveto
          -9 28 rlineto
          endchar
        </CharString>
        <CharString name="cacute">
          21 callsubr
          251 -20 -91 callgsubr
          2 586 -98 callgsubr
        </CharString>
        <CharString name="caron">
          547 -21 184 -20 hstem
          47 686 -86 callsubr
        </CharString>
        <CharString name="caron.alt">
          496 -21 234 -20 hstem
          233 709 -78 callgsubr
          endchar
        </CharString>
        <CharString name="caron.cap">
          725 -21 134 -20 hstem
          330 837 -93 callgsubr
        </CharString>
        <CharString name="ccaron">
          21 callsubr
          246 -20 -91 callgsubr
          -278 600 -86 callsubr
        </CharString>
        <CharString name="ccedilla">
          -10 -20 callgsubr
          571 54 hstemhm
          36 80 hintmask 01111000
          190 -85 rmoveto
          -72 callsubr
          hintmask 10111000
          16 callsubr
          39 rlineto
          50 7 78 59 0 vvcurveto
          -11 31 -5 callgsubr
          -57 -33 -56 -84 -52 72 116 107 45 60 82 49 33 -33 -49 vhcurveto
          -31 vlineto
          41 3 rlineto
          3 78 18 60 -15 callsubr
          -12 callgsubr
          -53 19 -64 -131 -100 -111 -144 -123 68 -83 109 -13 vhcurveto
          endchar
        </CharString>
        <CharString name="ccircumflex">
          21 callsubr
          238 -20 -91 callgsubr
          -236 441 rmoveto
          -106 callgsubr
          endchar
        </CharString>
        <CharString name="cdotaccent">
          21 callsubr
          138 110 -91 callgsubr
          -132 516 -83 callsubr
        </CharString>
        <CharString name="cedilla">
          -20 callgsubr
          184 44 callgsubr
          151 -85 rmoveto
          -72 callsubr
          hintmask 10110000
          -54 callsubr
          25 73 rlineto
          -43 hlineto
          endchar
        </CharString>
        <CharString name="cent">
          -10 -133 -21 142 67 603 -20 hstem
          36 80 vstem
          365 88 rmoveto
          0 -57 -33 -56 -6 -5 0 1 -6 vhcurveto
          34 350 rlineto
          34 -9 22 -29 -40 vvcurveto
          -31 vlineto
          41 3 rlineto
          3 78 18 60 -15 callsubr
          -12 callgsubr
          -49 17 -61 2 vhcurveto
          18 185 -6 9 -26 -4 -18 -192 rlineto
          -119 -13 -87 -106 -134 vvcurveto
          -117 62 -81 100 -18 vhcurveto
          -13 -140 5 -7 26 3 13 140 rlineto
          -1 5 5 0 6 hhcurveto
          49 88 67 0 hvcurveto
          -11 31 rlineto
          -255 157 rmoveto
          104 43 60 78 3 vhcurveto
          -33 -346 rlineto
          -55 22 -33 65 92 vvcurveto
          endchar
        </CharString>
        <CharString name="circumflex">
          548 -21 176 -20 hstem
          68 528 rmoveto
          -106 callgsubr
          endchar
        </CharString>
        <CharString name="circumflex.cap">
          733 -21 134 -20 hstem
          68 713 -91 callsubr
        </CharString>
        <CharString name="colon">
          -196 -12 119 161 119 hstem
          112 -44 callsubr
          280 vmoveto
          -25 callsubr
        </CharString>
        <CharString name="comma">
          -196 -136 -21 256 -20 hstem
          -51 callsubr
          endchar
        </CharString>
        <CharString name="commaaccent">
          -272 39 callsubr
          138 -107 -102 callgsubr
          endchar
        </CharString>
        <CharString name="copyright">
          259 -12 40 -40 179 256 40 95 40 hstemhm
          hintmask 01110000
          339 131 rmoveto
          63 45 19 0 hvcurveto
          4 7 rlineto
          2 38 11 49 0 vvcurveto
          -32 -2 rlineto
          -52 -10 -23 -23 -46 hhcurveto
          -67 -31 55 82 79 37 40 59 48 16 -19 -25 -11 -1 -13 0 hvcurveto
          33 2 rlineto
          3 51 10 39 0 vvcurveto
          -2 4 rlineto
          0 -50 12 -46 -105 -68 -76 -100 -85 48 -71 102 vhcurveto
          -297 162 rmoveto
          -168 135 -137 169 169 136 137 168 168 -136 137 -169 -169 -135 -137 -168 vhcurveto
          42 hmoveto
          146 117 119 145 145 118 -119 -146 vhcurveto
          hintmask 10110000
          -146 -118 -119 -145 -145 -117 119 146 vhcurveto
          endchar
        </CharString>
        <CharString name="currency">
          10 194 -21 40 48 197 48 51 -20 hstem
          73 359 rmoveto
          -30 9 -29 16 -23 vhcurveto
          -33 -32 -32 -30 0 vvcurveto
          23 -39 11 -3 rlineto
          0 32 31 35 36 vhcurveto
          -17 24 29 -10 32 hhcurveto
          32 30 10 17 24 hvcurveto
          66 -66 40 30 3 11 rlineto
          0 -35 32 -36 34 vhcurveto
          14 22 9 27 29 vvcurveto
          32 -10 30 -18 24 vhcurveto
          70 69 -27 40 -13 -27 callsubr
          -33 -37 -35 -38 vhcurveto
          15 -23 -28 9 -30 hhcurveto
          -30 -28 -9 -15 -23 hvcurveto
          -35 35 -32 34 0 vvcurveto
          -39 -26 -2 -12 rlineto
          0 34 -33 36 -36 vhcurveto
          -17 -24 -10 -29 -32 vvcurveto
          48 hmoveto
          55 44 44 54 55 44 -44 -55 -54 -44 -44 -55 -54 -44 44 54 vhcurveto
          endchar
        </CharString>
        <CharString name="d">
          103 13 callgsubr
          354 62 -67 callsubr
        </CharString>
        <CharString name="d.sups">
          -72 346 54 -36 -21 257 46 172 44 callgsubr
          228 390 rmoveto
          4 -1 rlineto
          -30 4 21 -16 36 hhcurveto
          33 11 27 47 0 vvcurveto
          -9 12 rlineto
          hintmask 10110000
          0 -16 -13 -17 -15 -9 10 17 186 9 180 11 16 vhcurveto
          -5 9 rlineto
          0 -60 -13 -53 -6 vhcurveto
          -4 -32 rlineto
          0 10 2 6 18 7 -10 -25 vhcurveto
          -90 vlineto
          1 -14 -12 1 -11 hhcurveto
          -91 -70 -71 -93 -83 49 -53 74 8 26 15 29 43 hvcurveto
          -2 33 rmoveto
          0 -30 -26 -27 -42 -31 44 30 callsubr
        </CharString>
        <CharString name="dagger">
          57 -72 -21 423 62 206 -20 hstem
          218 308 rmoveto
          -15 -393 11 -8 62 9 -5 395 rlineto
          93 vmoveto
          15 186 -11 8 -62 -9 5 -188 rlineto
          71 -68 -41 callgsubr
          endchar
        </CharString>
        <CharString name="daggerdbl">
          57 -72 -21 206 62 183 62 178 -20 hstem
          218 90 rmoveto
          -15 -175 11 -8 62 9 -5 177 rlineto
          18 23 -41 callgsubr
          17 219 rmoveto
          -150 vlineto
          55 4 rlineto
          150 vlineto
          -2 92 rmoveto
          15 159 -11 8 -62 -9 5 -161 rlineto
          71 -67 -41 callgsubr
          endchar
        </CharString>
        <CharString name="dcaron">
          115 13 callgsubr
          572 709 -78 callgsubr
          -225 -639 -67 callsubr
        </CharString>
        <CharString name="dcroat">
          103 -9 68 -50 -21 418 58 0 71 0 47 0 98 62 -20 hstemhm
          36 77 hintmask 10101011
          354 62 rmoveto
          7 -3 rlineto
          hintmask 01101011
          -47 7 29 -24 53 hhcurveto
          47 14 40 66 0 vvcurveto
          -14 16 rlineto
          hintmask 10100111
          0 -28 -25 -32 -26 -15 17 29 154 4 158 5 119 vhcurveto
          91 1 4 37 -13 13 -79 -4 4 82 6 55 6 9 rlinecurve
          -6 13 rlineto
          -47 callsubr
          -4 -37 rlineto
          0 14 4 11 25 12 -17 -37 vhcurveto
          -44 vlineto
          -116 1 -7 -39 rlineto
          hintmask 10010111
          9 -9 114 1 rlineto
          -76 vlineto
          3 -28 -23 1 -18 hhcurveto
          -137 -112 -118 -144 -126 78 -85 115 14 42 24 47 69 hvcurveto
          47 vmoveto
          0 -61 -53 -48 -74 -58 79 101 vhcurveto
          hintmask 10101011
          -13 callgsubr
        </CharString>
        <CharString name="degree">
          -132 397 42 168 42 hstem
          25 523 rmoveto
          -70 56 -56 70 70 56 56 70 70 -56 56 -70 -70 -56 -56 -70 vhcurveto
          42 hmoveto
          46 38 38 46 46 38 -38 -46 -46 -38 -38 -46 -46 -38 38 46 vhcurveto
          endchar
        </CharString>
        <CharString name="dieresis">
          566 93 hstem
          277 566 -106 callsubr
        </CharString>
        <CharString name="dieresis.cap">
          725 93 hstem
          277 725 -106 callsubr
        </CharString>
        <CharString name="divide">
          72 29 119 87 56 87 119 hstem
          cntrmask 11100000
          482 297 rmoveto
          26 callsubr
          -12 callsubr
          29 callsubr
          -243 -258 rmoveto
          -90 callgsubr
          349 vmoveto
          -25 callsubr
        </CharString>
        <CharString name="dollar">
          25 -133 -21 145 48 416 51 152 -20 hstem
          329 71 vstem
          282 649 rmoveto
          -6 9 -26 -4 -14 -148 rlineto
          -101 -8 -73 -60 -79 vvcurveto
          -70 67 -36 66 -32 vhcurveto
          4 -3 5 -2 5 -2 -17 -175 rcurveline
          -67 4 -16 27 96 vvcurveto
          -45 -4 rlineto
          -72 -11 -63 0 vhcurveto
          5 -9 rlineto
          0 52 -26 78 -1 vhcurveto
          -13 -138 5 -7 26 3 13 143 rlineto
          108 9 73 60 83 vvcurveto
          74 -80 36 -70 33 vhcurveto
          -1 -1 0 1 -1 hvcurveto
          16 166 rlineto
          49 -5 17 -20 -44 vvcurveto
          -21 -2 -15 0 vhcurveto
          6 -4 39 4 rlineto
          5 71 14 61 0 vvcurveto
          -4 -12 callgsubr
          -49 17 -70 2 vhcurveto
          50 -391 rmoveto
          -44 -38 -29 -56 -4 vhcurveto
          15 160 rlineto
          44 -22 35 -24 -37 vvcurveto
          -179 270 rmoveto
          39 39 28 53 2 vhcurveto
          -14 -152 rlineto
          -44 23 -34 24 36 vvcurveto
          endchar
        </CharString>
        <CharString name="dotaccent">
          602 110 hstem
          194 602 -83 callsubr
        </CharString>
        <CharString name="dotaccent.cap">
          719 110 hstem
          194 719 -83 callsubr
        </CharString>
        <CharString name="dotbelowcomb">
          -192 119 hstem
          196 -192 rmoveto
          -25 callsubr
        </CharString>
        <CharString name="dotlessi">
          -152 -41 callsubr
          476 -26 callsubr
          44 -12 rmoveto
          hintmask 10100000
          -100 callsubr
          157 11 169 12 28 vhcurveto
          -5 -34 callsubr
          -77 -19 -67 -10 -56 callsubr
          14 4 11 25 12 -17 -37 vhcurveto
          -254 vlineto
          -35 -16 -19 -40 -11 vhcurveto
          endchar
        </CharString>
        <CharString name="dotlessj">
          -184 -220 -21 705 -20 hstem
          33 -241 rmoveto
          82 50 45 81 96 vvcurveto
          283 6 164 11 19 vhcurveto
          -5 -34 callsubr
          -83 -20 -61 -8 -56 callsubr
          16 3 11 30 10 -13 -41 vhcurveto
          -310 vlineto
          -137 -17 -58 -57 -57 vhcurveto
          -2 -8 rlineto
          endchar
        </CharString>
        <CharString name="e">
          -47 callgsubr
          hstem
          36 75 vstem
          -105 callsubr
          endchar
        </CharString>
        <CharString name="e.sups">
          -124 343 54 108 142 -43 43 hstemhm
          hintmask 10100000
          97 535 rmoveto
          44 5 26 25 36 hhcurveto
          29 17 -17 -31 -12 -3 -3 -11 -1 hvcurveto
          hintmask 11000000
          70 -35 rmoveto
          8 -12 callgsubr
          4 17 17 vvcurveto
          67 -35 34 -68 -82 -65 -71 -90 -87 55 -56 86 43 61 46 0 vhcurveto
          -9 26 -4 1 rlineto
          0 -38 -19 -40 -52 -33 38 62 -2 vhcurveto
          8 vlineto
          endchar
        </CharString>
        <CharString name="eacute">
          -47 callgsubr
          251 -20 hstem
          36 75 vstem
          -105 callsubr
          260 414 -98 callgsubr
        </CharString>
        <CharString name="ebreve">
          -47 callgsubr
          94 58 66 -20 hstem
          36 75 vstem
          -105 callsubr
          145 358 -93 callsubr
        </CharString>
        <CharString name="ecaron">
          -47 callgsubr
          246 -20 hstem
          36 75 vstem
          -105 callsubr
          -20 428 -86 callsubr
        </CharString>
        <CharString name="ecircumflex">
          -47 callgsubr
          239 -20 hstem
          36 75 vstem
          -105 callsubr
          270 vmoveto
          -106 callgsubr
          endchar
        </CharString>
        <CharString name="edieresis">
          -47 callgsubr
          102 93 hstem
          36 75 vstem
          -105 callsubr
          208 308 -106 callsubr
        </CharString>
        <CharString name="edotaccent">
          -47 callgsubr
          138 110 hstem
          36 75 vstem
          -105 callsubr
          126 344 -83 callsubr
        </CharString>
        <CharString name="egrave">
          -47 callgsubr
          250 -20 hstem
          36 75 vstem
          -105 callsubr
          6 402 -80 callsubr
        </CharString>
        <CharString name="eight">
          -69 callsubr
        </CharString>
        <CharString name="eight.dnom">
          -107 13 36 callgsubr
          80 -92 callgsubr
        </CharString>
        <CharString name="eight.lf">
          -69 callsubr
        </CharString>
        <CharString name="eight.numr">
          -107 280 36 callgsubr
          347 -92 callgsubr
        </CharString>
        <CharString name="eight.sinf">
          -107 -107 36 callgsubr
          -40 -92 callgsubr
        </CharString>
        <CharString name="eight.sups">
          -107 364 36 callgsubr
          431 -92 callgsubr
        </CharString>
        <CharString name="eight.tf">
          16 -12 43 521 46 hstemhm
          46 72 -55 70 179 74 hintmask 11101000
          46 124 rmoveto
          -88 77 -48 87 111 85 80 98 77 -54 42 -60 34 vhcurveto
          39 22 55 46 77 vvcurveto
          90 -75 44 -75 vhcurveto
          hintmask 11011000
          -102 -71 -79 -84 -74 49 -40 56 -32 hvcurveto
          hintmask 11101000
          -43 -21 -79 -50 -94 vvcurveto
          187 -93 rmoveto
          -67 -48 56 61 75 54 34 31 14 hvcurveto
          67 -35 67 -31 -68 vvcurveto
          -61 -49 -45 -55 vhcurveto
          hintmask 11011000
          -100 434 rmoveto
          45 33 42 54 52 40 -38 -71 -59 -31 -31 -25 -16 vhcurveto
          -63 35 -60 31 62 vvcurveto
          endchar
        </CharString>
        <CharString name="eight.tosf">
          6 -12 43 521 46 hstemhm
          43 72 -72 86 177 73 hintmask 11101000
          43 124 rmoveto
          -88 76 -48 86 110 84 80 98 77 -53 42 -59 34 vhcurveto
          38 22 54 46 77 vvcurveto
          90 -74 44 -74 -101 -70 -79 -84 -74 48 -40 55 -32 vhcurveto
          -42 -21 -78 -50 -94 vvcurveto
          184 -93 rmoveto
          -65 -47 56 61 75 52 34 31 14 hvcurveto
          66 -35 66 -31 -68 vvcurveto
          -61 -48 -45 -55 vhcurveto
          hintmask 11011000
          -98 434 rmoveto
          45 34 42 52 51 40 -38 -71 -59 -30 -31 -25 -16 vhcurveto
          -62 35 -60 31 62 vvcurveto
          endchar
        </CharString>
        <CharString name="ellipsis">
          224 -12 119 hstem
          326 -44 callsubr
          210 hmoveto
          -90 callgsubr
          -420 hmoveto
          -25 callsubr
        </CharString>
        <CharString name="emacron">
          -47 callgsubr
          131 52 6 -20 hstemhm
          36 75 hintmask 11101100
          -105 callsubr
          274 395 rmoveto
          hintmask 11110100
          -85 callsubr
        </CharString>
        <CharString name="emdash">
          484 226 55 -36 -21 63 -26 callsubr
          918 287 rmoveto
          hintmask 10000000
          -14 -270 -6 -160 hhcurveto
          -172 -297 1 0 hvcurveto
          -11 -49 rlineto
          hintmask 01100000
          -12 callsubr
          hintmask 10000000
          82 512 2 322 hhcurveto
          8 51 rlineto
          endchar
        </CharString>
        <CharString name="endash">
          24 226 58 -39 -21 63 -26 callsubr
          458 287 -38 callgsubr
        </CharString>
        <CharString name="eng">
          99 -123 -21 144 42 354 68 1 -20 hstemhm
          384 73 hintmask 11101000
          326 464 rmoveto
          -32 -91 -60 -16 -24 hvcurveto
          -2 3 rlineto
          2 34 9 32 0 vvcurveto
          hintmask 11011000
          -95 callsubr
          hintmask 11101000
          15 20 54 37 49 hhcurveto
          53 30 -38 -66 hvcurveto
          -1 -198 -2 -109 -21 -43 -83 -45 rlinecurve
          -3 -8 17 -33 113 42 39 64 8 134 rlinecurve
          11 239 rlineto
          79 -53 50 -84 vhcurveto
          endchar
        </CharString>
        <CharString name="eogonek">
          14 -241 59 170 68 202 41 114 51 hstem
          36 75 vstem
          402 -31 callsubr
          53 40 40 91 90 vhcurveto
          1 1 -11 29 -5 callgsubr
          -61 -31 -62 -89 -59 74 112 vhcurveto
          16 276 vlineto
          29 callgsubr
          6 24 25 vvcurveto
          95 -51 50 -98 -119 -102 -118 -137 -132 84 -89 126 16 18 5 7 19 vhcurveto
          -54 -53 -41 -47 -47 -43 callgsubr
          -300 473 rmoveto
          73 12 49 45 62 hhcurveto
          53 30 -29 -53 -20 -5 -5 -20 -2 hvcurveto
          endchar
        </CharString>
        <CharString name="equal">
          72 158 56 -36 -21 158 56 6 -17 callgsubr
          482 220 rmoveto
          26 callsubr
          rlineto
          hintmask 01100000
          -12 callsubr
          hintmask 10010000
          29 callsubr
          -6 167 rmoveto
          hintmask 10100000
          26 callsubr
          -12 callsubr
          29 callsubr
          endchar
        </CharString>
        <CharString name="estimated">
          363 9 -21 663 -20 hstem
          180 311 rmoveto
          597 8 hlineto
          184 -165 148 -203 -203 -166 -148 -184 -183 166 -148 203 118 107 51 78 67 vhcurveto
          -54 hlineto
          -67 -57 -85 -42 -95 hhcurveto
          -89 -81 37 60 -56 hvcurveto
          -5 6 -4 7 8 vvcurveto
          181 vlineto
          3 2 1 3 vhcurveto
          463 205 rmoveto
          -182 vlineto
          -3 -2 -2 -3 vhcurveto
          -458 hlineto
          -3 -2 2 3 hvcurveto
          178 vlineto
          9 4 8 6 6 vhcurveto
          59 57 79 37 89 hhcurveto
          87 79 -36 -57 57 hvcurveto
          6 -6 4 -7 -9 vvcurveto
          endchar
        </CharString>
        <CharString name="eth">
          15 callgsubr
          410 692 rmoveto
          -138 -67 -55 45 -65 39 -74 32 rlinecurve
          -10 -4 -15 -33 65 -30 55 -35 46 -40 rlinecurve
          -118 -58 4 -30 9 -3 133 64 41 -42 31 -48 23 -53 rlinecurve
          -2 -2 rlineto
          0 -43 26 -31 -122 -101 -111 -136 -129 82 -89 118 125 97 111 143 134 -58 124 -106 99 vhcurveto
          121 59 -4 29 rlineto
          -35 -481 rmoveto
          -104 -43 -65 -69 -87 -61 81 117 103 48 61 79 63 36 -26 -15 16 vhcurveto
          12 -47 6 -50 -55 vvcurveto
          endchar
        </CharString>
        <CharString name="exclam">
          -149 -12 119 587 -20 hstem
          117 -44 callsubr
          -11 222 rmoveto
          11 -8 28 7 52 474 -9 11 -83 -18 -7 -10 rlineto
          endchar
        </CharString>
        <CharString name="exclamdown">
          -149 -221 -21 587 119 hstem
          168 464 9 callsubr
          11 -222 rmoveto
          -11 8 -28 -7 -52 -474 9 -11 83 18 7 10 rlineto
          endchar
        </CharString>
        <CharString name="f">
          -104 0 43 -26 -21 403 50 234 59 hstemhm
          108 70 hintmask 01111000
          45 405 rmoveto
          49 -2 12 -7 2 -32 rrcurveto
          -270 vlineto
          -34 -19 -20 -38 -5 vhcurveto
          -5 -39 rlineto
          hintmask 10111000
          -10 callsubr
          -59 callsubr
          -26 -2 -34 -35 -16 17 38 vhcurveto
          4 301 rlineto
          70 62 1 callsubr
          -67 -3 -71 vhcurveto
          1 49 rlineto
          125 2 37 60 76 hhcurveto
          65 50 -37 0 hvcurveto
          15 callsubr
          -140 -89 -108 -174 -1 vhcurveto
          -4 vlineto
          -60 -11 -7 -34 rlineto
          endchar
        </CharString>
        <CharString name="f.f">
          -134 0 43 -23 -21 401 49 222 59 hstemhm
          hintmask 10110000
          182 498 rmoveto
          105 2 36 68 99 hhcurveto
          82 61 -60 0 hvcurveto
          11 3 rlineto
          20 33 21 25 35 callsubr
          -68 49 -92 -126 -118 -91 -183 vhcurveto
          -3 callgsubr
          -235 vlineto
          -58 2 -28 -59 -4 vhcurveto
          -5 -39 rlineto
          0 55 2 57 vhcurveto
          hintmask 01110000
          13 15 -1 14 hhcurveto
          43 40 -4 1 hvcurveto
          7 45 -2 4 rlineto
          hintmask 10110000
          0 -26 -2 -41 -32 -13 23 32 vhcurveto
          101 4 100 101 vvcurveto
          216 42 callgsubr
          -200 hlineto
          16 1 17 16 vvcurveto
          endchar
        </CharString>
        <CharString name="f.l">
          -104 0 43 -26 -21 403 50 234 59 hstemhm
          hintmask 01110000
          182 498 rmoveto
          112 2 33 73 92 hhcurveto
          80 65 -60 0 hvcurveto
          11 3 rlineto
          15 43 11 30 35 callsubr
          -56 34 -83 -132 -110 -94 -192 vhcurveto
          -3 callgsubr
          -235 vlineto
          -60 -5 -25 -52 -7 vhcurveto
          -5 -39 rlineto
          hintmask 10110000
          1 82 3 66 40 48 -3 1 vhcurveto
          7 42 -2 4 rlineto
          0 -24 -1 -38 -35 -14 22 33 vhcurveto
          100 4 101 100 vvcurveto
          70 60 1 callsubr
          -66 -3 -70 vhcurveto
          16 1 17 16 vvcurveto
          endchar
        </CharString>
        <CharString name="f.sups">
          -201 369 -21 249 221 -48 48 hstemhm
          hintmask 11000000
          32 599 rmoveto
          32 -1 8 -4 1 -20 rrcurveto
          -157 vlineto
          -22 -11 -11 -25 -3 vhcurveto
          -4 -33 rlineto
          0 43 3 36 26 61 -2 0 vhcurveto
          5 36 -2 -27 callsubr
          -18 -1 -21 -20 -9 9 22 vhcurveto
          2 179 rlineto
          45 -1 36 -1 0 vvcurveto
          7 39 -2 -24 callsubr
          -40 -2 -45 vhcurveto
          30 vlineto
          hintmask 10100000
          74 1 20 32 46 hhcurveto
          40 31 -24 0 hvcurveto
          7 2 rlineto
          11 28 10 22 0 vvcurveto
          -2 8 rlineto
          0 -29 12 -44 -94 -61 -68 -108 vhcurveto
          -5 vlineto
          -39 -6 -5 -28 rlineto
          endchar
        </CharString>
        <CharString name="f.t">
          -114 0 43 -26 -21 404 49 234 59 hstemhm
          hintmask 01110000
          45 405 rmoveto
          43 -2 18 -6 2 -35 rrcurveto
          -238 vlineto
          -58 -6 -24 -51 -7 vhcurveto
          -5 -39 rlineto
          hintmask 10110000
          1 79 3 66 37 44 -3 1 vhcurveto
          7 -59 callsubr
          -22 -2 -28 -40 -11 23 32 vhcurveto
          101 4 100 101 vvcurveto
          206 42 callgsubr
          -190 hlineto
          139 17 95 99 65 50 -37 0 vhcurveto
          15 callsubr
          -127 -103 -94 -192 vhcurveto
          -60 -11 -7 -34 rlineto
          endchar
        </CharString>
        <CharString name="fi">
          153 0 43 -34 -21 414 50 231 59 hstemhm
          108 74 hintmask 10111000
          182 498 rmoveto
          125 1 42 60 84 hhcurveto
          80 60 -62 0 hvcurveto
          11 3 rlineto
          15 43 16 32 28 callgsubr
          25 -53 -34 9 -46 hhcurveto
          -153 -95 -110 -176 hvcurveto
          -7 callgsubr
          48 -2 13 -9 2 -32 rlinecurve
          -235 vlineto
          -69 -11 -17 -46 -6 2 callsubr
          -32 -17 19 36 vhcurveto
          101 4 102 101 vvcurveto
          160 hlineto
          59 10 -8 -46 hvcurveto
          -218 vlineto
          -74 -8 -14 -48 -13 vhcurveto
          hintmask 01111000
          -51 callgsubr
          16 40 156 11 170 12 28 vhcurveto
          -5 12 rlineto
          -11 -44 -27 -1 -243 hhcurveto
          endchar
        </CharString>
        <CharString name="five">
          -4 -105 70 457 69 47 -20 hstem
          288 76 vstem
          364 128 rmoveto
          95 -106 42 -134 31 vhcurveto
          7 126 -17 callsubr
          -126 -10 -118 vhcurveto
          9 -11 rlineto
          158 -27 51 -34 -65 vvcurveto
          -79 -81 -54 -105 -26 -27 3 6 -28 vhcurveto
          -5 -6 rlineto
          -59 3 22 -14 38 hhcurveto
          120 165 111 122 hvcurveto
          endchar
        </CharString>
        <CharString name="five.dnom">
          -144 -8 -32 callsubr
          128 -88 callsubr
        </CharString>
        <CharString name="five.lf">
          -14 37 callsubr
          285 76 vstem
          361 205 rmoveto
          98 -77 51 -167 12 vhcurveto
          9 149 -17 callsubr
          -131 -10 -123 vhcurveto
          9 -11 rlineto
          144 -3 67 -39 -79 vvcurveto
          -75 -70 -53 -98 -26 -27 3 6 -28 vhcurveto
          -5 -6 rlineto
          -53 3 17 -20 43 hhcurveto
          126 141 115 102 hvcurveto
          endchar
        </CharString>
        <CharString name="five.numr">
          -144 259 -32 callsubr
          395 -88 callsubr
        </CharString>
        <CharString name="five.sinf">
          -144 -128 -32 callsubr
          8 -88 callsubr
        </CharString>
        <CharString name="five.sups">
          -144 343 -32 callsubr
          479 -88 callsubr
        </CharString>
        <CharString name="five.tf">
          16 37 callsubr
          306 75 vstem
          381 205 rmoveto
          98 -81 51 -174 12 vhcurveto
          10 149 rlineto
          121 108 -8 0 hvcurveto
          6 6 25 118 -33 -4 -12 -30 -13 -7 -41 -2 rlinecurve
          -196 -8 -9 -8 rlineto
          0 -7 -131 -10 -123 vhcurveto
          9 -11 rlineto
          151 -3 71 -39 -79 vvcurveto
          -75 -74 -53 -104 -27 -28 3 6 -29 vhcurveto
          -5 -6 rlineto
          -53 3 18 -20 44 hhcurveto
          130 147 115 102 hvcurveto
          endchar
        </CharString>
        <CharString name="five.tosf">
          6 -105 70 457 69 47 -20 hstem
          295 76 vstem
          371 128 rmoveto
          95 -108 42 -136 31 vhcurveto
          7 126 rlineto
          118 105 -8 0 hvcurveto
          6 6 24 118 -33 -4 -11 -30 -13 -7 -40 -2 rlinecurve
          -191 -8 -9 -8 rlineto
          0 -7 -126 -10 -118 vhcurveto
          9 -11 rlineto
          161 -27 52 -34 -65 vvcurveto
          -79 -83 -54 -107 -26 -27 3 6 -29 vhcurveto
          -4 -6 rlineto
          -59 3 22 -14 38 hhcurveto
          121 168 111 122 hvcurveto
          endchar
        </CharString>
        <CharString name="fj">
          134 -220 -21 241 43 359 50 231 59 hstem
          108 73 vstem
          495 452 rmoveto
          -5 12 rlineto
          -12 -48 -41 0 -220 hhcurveto
          137 21 94 107 80 60 -62 0 vhcurveto
          11 3 rlineto
          15 43 16 32 35 callsubr
          -56 34 -83 -15 -14 -1 -2 -14 vhcurveto
          -111 -18 -88 -96 -169 vvcurveto
          -3 callgsubr
          -268 vlineto
          -36 -21 -18 -36 -5 2 callsubr
          -35 -14 21 34 vhcurveto
          101 4 102 101 vvcurveto
          144 hlineto
          71 14 4 -58 hvcurveto
          -310 vlineto
          -141 -19 -56 -55 -55 vhcurveto
          -2 -8 18 -19 rlineto
          83 51 44 82 94 vvcurveto
          129 0 308 17 29 vhcurveto
          endchar
        </CharString>
        <CharString name="fl">
          140 -41 callsubr
          411 50 234 59 hstemhm
          108 70 hintmask 01111000
          180 399 rmoveto
          70 62 1 callsubr
          -67 -3 -71 vhcurveto
          1 49 rlineto
          124 1 37 61 73 hhcurveto
          39 52 -18 -25 32 hvcurveto
          1 -14 rlineto
          -532 vlineto
          -35 -16 -19 -40 -11 vhcurveto
          -51 callgsubr
          16 40 295 14 314 14 22 vhcurveto
          -6 13 rlineto
          0 -32 -9 -42 -8 vhcurveto
          11 -30 -36 6 -33 hhcurveto
          -138 -87 -109 -173 -1 hvcurveto
          -4 vlineto
          -7 callgsubr
          50 -2 11 -8 2 -31 rlinecurve
          -270 vlineto
          -34 -19 -20 -38 -5 23 callsubr
          -59 callsubr
          -26 -2 -34 -35 -16 17 38 vhcurveto
          endchar
        </CharString>
        <CharString name="florin">
          -52 -159 41 425 50 198 43 hstem
          116 -43 rmoveto
          -54 -5 -24 2 callgsubr
          76 56 82 8 vhcurveto
          12 131 18 197 rlineto
          68 -1 60 -2 0 vvcurveto
          10 53 -3 -27 callsubr
          -63 -3 -67 vhcurveto
          6 69 rlineto
          64 5 1 65 55 hhcurveto
          40 39 -32 -35 16 hvcurveto
          13 hlineto
          9 10 9 44 20 vvcurveto
          21 -52 15 -45 -76 -64 -57 -84 -8 vhcurveto
          -7 -65 -3 -32 -70 -10 -7 -34 4 -6 rlineto
          61 -1 4 -1 -32 vvcurveto
          endchar
        </CharString>
        <CharString name="foundryicon">
          349 -59 152 52 157 42 180 -87 87 hstemhm
          hintmask 11100000
          328 344 rmoveto
          45 33 -31 -42 hvcurveto
          -178 -74 136 vlineto
          38 -14 18 -29 -18 -6 -3 -9 vhcurveto
          -180 -74 vlineto
          hintmask 11010000
          344 74 -116 vlineto
          -6 2 -3 4 3 3 2 2 3 vhcurveto
          hintmask 11100000
          155 4 rmoveto
          89 56 rlineto
          21 -28 hlineto
          -6 4 -4 6 vhcurveto
          58 -36 -58 hlineto
          -7 -3 -4 -6 hvcurveto
          -90 vlineto
          -40 12 -17 29 8 9 1 3 9 vhcurveto
          -25 vlineto
          -63 -37 rlineto
          -45 -33 31 42 hvcurveto
          132 vlineto
          7 -3 3 -7 vhcurveto
          -26 hlineto
          -255 -361 rmoveto
          423 hlineto
          52 28 28 52 hvcurveto
          423 vlineto
          52 -28 28 -52 vhcurveto
          -423 hlineto
          -52 -28 -28 -52 hvcurveto
          -423 vlineto
          -52 28 -28 52 vhcurveto
          endchar
        </CharString>
        <CharString name="four">
          13 25 callsubr
          4 89 -39 callsubr
          hintmask 11100000
          -2 callgsubr
        </CharString>
        <CharString name="four.dnom">
          -123 14 18 callgsubr
          107 -92 callsubr
        </CharString>
        <CharString name="four.lf">
          11 14 callsubr
          2 183 -39 callsubr
          hintmask 11110000
          -2 callgsubr
        </CharString>
        <CharString name="four.numr">
          -123 281 18 callgsubr
          374 -92 callsubr
        </CharString>
        <CharString name="four.sinf">
          -123 -106 -21 113 46 225 -20 hstem
          10 -13 -92 callsubr
        </CharString>
        <CharString name="four.sups">
          -123 365 18 callgsubr
          458 -92 callsubr
        </CharString>
        <CharString name="four.tf">
          16 14 callsubr
          3 183 rmoveto
          79 92 -2 -2 78 -46 callgsubr
          54 -2 38 11 callgsubr
          -94 352 hlineto
          -32 10 rlineto
          hintmask 11110000
          -1 -2 -1 -1 hhcurveto
          -278 -378 rlineto
          236 241 rmoveto
          9 -224 -172 hlineto
          endchar
        </CharString>
        <CharString name="four.tosf">
          6 25 callsubr
          3 89 rmoveto
          77 91 -2 -2 76 -46 callgsubr
          53 -2 37 11 callgsubr
          -92 352 hlineto
          -33 10 rlineto
          hintmask 11100000
          -1 -2 -1 -1 hhcurveto
          -272 -378 rlineto
          231 241 rmoveto
          9 -224 -168 hlineto
          endchar
        </CharString>
        <CharString name="fraction">
          -309 -74 -21 773 -20 hstem
          304 659 -84 callgsubr
          endchar
        </CharString>
        <CharString name="franc">
          14 0 42 -42 166 -155 -21 30 -21 130 150 -46 46 177 46 -41 -20 72 -20 hstemhm
          129 71 hintmask 1000101001000000
          198 90 rmoveto
          39 95 vlineto
          5 30 rlineto
          hintmask 0100011001000000
          -5 7 rlineto
          -94 hlineto
          3 62 rlineto
          3 24 30 2 31 hhcurveto
          37 43 -4 1 hvcurveto
          14 51 -6 8 rlineto
          0 -69 -10 -22 -22 -36 0 1 -22 vhcurveto
          3 79 1 33 -6 57 25 5 rlinecurve
          1 8 11 1 17 hhcurveto
          100 7 -7 -44 -11 -1 -27 0 hvcurveto
          49 3 rlineto
          6 73 14 63 0 vvcurveto
          hintmask 1000100111000000
          -5 7 rlineto
          hintmask 1000101001000000
          -5 -54 -66 -6 -67 hhcurveto
          -50 hlineto
          -50 -71 3 0 hvcurveto
          -7 -37 2 -8 rlineto
          hintmask 0100010111000000
          0 24 1 9 22 5 -7 -30 vhcurveto
          -1 -258 rlineto
          -67 hlineto
          -6 -30 rlineto
          hintmask 0010101001000000
          7 -7 rlineto
          66 hlineto
          -70 -2 -15 -64 -11 vhcurveto
          -5 -43 rlineto
          hintmask 1000101001000000
          0 60 10 40 vhcurveto
          hintmask 0001101001000000
          13 17 -1 18 hhcurveto
          36 36 -2 1 hvcurveto
          9 38 -2 8 rlineto
          hintmask 1000101001000000
          1 -38 -3 -18 -24 -7 11 37 vhcurveto
          endchar
        </CharString>
        <CharString name="g">
          -21 callgsubr
          50 -20 31 callgsubr
          hintmask 11011110
          -73 callgsubr
          hintmask 11100110
          -98 callsubr
          endchar
        </CharString>
        <CharString name="g.sups">
          -91 199 40 193 215 -41 41 14 -20 hstemhm
          226 87 hintmask 11001000
          158 432 rmoveto
          77 57 48 64 23 -9 22 -17 18 hvcurveto
          3 3 rlineto
          25 2 25 3 0 vvcurveto
          8 43 rlineto
          hintmask 10011000
          -3 -27 callsubr
          -57 -17 -32 -3 vhcurveto
          hintmask 11001000
          -18 -21 6 -26 hhcurveto
          -70 -56 -50 -64 -37 17 -31 31 -17 hvcurveto
          -3 vlineto
          0 -35 -22 -19 -20 vhcurveto
          -32 28 -26 40 -5 vhcurveto
          -4 vlineto
          0 -44 -27 -20 -24 vhcurveto
          -54 41 -32 66 84 80 56 60 vhcurveto
          105 -215 -61 53 vvcurveto
          8 9 10 13 7 vhcurveto
          -3 12 13 -2 13 hhcurveto
          14 36 rmoveto
          -38 -25 28 45 hvcurveto
          hintmask 10101000
          41 20 24 34 38 25 -28 -45 -42 -20 -23 -34 vhcurveto
          -229 vmoveto
          -39 -24 17 28 25 31 24 0 hvcurveto
          99 -13 16 -6 -22 vvcurveto
          -28 -39 -25 -44 vhcurveto
          endchar
        </CharString>
        <CharString name="gbreve">
          -21 callgsubr
          125 58 66 -20 31 callgsubr
          hintmask 11011111
          -73 callgsubr
          hintmask 11101111
          -98 callsubr
          -2 809 -93 callsubr
        </CharString>
        <CharString name="gcircumflex">
          -21 callgsubr
          269 -20 31 callgsubr
          hintmask 11011110
          -73 callgsubr
          hintmask 11101110
          -98 callsubr
          -111 720 rmoveto
          -106 callgsubr
          endchar
        </CharString>
        <CharString name="gcommaaccent">
          70 -242 49 238 85 44 239 0 51 -11 -20 31 46 226 -20 31 callgsubr
          hintmask 1110111110000000
          -73 callgsubr
          hintmask 1101001110000000
          -26 -34 11 -38 hhcurveto
          -99 -87 -83 -95 -59 27 -49 47 -25 hvcurveto
          -4 vlineto
          0 -53 -32 -31 -32 vhcurveto
          -48 47 -42 62 -8 vhcurveto
          -6 vlineto
          0 -66 -46 -33 -44 vhcurveto
          -84 56 -49 95 127 121 88 92 70 -58 29 -155 8 vhcurveto
          -82 3 -38 15 31 vvcurveto
          13 15 16 27 15 vhcurveto
          -5 21 18 -3 19 hhcurveto
          hintmask 1110111110000000
          24 44 rmoveto
          -69 -46 52 77 67 38 43 61 68 47 -53 -77 -68 -38 -41 -61 hvcurveto
          -2 -367 rmoveto
          -69 -41 31 51 45 62 46 0 hvcurveto
          160 -21 35 -14 -39 vvcurveto
          -52 -69 -47 -78 vhcurveto
          56 743 -62 callgsubr
          endchar
        </CharString>
        <CharString name="gdotaccent">
          -21 callgsubr
          169 110 31 callgsubr
          hintmask 11011110
          -73 callgsubr
          hintmask 11101110
          -98 callsubr
          -9 795 -83 callsubr
        </CharString>
        <CharString name="germandbls">
          157 -12 55 -43 43 640 59 hstemhm
          108 71 112 74 146 71 hintmask 10111100
          288 41 rmoveto
          -30 51 -23 65 96 82 74 85 vhcurveto
          137 -217 25 88 76 126 34 113 vvcurveto
          63 -73 59 -79 -145 -86 -106 -180 vhcurveto
          -7 callgsubr
          47 -2 14 -9 2 -30 rlinecurve
          -256 vlineto
          -50 -10 -17 -47 -6 vhcurveto
          -5 -39 rlineto
          hintmask 01111100
          0 56 4 56 30 69 -2 0 vhcurveto
          7 42 -2 4 rlineto
          0 -18 -1 -29 -26 -14 20 35 1 vhcurveto
          6 400 rlineto
          127 1 36 58 76 hhcurveto
          78 49 -37 -58 hvcurveto
          -75 -131 -42 -93 -137 220 -21 -105 vvcurveto
          -43 -36 -40 -40 -60 -35 35 60 vhcurveto
          -14 hlineto
          -16 -19 -22 -48 -19 vvcurveto
          endchar
        </CharString>
        <CharString name="grave">
          542 -21 193 -20 hstem
          72 660 -80 callsubr
        </CharString>
        <CharString name="grave.cap">
          724 -21 138 -20 hstem
          53 777 -79 callgsubr
        </CharString>
        <CharString name="greater">
          72 91 -21 394 -20 hstem
          467 295 rmoveto
          0 -125 52 -73 32 vhcurveto
          -82 35 -106 50 0 vvcurveto
          -30 -40 1 -11 rlineto
          -34 callgsubr
          endchar
        </CharString>
        <CharString name="greaterequal">
          72 -73 55 -36 -21 hstemhm
          hintmask 10000000
          467 295 rmoveto
          -1 -125 53 -73 32 vhcurveto
          -42 18 rlineto
          -73 31 -73 37 -1 vvcurveto
          -30 -40 rlineto
          -4 1 -3 -4 vvcurveto
          -34 callgsubr
          7 -296 rmoveto
          -1 -1 -135 -5 -78 -23 callgsubr
          hintmask 01000000
          -12 callsubr
          hintmask 10000000
          -33 callsubr
        </CharString>
        <CharString name="guillemotleft">
          -7 34 callgsubr
          358 400 -45 callsubr
          -188 15 -45 callsubr
          endchar
        </CharString>
        <CharString name="guillemotright">
          -7 34 callgsubr
          235 46 -44 callgsubr
          -144 -15 -44 callgsubr
          endchar
        </CharString>
        <CharString name="guilsinglleft">
          -173 34 callgsubr
          192 400 -45 callsubr
          endchar
        </CharString>
        <CharString name="guilsinglright">
          -173 34 callgsubr
          69 46 -44 callgsubr
          endchar
        </CharString>
        <CharString name="h">
          100 -28 callsubr
          278 -74 callsubr
          endchar
        </CharString>
        <CharString name="h.sups">
          -71 366 -21 246 56 171 -20 hstem
          23 349 rmoveto
          0 39 2 29 25 40 -2 0 vhcurveto
          6 34 -2 -27 callsubr
          -12 -1 -7 -15 -6 8 23 50 1 49 1 46 vhcurveto
          7 9 32 23 28 hhcurveto
          30 16 -21 -39 hvcurveto
          -3 -115 rlineto
          -21 -9 -11 -23 -5 vhcurveto
          -4 -34 rlineto
          0 44 6 26 24 7 callsubr
          11 92 23 vvcurveto
          52 -33 30 -59 -22 -53 -39 -13 -15 vhcurveto
          3 118 6 85 8 10 -5 10 rcurveline
          0 -62 -12 -53 -7 vhcurveto
          -3 -28 3 -2 rlineto
          14 hlineto
          19 6 -9 -25 hvcurveto
          -318 vlineto
          -23 -8 -9 -23 -2 vhcurveto
          endchar
        </CharString>
        <CharString name="hbar">
          102 -28 callsubr
          58 46 174 -20 hstemhm
          367 81 hintmask 10111100
          31 -2 rmoveto
          0 57 2 -87 callgsubr
          82 1 84 2 77 vhcurveto
          12 15 59 43 53 hhcurveto
          53 30 -38 -66 hvcurveto
          -6 -198 rlineto
          -35 -16 -19 -40 -11 vhcurveto
          hintmask 01111100
          -4 -41 rlineto
          hintmask 10111100
          -100 callsubr
          vhcurveto
          58 16 144 35 vvcurveto
          82 -50 47 -87 -38 -93 -65 -13 -19 vhcurveto
          1 49 2 46 2 41 103 1 rcurveline
          32 callsubr
          -51 -4 -41 -1 vhcurveto
          5 90 5 61 7 10 0 callsubr
          -4 -32 4 -3 rlineto
          21 hlineto
          26 11 -16 -36 hvcurveto
          -58 vlineto
          -39 -35 10 callgsubr
          0 34 0 38 1 vhcurveto
          -428 vlineto
          -37 -14 -14 -38 -4 vhcurveto
          endchar
        </CharString>
        <CharString name="hcircumflex">
          100 -28 callsubr
          476 -74 callsubr
          -32 726 rmoveto
          -106 callgsubr
          endchar
        </CharString>
        <CharString name="hungarumlaut">
          555 -21 171 -20 hstem
          256 664 rmoveto
          -33 38 -9 -27 callsubr
          -74 -83 -66 -68 vhcurveto
          16 -18 9 -2 rlineto
          79 66 76 55 0 vvcurveto
          130 9 rmoveto
          -33 38 -9 -27 callsubr
          -74 -83 -66 -68 vhcurveto
          16 -18 9 -2 rlineto
          79 66 76 55 -35 callsubr
        </CharString>
        <CharString name="hungarumlaut.cap">
          706 -21 152 -20 hstem
          273 790 rmoveto
          -22 43 -9 4 rlineto
          0 -81 -64 -72 -53 vhcurveto
          9 -21 8 -5 38 callgsubr
          143 hmoveto
          -22 42 -9 -18 callgsubr
          -81 -64 -72 -54 vhcurveto
          10 -21 7 -4 38 callgsubr
          endchar
        </CharString>
        <CharString name="hyphen">
          -110 231 -21 89 -20 hstem
          281 299 rmoveto
          0 -19 -4 -46 -5 vhcurveto
          -174 -20 -6 -52 7 -8 240 26 5 54 rlineto
          endchar
        </CharString>
        <CharString name="i">
          -64 callgsubr
        </CharString>
        <CharString name="i.sups">
          -232 365 -21 254 -20 142 85 hstem
          61 71 vstem
          99 720 rmoveto
          26 19 19 26 24 -15 16 -23 -27 -18 -19 -26 -24 15 -16 23 hvcurveto
          -68 -376 rmoveto
          0 43 7 30 25 40 -2 0 vhcurveto
          5 34 41 callsubr
          21 107 6 97 9 18 vhcurveto
          -5 10 rlineto
          0 -57 -13 -52 -7 vhcurveto
          -3 -31 rlineto
          0 9 2 6 19 7 -9 -25 vhcurveto
          -146 vlineto
          -23 -11 -12 -25 -5 vhcurveto
          endchar
        </CharString>
        <CharString name="iacute">
          -152 -41 callsubr
          727 -26 callsubr
          44 -12 rmoveto
          hintmask 10100000
          -100 callsubr
          157 11 169 12 28 vhcurveto
          -5 -34 callsubr
          -77 -19 -67 -10 -56 callsubr
          14 4 11 25 12 -17 -37 vhcurveto
          -254 vlineto
          -35 -16 -19 -40 -11 vhcurveto
          hintmask 01100000
          220 643 -98 callgsubr
        </CharString>
        <CharString name="ibreve">
          -152 -41 callsubr
          414 214 -58 58 66 -20 hstemhm
          hintmask 01101000
          44 -12 rmoveto
          hintmask 10101000
          -100 callsubr
          157 11 169 12 28 vhcurveto
          -5 -34 callsubr
          -77 -19 -67 -10 -56 callsubr
          14 4 11 25 12 -17 -37 vhcurveto
          -254 vlineto
          -35 -16 -19 -40 -11 vhcurveto
          hintmask 01101000
          90 587 rmoveto
          -42 -37 22 44 -17 hvcurveto
          -8 hlineto
          -16 -10 rlineto
          hintmask 10011000
          -57 14 37 -57 69 hhcurveto
          69 37 57 57 14 hvcurveto
          -16 10 rlineto
          -8 hlineto
          -44 -17 -37 -22 -42 hhcurveto
          endchar
        </CharString>
        <CharString name="icircumflex">
          -152 -41 callsubr
          714 -26 callsubr
          44 -12 rmoveto
          hintmask 10100000
          -100 callsubr
          157 11 169 12 28 vhcurveto
          -5 -34 callsubr
          -77 -19 -67 -10 -56 callsubr
          14 4 11 25 12 -17 -37 vhcurveto
          -254 vlineto
          -35 -16 -19 -40 -11 vhcurveto
          hintmask 01100000
          -36 498 rmoveto
          -106 callgsubr
          endchar
        </CharString>
        <CharString name="idieresis">
          -152 -41 callsubr
          578 93 hstemhm
          hintmask 01100000
          44 -12 rmoveto
          hintmask 10100000
          -100 callsubr
          157 11 169 12 28 vhcurveto
          -5 -34 callsubr
          -77 -19 -67 -10 -56 callsubr
          14 4 11 25 12 -17 -37 vhcurveto
          -254 vlineto
          -35 -16 -19 -40 -11 vhcurveto
          hintmask 01100000
          170 537 -106 callsubr
        </CharString>
        <CharString name="idotaccent">
          -64 callgsubr
        </CharString>
        <CharString name="igrave">
          -152 -41 callsubr
          726 -26 callsubr
          44 -12 rmoveto
          hintmask 10100000
          -100 callsubr
          157 11 169 12 28 vhcurveto
          -5 -34 callsubr
          -77 -19 -67 -10 -56 callsubr
          14 4 11 25 12 -17 -37 vhcurveto
          -254 vlineto
          -35 -16 -19 -40 -11 vhcurveto
          hintmask 01100000
          -41 631 -80 callsubr
        </CharString>
        <CharString name="ij">
          98 -220 -21 241 42 560 110 hstem
          133 602 -57 callgsubr
          -89 -614 rmoveto
          -100 callsubr
          157 11 169 12 28 vhcurveto
          -5 -34 callsubr
          -77 -19 -67 -10 -56 callsubr
          14 4 11 25 12 -17 -37 vhcurveto
          -254 vlineto
          -35 -16 -19 -40 -11 vhcurveto
          267 -270 rmoveto
          82 50 45 81 96 vvcurveto
          283 6 164 11 19 vhcurveto
          -5 -34 callsubr
          -83 -20 -61 -8 -56 callsubr
          16 3 11 30 10 -13 -41 vhcurveto
          -310 vlineto
          -137 -17 -58 -57 -57 vhcurveto
          -2 -8 rlineto
          106 824 -57 callgsubr
          endchar
        </CharString>
        <CharString name="imacron">
          -152 -41 callsubr
          414 245 -52 52 6 -26 callsubr
          44 -12 rmoveto
          hintmask 10100000
          -100 callsubr
          157 11 169 12 28 vhcurveto
          -5 -34 callsubr
          -77 -19 -67 -10 -56 callsubr
          14 4 11 25 12 -17 -37 vhcurveto
          -254 vlineto
          -35 -16 -19 -40 -11 vhcurveto
          hintmask 01001000
          223 624 rmoveto
          hintmask 10010000
          0 -71 -6 -45 -54 -85 -5 callsubr
          -9 -45 5 -9 rlineto
          0 77 1 53 vhcurveto
          128 1 6 47 rlineto
          endchar
        </CharString>
        <CharString name="infinity">
          72 117 60 167 56 hstem
          146 400 rmoveto
          -66 -63 -62 -88 -67 36 -66 71 65 36 54 35 17 hvcurveto
          -49 26 31 -40 60 hhcurveto
          66 63 61 89 66 -36 67 -71 -64 -36 -52 -35 -18 hvcurveto
          49 -26 -34 38 -57 hhcurveto
          -5 -223 rmoveto
          -56 -31 37 50 49 33 31 35 51 28 -53 -56 27 hvcurveto
          -25 -12 -26 -33 -49 hhcurveto
          223 163 rmoveto
          56 31 -38 -49 -49 -33 -31 -35 -50 -28 53 58 -28 hvcurveto
          24 13 26 32 48 hhcurveto
          endchar
        </CharString>
        <CharString name="integral">
          -34 -158 41 673 43 hstem
          151 -42 rmoveto
          -54 -3 -26 2 callgsubr
          77 56 86 5 vhcurveto
          31 513 rlineto
          39 2 24 20 28 hhcurveto
          36 35 -32 -35 14 hvcurveto
          13 hlineto
          8 10 10 44 20 vvcurveto
          21 -47 15 -40 -76 -67 -63 -71 -4 vhcurveto
          endchar
        </CharString>
        <CharString name="iogonek">
          -152 -241 59 784 110 hstem
          44 -12 rmoveto
          0 51 11 41 1 vhcurveto
          -53 -53 -41 -47 -47 -43 callgsubr
          -13 19 rlineto
          0 -38 -23 -39 -35 -23 23 31 40 22 32 53 56 vhcurveto
          28 -1 28 -2 0 vvcurveto
          8 -59 callsubr
          -23 -2 -12 vhcurveto
          -4 hlineto
          -22 1 -9 18 37 vvcurveto
          157 11 169 12 28 vhcurveto
          -5 -34 callsubr
          -77 -19 -67 -10 -56 callsubr
          14 4 11 25 12 -17 -37 vhcurveto
          -254 vlineto
          -35 -16 -19 -40 -11 vhcurveto
          85 573 -57 callgsubr
          endchar
        </CharString>
        <CharString name="itilde">
          -152 -41 callsubr
          585 34 callsubr
          hintmask 01101000
          44 -12 rmoveto
          hintmask 10101000
          -100 callsubr
          157 11 169 12 28 vhcurveto
          -5 -34 callsubr
          -77 -19 -67 -10 -56 callsubr
          14 4 11 25 12 -17 -37 vhcurveto
          -254 vlineto
          -35 -16 -19 -40 -11 vhcurveto
          hintmask 01011000
          -48 522 -22 callgsubr
          hintmask 10101000
          28 85 -33 33 -74 callgsubr
          hintmask 10011000
          -63 callsubr
        </CharString>
        <CharString name="j">
          -184 -220 -21 843 110 hstem
          33 -241 rmoveto
          82 50 45 81 96 vvcurveto
          283 6 164 11 19 vhcurveto
          -5 -34 callsubr
          -83 -20 -61 -8 -56 callsubr
          16 3 11 30 10 -13 -41 vhcurveto
          -310 vlineto
          -137 -17 -58 -57 -57 vhcurveto
          -2 -8 rlineto
          106 824 -57 callgsubr
          endchar
        </CharString>
        <CharString name="j.sups">
          -248 219 -21 400 -20 142 85 hstem
          32 198 rmoveto
          59 32 35 52 60 vvcurveto
          177 4 103 8 15 vhcurveto
          -4 10 rlineto
          0 -63 -14 -46 -6 vhcurveto
          -3 -31 rlineto
          0 10 2 8 18 6 -8 -26 vhcurveto
          -190 vlineto
          -83 -10 -35 -37 -36 vhcurveto
          -1 -6 rlineto
          77 506 rmoveto
          26 19 19 26 24 -15 16 -24 -26 -19 -19 -26 -24 15 -16 24 hvcurveto
          endchar
        </CharString>
        <CharString name="jcircumflex">
          -184 -220 -21 944 -20 hstem
          33 -241 rmoveto
          82 50 45 81 96 vvcurveto
          283 6 164 11 19 vhcurveto
          -5 -34 callsubr
          -83 -20 -61 -8 -56 callsubr
          16 3 11 30 10 -13 -41 vhcurveto
          -310 vlineto
          -137 -17 -58 -57 -57 vhcurveto
          -2 -8 rlineto
          -21 750 rmoveto
          -106 callgsubr
          endchar
        </CharString>
        <CharString name="k">
          63 -14 56 -42 42 410 -20 310 44 callgsubr
          29 -6 rmoveto
          -83 callgsubr
          300 14 309 14 22 vhcurveto
          -6 13 rlineto
          -47 callsubr
          -2 -19 rlineto
          -1 -6 -1 -6 -6 vvcurveto
          0 14 4 11 25 12 -17 -37 vhcurveto
          -491 vlineto
          -67 1 -25 -54 -8 vhcurveto
          264 36 rmoveto
          30 -43 19 -21 21 -11 rrcurveto
          hintmask 10110000
          -72 callgsubr
          endchar
        </CharString>
        <CharString name="k.sups">
          -90 364 -21 296 -20 199 -20 hstem
          23 347 rmoveto
          0 39 4 29 25 40 -2 0 vhcurveto
          6 33 41 callsubr
          22 202 9 177 -22 callsubr
          -37 -1 -14 -31 -4 vhcurveto
          175 14 rmoveto
          19 -30 13 -13 18 -6 6 -2 10 -2 10 1 rrcurveto
          13 34 8 0 hvcurveto
          4 26 -2 4 -26 1 -20 15 -25 33 rlinecurve
          -60 83 38 37 43 46 43 14 rlinecurve
          5 29 -2 -27 callsubr
          -38 -3 -27 -28 -42 -5 callsubr
          -6 -25 -57 callsubr
          24 10 -3 -10 -6 -4 -5 -10 -10 hvcurveto
          -69 -65 -2 -12 rlineto
          endchar
        </CharString>
        <CharString name="kcommaaccent">
          63 -272 -21 314 -21 452 -20 310 -20 hstem
          29 -6 rmoveto
          -83 callgsubr
          300 14 309 14 22 vhcurveto
          -6 13 rlineto
          -47 callsubr
          -2 -19 rlineto
          -1 -6 -1 -6 -6 vvcurveto
          0 14 4 11 25 12 -17 -37 vhcurveto
          -491 vlineto
          -67 1 -25 -54 -8 vhcurveto
          264 36 rmoveto
          30 -43 19 -21 21 -11 rrcurveto
          -72 callgsubr
          27 -345 -102 callgsubr
          endchar
        </CharString>
        <CharString name="kgreenlandic">
          78 -14 56 -42 42 410 -20 32 -20 hstemhm
          hintmask 01010000
          44 -6 rmoveto
          -83 callgsubr
          212 8 119 4 22 vhcurveto
          -6 13 rlineto
          0 -74 -11 -59 -6 vhcurveto
          -4 -35 6 -5 rlineto
          47 10 -15 -34 hvcurveto
          -223 vlineto
          -67 1 -25 -54 -8 vhcurveto
          264 36 rmoveto
          30 -43 19 -21 21 -11 rrcurveto
          hintmask 10100000
          -72 callgsubr
          endchar
        </CharString>
        <CharString name="l">
          -190 41 callgsubr
          27 -12 rmoveto
          hintmask 10100000
          -102 callsubr
          16 40 297 14 312 14 22 vhcurveto
          -6 13 rlineto
          -47 callsubr
          -2 -19 rlineto
          -1 -6 -1 -6 -6 vvcurveto
          0 14 4 11 25 12 -17 -37 vhcurveto
          -491 vlineto
          -63 2 -27 -58 -16 vhcurveto
          endchar
        </CharString>
        <CharString name="l.sups">
          -253 366 -21 473 -20 hstem
          22 345 rmoveto
          0 40 6 30 25 41 -2 0 vhcurveto
          6 33 -1 -27 callsubr
          -15 -1 -7 -15 -6 9 22 201 9 178 -22 callsubr
          -35 0 -15 -33 -8 vhcurveto
          endchar
        </CharString>
        <CharString name="lacute">
          -190 -41 callsubr
          957 -26 callsubr
          27 -12 rmoveto
          hintmask 10100000
          -102 callsubr
          16 40 297 14 312 14 22 vhcurveto
          -6 13 rlineto
          -47 callsubr
          -2 -19 rlineto
          -1 -6 -1 -6 -6 vvcurveto
          0 14 4 11 25 12 -17 -37 vhcurveto
          -491 vlineto
          -63 2 -27 -58 -16 vhcurveto
          hintmask 01100000
          222 873 -98 callgsubr
        </CharString>
        <CharString name="lcaron">
          -130 41 callgsubr
          297 699 -78 callgsubr
          -277 -703 rmoveto
          hintmask 10100000
          -102 callsubr
          16 40 297 14 312 14 22 vhcurveto
          -6 13 rlineto
          -47 callsubr
          -2 -19 rlineto
          -1 -6 -1 -6 -6 vvcurveto
          0 14 4 11 25 12 -17 -37 vhcurveto
          -491 vlineto
          -63 2 -27 -58 -16 vhcurveto
          endchar
        </CharString>
        <CharString name="lcommaaccent">
          -190 -16 callsubr
          67 742 -20 hstem
          27 -12 rmoveto
          -102 callsubr
          16 40 297 14 312 14 22 vhcurveto
          -6 13 rlineto
          -47 callsubr
          -2 -19 rlineto
          -1 -6 -1 -6 -6 vvcurveto
          0 14 4 11 25 12 -17 -37 vhcurveto
          -491 vlineto
          -63 2 -27 -58 -16 vhcurveto
          39 -136 -102 callgsubr
          endchar
        </CharString>
        <CharString name="ldot">
          -102 -41 callsubr
          231 119 404 44 callgsubr
          27 -12 rmoveto
          hintmask 10110000
          -102 callsubr
          16 40 297 14 312 14 22 vhcurveto
          -6 13 rlineto
          -47 callsubr
          -2 -19 rlineto
          -1 -6 -1 -6 -6 vvcurveto
          0 14 4 11 25 12 -17 -37 vhcurveto
          -491 vlineto
          -63 2 -27 -58 -16 vhcurveto
          hintmask 01110000
          233 190 rmoveto
          -25 callsubr
        </CharString>
        <CharString name="less">
          72 91 -21 394 -20 hstem
          39 239 rmoveto
          0 125 -52 73 -32 vhcurveto
          82 -35 106 -50 0 vvcurveto
          30 40 -1 11 rlineto
          -19 callsubr
          -42 -91 -39 vhcurveto
          -203 -86 -2 -47 rlineto
          endchar
        </CharString>
        <CharString name="lessequal">
          72 -73 55 -36 -21 539 -17 callgsubr
          39 239 rmoveto
          0 125 -53 73 -31 vhcurveto
          42 -18 rlineto
          72 -31 74 -37 1 vvcurveto
          30 40 rlineto
          4 -1 3 4 vvcurveto
          -19 callsubr
          -43 -91 -38 vhcurveto
          -203 -86 -2 -47 rlineto
          451 -262 rmoveto
          -1 -1 -135 -5 -78 -23 callgsubr
          hintmask 01100000
          -12 callsubr
          hintmask 10100000
          -33 callsubr
        </CharString>
        <CharString name="logicalnot">
          72 51 -21 205 56 6 -17 callgsubr
          452 297 rmoveto
          hintmask 11000000
          0 -104 -6 -80 38 callsubr
          vhcurveto
          33 callgsubr
          139 1 90 vhcurveto
          141 1 rlineto
          -88 -1 -112 0 vhcurveto
          9 -6 49 11 rlineto
          0 -1 66 70 vvcurveto
          1 47 7 63 -35 callsubr
        </CharString>
        <CharString name="lozenge">
          72 -73 -21 745 -20 hstem
          61 262 rmoveto
          80 -164 85 -185 11 -7 47 2 87 189 76 174 -2 26 -78 162 -85 185 -11 7 -47 -2 -87 -189 -77 -177 rlineto
          125 156 rmoveto
          60 143 rlineto
          6 hlineto
          70 -156 69 -146 -67 -162 -60 -143 rlineto
          -6 hlineto
          -70 156 -69 145 rlineto
          endchar
        </CharString>
        <CharString name="lslash">
          -187 41 callgsubr
          27 -12 rmoveto
          hintmask 10100000
          -102 callsubr
          16 40 96 1 99 3 89 vhcurveto
          83 46 -6 31 -8 4 -68 -38 5 165 9 125 9 14 rlinecurve
          -6 13 rlineto
          -47 callsubr
          -2 -19 rlineto
          -1 -6 -1 -6 -6 vvcurveto
          0 14 4 11 25 12 -17 -37 vhcurveto
          -237 vlineto
          -84 -47 6 -32 9 -2 69 38 rlineto
          -211 vlineto
          -63 2 -27 -58 -16 vhcurveto
          endchar
        </CharString>
        <CharString name="m">
          398 -28 callsubr
          1 -20 hstemhm
          383 71 208 80 hintmask 01101100
          321 -12 rmoveto
          hintmask 10101100
          -100 callsubr
          vhcurveto
          11 248 rlineto
          16 22 51 34 48 hhcurveto
          53 30 -38 -66 hvcurveto
          -4 -198 rlineto
          -37 -15 -16 -38 -6 vhcurveto
          -5 -41 rlineto
          -83 callgsubr
          vhcurveto
          58 14 144 35 vvcurveto
          79 -53 50 -84 -39 -95 -67 -12 -17 vhcurveto
          50 -18 -46 29 -64 hhcurveto
          -36 -86 -59 -17 -25 hvcurveto
          -2 3 rlineto
          2 34 9 32 0 vvcurveto
          hintmask 10011100
          -73 callsubr
          -244 vlineto
          -37 -14 -14 -38 -4 vhcurveto
          -6 -41 rlineto
          0 57 2 -87 callgsubr
          39 6 138 3 69 vhcurveto
          hintmask 01101100
          -61 callsubr
          endchar
        </CharString>
        <CharString name="m.sups">
          119 5 callsubr
          38 -2 0 vhcurveto
          6 34 41 callsubr
          23 vhcurveto
          8 147 rlineto
          9 12 27 18 25 hhcurveto
          31 16 -21 -39 hvcurveto
          -2 -115 -1 -22 -8 -9 -22 -4 rlinecurve
          -3 -33 rlineto
          0 40 3 26 24 41 -28 callgsubr
          -13 -1 -8 -15 -6 8 24 vhcurveto
          33 10 92 23 vvcurveto
          51 -35 31 -57 -21 -54 -39 -13 -16 vhcurveto
          33 -11 -30 19 -45 hhcurveto
          hintmask 10100000
          -19 -50 -35 -15 -20 hvcurveto
          -1 -33 callgsubr
          -9 -24 -2 vhcurveto
          -5 -34 rlineto
          0 40 2 31 24 43 callsubr
          -13 -1 -6 -16 -5 8 23 21 4 81 2 45 6 callgsubr
          -22 -5 vhcurveto
          endchar
        </CharString>
        <CharString name="macron">
          595 52 -32 -21 59 -26 callsubr
          343 653 -25 callgsubr
        </CharString>
        <CharString name="macron.cap">
          720 52 -32 -21 59 -26 callsubr
          343 778 -25 callgsubr
        </CharString>
        <CharString name="minus">
          72 235 56 -36 -21 63 -26 callsubr
          482 297 rmoveto
          hintmask 10000000
          26 callsubr
          rlineto
          hintmask 01100000
          -12 callsubr
          hintmask 10000000
          29 callsubr
          endchar
        </CharString>
        <CharString name="mu">
          86 -221 -21 230 71 405 -20 hstem
          72 445 rmoveto
          -5 -7 rlineto
          0 8 -58 -1 -52 vhcurveto
          -6 -255 rlineto
          -4 -161 -11 -142 0 vvcurveto
          7 -12 66 15 5 -12 callgsubr
          -10 91 2 51 vhcurveto
          10 1 10 10 vvcurveto
          3 59 5 3 rlineto
          -15 19 24 -11 32 hhcurveto
          43 9 60 48 26 22 6 -2 rcurveline
          -51 3 34 -26 52 hhcurveto
          34 53 80 0 hvcurveto
          -14 16 rlineto
          0 -28 -25 -32 -26 -15 17 29 162 10 155 12 30 vhcurveto
          -6 12 -86 -18 -5 -7 rlineto
          0 7 -59 -34 vvcurveto
          -233 vlineto
          0 -59 -56 -53 -60 -24 36 62 133 15 134 11 30 vhcurveto
          -6 12 rlineto
          endchar
        </CharString>
        <CharString name="multiply">
          72 101 -21 369 -20 hstem
          392 449 rmoveto
          0 -83 -90 -56 -58 vhcurveto
          -62 62 -78 79 0 vvcurveto
          -43 -26 -2 -11 rlineto
          0 82 -82 63 -62 vhcurveto
          -62 -62 -76 -74 0 vvcurveto
          27 -42 11 -3 rlineto
          0 77 79 63 63 vhcurveto
          139 -138 42 30 3 -34 callsubr
          -87 78 -58 57 vhcurveto
          142 143 -31 42 rlineto
          endchar
        </CharString>
        <CharString name="n">
          128 -28 callsubr
          1 -20 hstemhm
          383 80 hintmask 01101000
          321 -12 rmoveto
          hintmask 10101000
          -84 callsubr
          hintmask 10011000
          -95 callsubr
          hintmask 01101000
          -61 callsubr
          endchar
        </CharString>
        <CharString name="n.sups">
          -53 5 callsubr
          7 callsubr
          10 92 23 vvcurveto
          51 -35 31 -57 vhcurveto
          hintmask 10100000
          -19 -51 -36 -14 -18 hvcurveto
          -2 -33 callgsubr
          -10 -25 -3 vhcurveto
          -4 -34 rlineto
          0 40 4 31 24 43 callsubr
          -13 -1 -6 -16 -5 8 23 21 4 82 2 44 6 callgsubr
          -23 -5 vhcurveto
          endchar
        </CharString>
        <CharString name="nacute">
          128 -28 callsubr
          251 -20 hstemhm
          383 80 hintmask 01111000
          321 -12 rmoveto
          hintmask 10111000
          -84 callsubr
          -95 callsubr
          -61 callsubr
          hintmask 01111000
          92 643 -98 callgsubr
        </CharString>
        <CharString name="nbspace">
          -232 endchar
        </CharString>
        <CharString name="ncaron">
          128 -28 callsubr
          246 -20 hstemhm
          383 80 hintmask 01111000
          321 -12 rmoveto
          hintmask 10111000
          -84 callsubr
          -95 callsubr
          -61 callsubr
          hintmask 01111000
          -188 657 -86 callsubr
        </CharString>
        <CharString name="ncommaaccent">
          128 -16 callsubr
          67 0 42 354 68 1 -20 hstemhm
          383 80 hintmask 10110100
          321 -12 rmoveto
          -84 callsubr
          hintmask 10101100
          -95 callsubr
          hintmask 11010100
          -61 callsubr
          -101 -136 -102 callgsubr
          endchar
        </CharString>
        <CharString name="nine">
          21 -84 12 callsubr
          36 74 225 80 vstem
          65 -70 -54 callgsubr
        </CharString>
        <CharString name="nine.dnom">
          -122 14 0 callgsubr
          24 -87 callsubr
        </CharString>
        <CharString name="nine.lf">
          21 10 12 callsubr
          36 74 225 80 vstem
          65 24 -54 callgsubr
        </CharString>
        <CharString name="nine.numr">
          -122 281 0 callgsubr
          291 -87 callsubr
        </CharString>
        <CharString name="nine.sinf">
          -122 -106 0 callgsubr
          -96 -87 callsubr
        </CharString>
        <CharString name="nine.sups">
          -122 365 0 callgsubr
          375 -87 callsubr
        </CharString>
        <CharString name="nine.tf">
          16 10 12 callsubr
          35 74 223 79 vstem
          63 24 rmoveto
          12 -30 6 -5 rlineto
          0 330 100 301 vvcurveto
          118 -68 91 -111 -117 -80 -87 -105 -76 57 -88 114 30 80 52 0 vhcurveto
          3 -3 rlineto
          -50 -195 -206 -73 0 vvcurveto
          165 278 rmoveto
          -72 -47 60 69 75 40 45 64 73 46 -67 -100 -16 -1 -15 -2 -14 hvcurveto
          -11 -16 -41 -26 -44 hhcurveto
          endchar
        </CharString>
        <CharString name="nine.tosf">
          6 -84 12 callsubr
          32 74 219 79 vstem
          61 -70 rmoveto
          11 -30 7 -5 rlineto
          0 325 100 301 vvcurveto
          118 -68 91 -109 -116 -79 -87 -105 -76 57 -88 112 29 79 52 0 vhcurveto
          3 -3 rlineto
          -50 -195 -201 -73 0 vvcurveto
          162 278 rmoveto
          -71 -46 60 69 75 40 45 62 72 45 -67 -100 -16 -1 -15 -2 -14 hvcurveto
          -11 -16 -40 -26 -43 hhcurveto
          endchar
        </CharString>
        <CharString name="notequal">
          72 45 -21 134 56 101 56 135 -20 hstem
          482 377 rmoveto
          0 -112 -5 -81 -1 vhcurveto
          34 125 -8 10 rlineto
          -26 hlineto
          -36 -135 rlineto
          -90 -134 -1 callsubr
          125 1 89 vhcurveto
          -26 -101 rlineto
          -85 -98 -1 callsubr
          90 1 83 vhcurveto
          -33 -126 7 -8 rlineto
          26 hlineto
          35 134 rlineto
          21 hlineto
          76 75 1 76 hhcurveto
          8 51 -6 10 rlineto
          -1 -161 -5 -74 vhcurveto
          27 101 rlineto
          69 68 1 69 hhcurveto
          8 51 rlineto
          endchar
        </CharString>
        <CharString name="ntilde">
          128 -28 callsubr
          109 34 callsubr
          383 80 hintmask 01110110
          321 -12 rmoveto
          hintmask 10110110
          -84 callsubr
          -95 callsubr
          -61 callsubr
          hintmask 01101110
          -174 522 -22 callgsubr
          hintmask 10110110
          28 85 -33 33 -74 callgsubr
          hintmask 10101110
          -63 callsubr
        </CharString>
        <CharString name="numbersign">
          64 56 -21 173 46 108 44 167 -20 hstem
          51 362 rmoveto
          109 1 -12 -52 -13 -57 -109 1 -15 -37 3 -10 111 1 -37 -168 7 -6 39 8 37 166 36 1 70 -1 -37 -168 7 -6 39 8 36 165 102 -1 19 36 -4 9 rlineto
          -107 hlineto
          16 71 9 39 104 -1 19 36 -4 9 rlineto
          -108 hlineto
          39 161 -8 6 -40 -5 -37 -162 -53 1 rlineto
          -53 hlineto
          39 160 -8 6 -40 -5 -37 -160 -107 1 -15 -37 rlineto
          148 -49 rmoveto
          10 40 38 1 68 -1 -12 -52 -13 -59 -55 1 rlineto
          -52 hlineto
          endchar
        </CharString>
        <CharString name="o">
          -23 callsubr
          -36 callgsubr
          -101 callgsubr
          endchar
        </CharString>
        <CharString name="o.sups">
          -48 callsubr
        </CharString>
        <CharString name="oacute">
          -23 callsubr
          251 -20 -36 callgsubr
          -101 callgsubr
          122 635 -98 callgsubr
        </CharString>
        <CharString name="obreve">
          -23 callsubr
          94 58 66 -20 -36 callgsubr
          -101 callgsubr
          6 579 -93 callsubr
        </CharString>
        <CharString name="ocircumflex">
          -23 callsubr
          239 -20 -36 callgsubr
          -101 callgsubr
          -138 491 rmoveto
          -106 callgsubr
          endchar
        </CharString>
        <CharString name="odieresis">
          -23 callsubr
          102 93 -36 callgsubr
          -101 callgsubr
          70 529 -106 callsubr
        </CharString>
        <CharString name="oe">
          337 -12 49 -49 68 202 41 111 54 hstemhm
          36 80 hintmask 10111000
          583 56 rmoveto
          -89 -59 74 112 hvcurveto
          16 272 vlineto
          29 callgsubr
          11 24 36 vvcurveto
          85 -55 49 -95 -50 -67 -25 -62 -48 vhcurveto
          56 -33 -54 31 -66 hhcurveto
          -128 -99 -111 -143 -131 77 -91 112 68 61 31 55 42 hvcurveto
          -67 43 68 -19 63 hhcurveto
          hintmask 01111000
          60 93 68 0 hvcurveto
          -11 29 -5 callgsubr
          -61 -31 -62 vhcurveto
          hintmask 10111000
          -330 -19 rmoveto
          -81 -56 82 120 105 45 66 72 81 56 -84 -120 -104 -45 -65 -72 hvcurveto
          309 376 rmoveto
          53 30 -29 -53 -20 -5 -6 -20 -1 hvcurveto
          -181 -9 rlineto
          73 12 49 45 62 hhcurveto
          endchar
        </CharString>
        <CharString name="ogonek">
          -241 59 224 -20 hstem
          290 -31 callsubr
          49 34 37 82 84 vhcurveto
          -42 hlineto
          -72 -72 -65 -59 -58 24 callsubr
        </CharString>
        <CharString name="ograve">
          -23 callsubr
          250 -20 -36 callgsubr
          -101 callgsubr
          -132 623 -80 callsubr
        </CharString>
        <CharString name="ohungarumlaut">
          -23 callsubr
          241 -20 -36 callgsubr
          -101 callgsubr
          59 627 rmoveto
          -33 38 -9 -27 callsubr
          -74 -83 -66 -68 vhcurveto
          16 -18 9 -2 rlineto
          79 66 76 55 0 vvcurveto
          130 9 rmoveto
          -33 38 -9 -27 callsubr
          -74 -83 -66 -68 vhcurveto
          16 -18 9 -2 rlineto
          79 66 76 55 -35 callsubr
        </CharString>
        <CharString name="omacron">
          -23 callsubr
          131 52 6 -20 hstemhm
          36 80 264 82 hintmask 11011100
          -101 callgsubr
          136 616 rmoveto
          hintmask 11101100
          -85 callsubr
        </CharString>
        <CharString name="one">
          -80 -35 callgsubr
          517 -26 callsubr
          219 404 43 callgsubr
          -2 0 -2 -16 -99 hvcurveto
          -51 -8 -59 -7 0 vvcurveto
          -4 -42 3 -3 rlineto
          0 32 6 21 34 20 -6 -51 vhcurveto
          -228 vlineto
          -88 -16 -20 -74 -6 vhcurveto
          -6 -46 rlineto
          hintmask 10100000
          -3 callsubr
          2 135 4 106 vhcurveto
          endchar
        </CharString>
        <CharString name="one.dnom">
          -185 14 -21 28 -21 377 -17 callgsubr
          163 311 -89 callsubr
          hintmask 01100000
          -66 callsubr
          endchar
        </CharString>
        <CharString name="one.lf">
          -80 9 -21 33 -21 598 -17 callgsubr
          222 497 43 callgsubr
          -1 -2 -2 -16 -100 hvcurveto
          -51 -9 -59 -7 1 vvcurveto
          -4 -42 3 -3 rlineto
          0 32 6 21 34 20 -6 -51 vhcurveto
          -317 vlineto
          -91 -14 -21 -76 -6 vhcurveto
          -6 -46 rlineto
          hintmask 01100000
          -3 callsubr
          4 228 4 106 vhcurveto
          endchar
        </CharString>
        <CharString name="one.numr">
          -185 281 -21 330 -20 74 -20 hstem
          163 578 -89 callsubr
          -66 callsubr
          endchar
        </CharString>
        <CharString name="one.sinf">
          -185 -120 -20 34 -21 384 -26 callsubr
          163 191 -89 callsubr
          hintmask 10100000
          -66 callsubr
          endchar
        </CharString>
        <CharString name="one.sups">
          -185 365 -21 384 -20 hstem
          163 662 -89 callsubr
          -66 callsubr
          endchar
        </CharString>
        <CharString name="one.tf">
          16 9 -21 33 -21 598 -17 callgsubr
          270 497 rmoveto
          3 46 9 16 31 22 -6 17 rcurveline
          -1 6 -2 -16 -116 hvcurveto
          -60 -9 -70 -7 5 1 -4 -42 rcurveline
          3 -3 rlineto
          0 37 6 25 38 25 -6 -51 vhcurveto
          -317 vlineto
          -91 -15 -21 -89 40 callsubr
          57 56 95 -78 callsubr
          -34 -3 -28 -46 -11 15 53 51 4 228 4 106 vhcurveto
          endchar
        </CharString>
        <CharString name="one.tosf">
          6 9 -21 33 -21 505 -17 callgsubr
          261 404 rmoveto
          3 46 9 16 30 22 -6 17 rcurveline
          -2 8 -2 -16 -113 hvcurveto
          -8 -59 -69 -7 5 hhcurveto
          -5 -42 3 -3 rlineto
          0 37 6 24 38 24 -6 -51 vhcurveto
          -228 vlineto
          -88 -17 -20 -85 40 callsubr
          55 56 94 -78 callsubr
          -34 -3 -27 -45 -12 15 53 51 2 135 4 106 vhcurveto
          endchar
        </CharString>
        <CharString name="onedotenleader">
          -196 -12 119 hstem
          116 -44 callsubr
          endchar
        </CharString>
        <CharString name="onehalf">
          279 -74 -21 95 51 539 -20 74 -20 54 -20 hstem
          163 578 -89 callsubr
          -66 callsubr
          420 81 -84 callgsubr
          -174 -652 rmoveto
          -94 callgsubr
        </CharString>
        <CharString name="onequarter">
          251 -74 -21 200 47 0 115 323 -20 74 -20 54 -20 hstem
          163 578 -89 callsubr
          -66 callsubr
          420 81 -84 callgsubr
          -204 -538 -92 callsubr
        </CharString>
        <CharString name="ordfeminine">
          -70 callsubr
        </CharString>
        <CharString name="ordmasculine">
          -48 callsubr
        </CharString>
        <CharString name="oslash">
          64 -77 -21 86 49 373 54 75 -68 callsubr
          endchar
        </CharString>
        <CharString name="oslashacute">
          64 -77 -21 86 49 373 54 251 -68 callsubr
          264 433 -98 callgsubr
        </CharString>
        <CharString name="otilde">
          -23 callsubr
          109 34 callsubr
          36 80 264 82 hintmask 11011110
          -101 callgsubr
          -144 514 -22 callgsubr
          hintmask 11101110
          28 85 -33 33 -74 callgsubr
          hintmask 11011110
          -63 callsubr
        </CharString>
        <CharString name="p">
          94 -230 40 -26 -21 48 -20 197 55 350 68 4 -20 hstemhm
          415 77 hintmask 01111010
          50 -198 rmoveto
          -5 -39 rlineto
          hintmask 10011010
          0 49 7 57 vhcurveto
          95 hlineto
          8 38 rlineto
          hintmask 01111010
          -2 3 rlineto
          hintmask 10011010
          -11 -12 -1 -11 hhcurveto
          -38 -9 18 61 hvcurveto
          34 -1 35 34 vvcurveto
          0 49 -4 24 136 113 118 144 126 -78 85 -115 -15 -42 -24 -41 -59 vhcurveto
          -4 7 rlineto
          3 26 7 28 0 vvcurveto
          hintmask 10010110
          -73 callsubr
          -298 vlineto
          -43 -2 -91 -32 vvcurveto
          -55 -8 -12 -43 -5 vhcurveto
          121 260 rmoveto
          86 3 114 5 82 vhcurveto
          hintmask 10011010
          29 35 42 20 27 hhcurveto
          74 58 -79 -101 -105 -55 -65 -89 -33 -41 8 11 -26 hvcurveto
          endchar
        </CharString>
        <CharString name="p.sups">
          -75 206 183 -166 -21 142 45 201 55 -48 -20 70 44 callgsubr
          36 235 rmoveto
          -4 -33 rlineto
          hintmask 10010000
          0 37 4 36 vhcurveto
          23 33 -1 15 hhcurveto
          6 33 -1 2 rlineto
          -6 -10 -1 -9 hhcurveto
          -22 -4 11 35 hvcurveto
          61 vlineto
          hintmask 01110000
          0 24 -2 12 93 72 69 96 81 -50 55 -76 -8 -25 -16 -28 -35 vhcurveto
          -3 3 rlineto
          2 18 5 19 0 vvcurveto
          hintmask 10001100
          -5 -38 callsubr
          -53 -12 -52 -7 vhcurveto
          -3 -28 2 -3 rlineto
          8 hlineto
          24 8 -10 -28 hvcurveto
          -182 vlineto
          -3 -100 rlineto
          -32 -5 -7 -26 -3 vhcurveto
          95 164 rmoveto
          50 2 67 3 51 vhcurveto
          hintmask 10010000
          14 18 22 9 15 hhcurveto
          42 30 -43 -62 -61 -29 -35 -48 -19 -23 5 5 -13 hvcurveto
          endchar
        </CharString>
        <CharString name="paragraph">
          127 -105 47 650 49 -4 -17 callgsubr
          341 134 rmoveto
          -140 -17 -52 -84 -57 -39 46 90 vhcurveto
          -15 hlineto
          -20 -23 -18 -39 -27 vvcurveto
          -65 65 -29 69 157 26 96 163 77 2 259 9 59 vhcurveto
          3 36 16 12 61 -3 2 4 rcurveline
          6 42 rlineto
          0 -87 -3 -38 vhcurveto
          hintmask 11000000
          -26 -53 4 -50 hhcurveto
          -130 -81 -88 -108 -151 115 -71 128 -11 hvcurveto
          15 vlineto
          -47 64 -22 55 99 vvcurveto
          86 31 61 67 26 0 -1 -13 1 vhcurveto
          endchar
        </CharString>
        <CharString name="parenleft">
          -125 -125 -21 795 -20 hstem
          84 163 rmoveto
          -242 185 -67 0 vhcurveto
          4 hlineto
          21 26 rlineto
          5 vlineto
          0 -143 70 223 vvcurveto
          173 vlineto
          207 137 58 0 vhcurveto
          1 4 -13 29 rlineto
          -4 hlineto
          0 -188 -68 -245 vvcurveto
          endchar
        </CharString>
        <CharString name="parenright">
          -125 -125 -21 795 -20 hstem
          225 340 rmoveto
          242 -185 67 0 vhcurveto
          -4 hlineto
          -21 -26 rlineto
          -5 vlineto
          0 143 -70 -223 vvcurveto
          -173 vlineto
          -207 -137 -58 0 vhcurveto
          -1 -4 13 -29 rlineto
          4 hlineto
          0 188 68 245 vvcurveto
          endchar
        </CharString>
        <CharString name="partialdiff">
          15 callgsubr
          340 427 rmoveto
          0 -48 26 -31 -121 -97 -108 -139 -109 64 -109 136 129 93 115 139 242 -178 168 -209 89 vhcurveto
          -10 -4 -15 -33 133 -62 103 -85 53 -128 rlinecurve
          41 -223 rmoveto
          -107 -45 -62 -67 -93 -55 89 109 108 48 56 77 73 35 -34 -13 11 vhcurveto
          10 -44 6 -49 -53 vvcurveto
          endchar
        </CharString>
        <CharString name="percent">
          237 -74 -21 83 64 193 66 15 64 193 66 29 -20 hstem
          184 390 -75 callsubr
          353 -274 -75 callsubr
          78 671 -84 callgsubr
          endchar
        </CharString>
        <CharString name="period">
          -196 -12 119 hstem
          116 -44 callsubr
          endchar
        </CharString>
        <CharString name="periodcentered">
          -196 168 119 hstem
          116 168 rmoveto
          -25 callsubr
        </CharString>
        <CharString name="perthousand">
          570 -74 -21 83 64 193 66 15 64 193 66 29 -20 hstem
          184 390 -75 callsubr
          353 -274 -75 callsubr
          347 64 -75 callsubr
          -255 671 -84 callgsubr
          endchar
        </CharString>
        <CharString name="pi">
          166 -81 -21 90 64 393 50 10 -20 hstemhm
          140 73 157 77 hintmask 11101100
          431 153 rmoveto
          39 7 78 9 120 vhcurveto
          46 3 18 9 89 hhcurveto
          7 7 10 46 rlineto
          hintmask 11011100
          -6 7 rlineto
          hintmask 11101100
          0 -87 -10 -58 vhcurveto
          hintmask 11011100
          -59 -171 10 -114 hhcurveto
          -15 -7 -60 -98 1 -7 26 -18 7 1 rlineto
          0 29 66 31 34 8 -11 -45 -179 -11 -281 -7 -16 vhcurveto
          6 -12 72 16 5 -12 callgsubr
          -4 53 48 vvcurveto
          80 7 208 5 82 vhcurveto
          46 3 6 4 66 hhcurveto
          80 5 -3 -51 hvcurveto
          -5 -269 rlineto
          -90 36 -41 81 8 36 46 11 vhcurveto
          -5 7 rlineto
          -66 -27 30 71 hvcurveto
          endchar
        </CharString>
        <CharString name="plus">
          72 51 -21 205 56 209 -20 hstem
          274 500 rmoveto
          -51 -8 -1 -201 rlineto
          -87 -106 -1 callsubr
          110 1 88 vhcurveto
          -88 -1 -111 0 vhcurveto
          9 -6 49 11 rlineto
          0 -1 106 88 vvcurveto
          202 1 26 callgsubr
          123 0 vhcurveto
          endchar
        </CharString>
        <CharString name="plusminus">
          72 -73 58 -39 -21 323 56 199 -20 hstemhm
          hintmask 10110000
          274 503 rmoveto
          -51 -8 rlineto
          -64 -1 -63 -64 vvcurveto
          -87 -106 -1 callsubr
          110 1 88 vhcurveto
          -86 -1 -103 0 vhcurveto
          9 -6 49 11 rlineto
          0 -1 99 85 vvcurveto
          67 68 1 67 hhcurveto
          26 callgsubr
          113 0 vhcurveto
          198 -509 rmoveto
          -1 -34 -1 -43 -1 vhcurveto
          -2 -44 -53 -1 -40 -23 callgsubr
          hintmask 01110000
          -12 callsubr
          hintmask 10110000
          -33 callsubr
        </CharString>
        <CharString name="product">
          274 -35 callgsubr
          596 53 -49 -20 78 -20 hstemhm
          143 70 -70 84 263 70 -70 84 hintmask 1001110010000000
          574 538 rmoveto
          2 38 14 12 56 7 4 51 rcurveline
          hintmask 1010010100000000
          -4 -3 -113 -5 -38 hhcurveto
          -308 hlineto
          -41 -78 3 0 hvcurveto
          -7 -50 -57 callsubr
          hintmask 0101110100000000
          0 27 2 15 -53 callgsubr
          -138 -1 -138 -138 25 callgsubr
          5 2 101 7 53 hhcurveto
          43 48 -4 1 hvcurveto
          9 46 -2 4 rlineto
          0 -29 -3 -24 -12 -8 2 4 -7 vhcurveto
          -13 8 -4 19 35 vvcurveto
          hintmask 0110001100000000
          76 6 193 8 157 vhcurveto
          40 2 21 6 107 hhcurveto
          118 15 -4 -46 hvcurveto
          -138 -1 -139 -137 25 callgsubr
          0 65 12 51 47 84 -78 callsubr
          -29 -3 -24 -35 -9 15 53 vhcurveto
          hintmask 1010010010000000
          76 6 193 8 157 vhcurveto
          endchar
        </CharString>
        <CharString name="q">
          82 -230 40 -23 -21 222 65 353 58 14 -20 hstemhm
          36 77 hintmask 01110100
          279 -234 rmoveto
          hintmask 10101100
          0 61 4 46 vhcurveto
          92 hlineto
          7 39 -2 -24 callsubr
          -12 -1 -14 -31 -5 12 72 328 7 217 12 30 vhcurveto
          -8 9 rlineto
          0 -25 -12 -30 -11 vhcurveto
          hintmask 01110100
          6 -30 -34 3 -28 hhcurveto
          -137 -112 -118 -144 -127 79 -87 114 14 46 27 45 65 hvcurveto
          -4 -195 -2 -49 -9 -9 -55 -3 rlinecurve
          70 305 rmoveto
          0 -61 -56 -48 -74 -58 81 102 -13 callgsubr
        </CharString>
        <CharString name="q.sups">
          -86 206 190 -171 -21 140 52 204 46 10 44 callgsubr
          176 204 rmoveto
          hintmask 10001000
          0 44 2 30 vhcurveto
          72 hlineto
          4 33 -1 1 rlineto
          -17 hlineto
          -18 -3 7 39 204 5 141 8 18 hvcurveto
          -6 -12 callgsubr
          -18 -8 -22 -8 vhcurveto
          hintmask 01110000
          4 -23 -23 2 -19 hhcurveto
          -91 -70 -71 -93 -84 49 -54 74 8 27 16 28 40 hvcurveto
          -2 -113 -1 -31 -7 -6 -36 -2 rlinecurve
          46 187 rmoveto
          0 -30 -27 -27 -42 -31 45 30 callsubr
        </CharString>
        <CharString name="question">
          -74 -12 119 519 68 hstem
          108 203 rmoveto
          9 -4 61 17 3 8 -21 95 3 9 rlineto
          75 54 91 35 112 vvcurveto
          91 -101 70 -123 4 vhcurveto
          -14 -4 -33 -53 2 -11 rlineto
          121 -7 82 -39 -81 vvcurveto
          -37 -26 -28 -31 -21 vhcurveto
          -119 -76 -3 -14 rlineto
          59 -335 rmoveto
          -25 callsubr
        </CharString>
        <CharString name="questiondown">
          -74 -242 68 519 119 hstem
          252 249 rmoveto
          -9 4 -61 -17 -3 -8 21 -95 -3 -9 rlineto
          -75 -54 -91 -35 -112 vvcurveto
          -91 101 -70 123 -4 vhcurveto
          14 4 33 53 -2 11 rlineto
          -121 7 -82 39 81 vvcurveto
          37 26 28 31 21 vhcurveto
          119 76 3 14 rlineto
          -59 335 9 callsubr
          endchar
        </CharString>
        <CharString name="quotedbl">
          -136 436 -21 234 -20 hstem
          129 649 -78 callgsubr
          115 8 -78 callgsubr
          endchar
        </CharString>
        <CharString name="quotedblbase">
          -37 -106 39 callsubr
          63 59 -102 callgsubr
          153 -14 -102 callgsubr
          endchar
        </CharString>
        <CharString name="quotedblleft">
          -103 19 callgsubr
          297 463 -62 callgsubr
          -153 14 -62 callgsubr
          endchar
        </CharString>
        <CharString name="quotedblright">
          -103 19 callgsubr
          189 609 -102 callgsubr
          -157 -14 -102 callgsubr
          endchar
        </CharString>
        <CharString name="quoteleft">
          -258 19 callgsubr
          142 463 -62 callgsubr
          endchar
        </CharString>
        <CharString name="quoteright">
          -258 19 callgsubr
          34 609 -102 callgsubr
          endchar
        </CharString>
        <CharString name="quotesinglbase">
          -196 -136 -21 256 -20 hstem
          -51 callsubr
          endchar
        </CharString>
        <CharString name="quotesingle">
          -258 436 -21 234 -20 hstem
          129 649 -78 callgsubr
          endchar
        </CharString>
        <CharString name="r">
          27 callgsubr
          5 -26 callsubr
          59 36 rmoveto
          -5 -40 rlineto
          hintmask 10100000
          -85 callgsubr
          hintmask 10010000
          -60 callsubr
          endchar
        </CharString>
        <CharString name="r.sups">
          -160 369 -21 229 66 -46 -20 70 -19 callgsubr
          41 382 rmoveto
          -4 -34 rlineto
          0 36 3 38 28 48 -2 0 vhcurveto
          6 36 -1 -27 callsubr
          -20 -1 -10 -22 -6 7 25 12 6 112 0 vhcurveto
          21 15 19 13 16 hhcurveto
          14 4 -9 -38 hvcurveto
          34 2 rlineto
          2 46 10 59 -15 callsubr
          4 rlineto
          0 -9 2 -13 -28 -34 -25 -39 -27 vhcurveto
          -3 2 rlineto
          28 6 33 0 vhcurveto
          hintmask 10110000
          -5 -18 callgsubr
          -55 -12 -49 -8 vhcurveto
          -2 -27 3 -4 rlineto
          0 6 1 6 20 6 -10 -28 vhcurveto
          -130 vlineto
          -36 -6 -9 -26 -2 vhcurveto
          endchar
        </CharString>
        <CharString name="racute">
          27 callgsubr
          255 44 callgsubr
          59 36 rmoveto
          -5 -40 rlineto
          hintmask 10110000
          -85 callgsubr
          -60 callsubr
          213 636 -98 callgsubr
        </CharString>
        <CharString name="radical">
          72 9 -21 754 -20 hstem
          77 366 rmoveto
          34 -84 108 -294 0 vvcurveto
          63 20 222 734 rlineto
          -45 hlineto
          -15 -13 -187 -641 rlineto
          -6 hlineto
          0 -102 284 -8 75 vhcurveto
          -8 8 -41 -2 rlineto
          -23 -1 -60 -3 0 vvcurveto
          -5 -33 3 -4 27 1 28 -8 15 -39 rlinecurve
          endchar
        </CharString>
        <CharString name="rcaron">
          27 callgsubr
          250 44 callgsubr
          59 36 rmoveto
          -5 -40 rlineto
          hintmask 10110000
          -85 callgsubr
          -60 callsubr
          -67 650 -86 callsubr
        </CharString>
        <CharString name="rcommaaccent">
          -51 -16 callsubr
          67 0 44 330 86 5 -20 hstemhm
          hintmask 10110000
          59 36 rmoveto
          -5 -40 rlineto
          -85 callgsubr
          hintmask 11001000
          -60 callsubr
          48 -143 -102 callgsubr
          endchar
        </CharString>
        <CharString name="registered">
          34 324 -21 110 208 -127 -20 123 114 hstemhm
          hintmask 10110000
          30 507 rmoveto
          -113 91 -91 113 113 91 91 113 113 -91 91 -113 -113 -91 -91 -113 vhcurveto
          35 hmoveto
          93 76 76 93 93 76 -76 -93 -93 -76 -76 -93 -93 -76 76 93 vhcurveto
          75 -96 rmoveto
          hintmask 11000000
          0 27 2 18 vhcurveto
          12 hlineto
          14 18 -1 0 hvcurveto
          2 17 -2 4 rlineto
          -24 0 4 24 hvcurveto
          hintmask 10110000
          9 0 10 1 14 vhcurveto
          25 hlineto
          29 -55 rlineto
          -23 12 12 -9 13 hhcurveto
          26 13 0 17 hvcurveto
          -3 4 rlineto
          -14 -13 11 21 -14 hvcurveto
          -29 43 rlineto
          24 11 24 17 35 vvcurveto
          hintmask 11000000
          35 -31 20 -50 vhcurveto
          0 -18 -1 -13 -1 vhcurveto
          -11 hlineto
          -13 -30 1 0 hvcurveto
          -3 -17 2 45 callgsubr
          9 3 -3 -15 hvcurveto
          -111 vlineto
          -29 -1 -7 -24 -2 vhcurveto
          67 157 rmoveto
          hintmask 10110000
          6 1 2 5 32 20 -10 -28 -28 -21 -10 -10 -4 vhcurveto
          1 -10 -12 2 -7 hhcurveto
          23 1 23 1 23 vhcurveto
          endchar
        </CharString>
        <CharString name="ring">
          544 164 hstem
          201 582 -67 callgsubr
        </CharString>
        <CharString name="ring.cap">
          674 164 hstem
          201 712 -67 callgsubr
        </CharString>
        <CharString name="s">
          32 callgsubr
          hstem
          -99 callsubr
          endchar
        </CharString>
        <CharString name="s.sups">
          -156 343 40 223 41 hstem
          118 343 rmoveto
          69 56 42 51 36 -21 20 -71 35 hvcurveto
          -35 17 -14 14 18 vvcurveto
          17 19 13 25 33 15 -13 -30 -4 -1 -10 0 vhcurveto
          31 2 rlineto
          4 42 8 38 0 vvcurveto
          -2 -18 callgsubr
          -30 11 -38 -74 -52 -39 -55 -34 21 -24 50 -24 vhcurveto
          55 -27 14 -11 -19 vvcurveto
          -18 -22 -13 -28 -40 -18 21 47 -1 vhcurveto
          -30 -3 -1 -23 -4 -45 -3 -15 rlinecurve
          3 -6 rlineto
          0 32 -16 50 vhcurveto
          endchar
        </CharString>
        <CharString name="sacute">
          32 callgsubr
          251 -20 hstem
          -99 callsubr
          169 684 -98 callgsubr
        </CharString>
        <CharString name="scaron">
          32 callgsubr
          246 -20 hstem
          -99 callsubr
          -111 698 -86 callsubr
        </CharString>
</ttFont>
